<svg width="48" height="19" viewBox="0 0 48 19" fill="none" xmlns="http://www.w3.org/2000/svg">
<path fill-rule="evenodd" clip-rule="evenodd" d="M9.62536 13.6382C9.07683 13.6382 8.6311 14.0772 8.6311 14.6174C8.6311 15.1562 9.07683 15.5959 9.62536 15.5959C10.1739 15.5959 10.6211 15.157 10.6211 14.6174C10.6211 14.0764 10.1739 13.6382 9.62536 13.6382Z" fill="#313D47"/>
<mask id="mask0_5727_14608" style="mask-type:luminance" maskUnits="userSpaceOnUse" x="0" y="0" width="48" height="16">
<path fill-rule="evenodd" clip-rule="evenodd" d="M0 0H48V15.5777H0V0Z" fill="white"/>
</mask>
<g mask="url(#mask0_5727_14608)">
<path fill-rule="evenodd" clip-rule="evenodd" d="M32.4622 6.84217L21.9343 6.03776L21.0196 1.01922C24.1352 0.971197 29.2588 3.63955 31.7823 4.99849C32.3864 5.3234 32.9289 5.82916 32.9289 5.82916L32.4622 6.84217ZM7.43849 4.9301L8.92799 1.45584L18.8758 1.02738L19.2142 5.82981L7.43849 4.9301ZM48.0003 10.0453L46.9085 8.93852H43.6616L42.5435 7.83171H45.8174L41.451 6.7249L35.1305 5.72615C26.8328 0.0975495 20.4764 0 20.4764 0L5.82295 0.582295L5.77417 1.94123L1.9705 5.80794L4.35671 7.83997H0.883947V12.0008L2.75915 13.1722H0V13.1759L3.6596 15.5779H5.03505C4.97052 15.268 4.936 14.9468 4.936 14.6174C4.936 12.0278 7.03556 9.92753 9.62587 9.92753C12.2162 9.92753 14.3157 12.0278 14.3157 14.6174C14.3157 14.9468 14.2812 15.268 14.2167 15.5779H34.3156C34.2511 15.268 34.2166 14.9468 34.2166 14.6174C34.2166 12.0278 36.3161 9.92753 38.9064 9.92753C41.496 9.92753 43.5963 12.0278 43.5963 14.6174C43.5963 14.9468 43.5611 15.268 43.4965 15.5779H46.9085L48.0003 14.4711V13.35L44.7452 12.2439H48.0003V10.0453Z" fill="#313D47"/>
</g>
<mask id="mask1_5727_14608" style="mask-type:luminance" maskUnits="userSpaceOnUse" x="1" y="11" width="46" height="8">
<path fill-rule="evenodd" clip-rule="evenodd" d="M1.04297 11.0137H46.9805V18.2221H1.04297V11.0137Z" fill="white"/>
</mask>
<g mask="url(#mask1_5727_14608)">
<path fill-rule="evenodd" clip-rule="evenodd" d="M38.9056 16.6477C37.7665 16.6477 36.8443 15.7375 36.8443 14.618C36.8443 13.4984 37.7673 12.5889 38.9056 12.5889C40.0432 12.5889 40.9676 13.4976 40.9676 14.618C40.9676 15.7375 40.0439 16.6477 38.9056 16.6477ZM9.62502 16.6477C8.48669 16.6477 7.56373 15.7375 7.56373 14.618C7.56373 13.4984 8.48744 12.5889 9.62502 12.5889C10.7633 12.5889 11.6878 13.4976 11.6878 14.618C11.6878 15.7375 10.7641 16.6477 9.62502 16.6477ZM42.5682 14.6182C42.5682 12.6297 40.9272 11.0142 38.9056 11.0142C36.8856 11.0142 35.243 12.6297 35.243 14.6182C35.243 15.6162 35.6565 16.5189 36.3236 17.1718H12.2086C12.8757 16.5189 13.2884 15.6162 13.2884 14.6182C13.2884 12.6297 11.6473 11.0142 9.62506 11.0142C7.60504 11.0142 5.96321 12.6297 5.96321 14.6182C5.96321 15.6162 6.37592 16.5189 7.04301 17.1718H1.04297V18.2231H9.62506H38.9056H46.9805V17.1718H41.4884C42.1555 16.5189 42.5682 15.6162 42.5682 14.6182Z" fill="#313D47"/>
</g>
<path fill-rule="evenodd" clip-rule="evenodd" d="M38.9056 13.6382C38.3579 13.6382 37.9106 14.0772 37.9106 14.6174C37.9106 15.1562 38.3571 15.5959 38.9056 15.5959C39.4542 15.5959 39.9014 15.157 39.9014 14.6174C39.9014 14.0764 39.4542 13.6382 38.9056 13.6382Z" fill="#313D47"/>
</svg>
