<svg width="48" height="16" viewBox="0 0 48 16" fill="none" xmlns="http://www.w3.org/2000/svg">
<path fill-rule="evenodd" clip-rule="evenodd" d="M8.95655 9.55078C7.79346 9.55078 6.84924 10.5088 6.84924 11.6873C6.84924 12.8665 7.79278 13.8251 8.95655 13.8251C10.1203 13.8251 11.0645 12.8671 11.0645 11.6873C11.0645 10.5081 10.1196 9.55078 8.95655 9.55078ZM8.95655 10.6575C8.39622 10.6575 7.94028 11.1197 7.94028 11.6878C7.94028 12.2559 8.39555 12.7195 8.95655 12.7195C9.51756 12.7195 9.97418 12.2573 9.97418 11.6878C9.97418 11.119 9.51756 10.6575 8.95655 10.6575ZM37.4621 10.6575C36.9018 10.6575 36.4459 11.1197 36.4459 11.6878C36.4459 12.2559 36.9011 12.7195 37.4621 12.7195C38.0231 12.7195 38.4798 12.2573 38.4798 11.6878C38.4798 11.119 38.0231 10.6575 37.4621 10.6575ZM37.4621 9.55078C36.2997 9.55078 35.3548 10.5088 35.3548 11.6873C35.3548 12.8665 36.299 13.8251 37.4621 13.8251C38.6259 13.8251 39.5701 12.8671 39.5701 11.6873C39.5701 10.5081 38.6252 9.55078 37.4621 9.55078ZM2.18206 13.2723H4.38029C4.21327 12.7752 4.12167 12.2419 4.12167 11.6875C4.12167 8.98293 6.28825 6.78636 8.95656 6.78636C11.6249 6.78636 13.7921 8.98224 13.7921 11.6875C13.7921 12.2419 13.7005 12.7752 13.5335 13.2723H32.8858C32.7188 12.7752 32.6272 12.2419 32.6272 11.6875C32.6272 8.98293 34.7945 6.78636 37.4621 6.78636C40.1304 6.78636 42.2977 8.98224 42.2977 11.6875C42.2977 12.2419 42.2061 12.7752 42.0384 13.2723H46.909L48 12.1661V11.06H43.6359L44.7269 9.95387H46.909L48 7.74228L46.909 6.63614H43.6359L42.5455 5.53H45.8179L41.4545 4.42387L32.7276 3.31773L24 0H15.2731L7.63655 2.21159H14.1821L16.3641 1.10614H24L31.6365 4.42387L28.3635 7.74228L29.4552 5.53L13.0917 3.31773H3.27377L1.09103 4.42387H6.54619L4.36413 5.53H1.09103L0 7.74228V9.95387L2.18206 13.2723ZM37.4621 7.89185C39.5297 7.89185 41.2066 9.59338 41.2066 11.6875C41.2066 12.7384 40.7844 13.6902 40.1028 14.3778H46.909V15.4839H37.4621H8.95656H1.09103V14.3778H6.31654C5.63498 13.6902 5.21271 12.7384 5.21271 11.6875C5.21271 9.59338 6.89101 7.89185 8.95656 7.89185C11.0235 7.89185 12.7011 9.59338 12.7011 11.6875C12.7011 12.7384 12.2795 13.6902 11.5973 14.3778H34.8221C34.1412 13.6902 33.7189 12.7384 33.7189 11.6875C33.7189 9.59338 35.3966 7.89185 37.4621 7.89185Z" fill="#313D47"/>
</svg>
