<svg width="144" height="144" viewBox="0 0 144 144" fill="none" xmlns="http://www.w3.org/2000/svg">
<path fill-rule="evenodd" clip-rule="evenodd" d="M132 72C132 105.137 105.137 132 72 132C38.863 132 12 105.137 12 72C12 38.863 38.863 12 72 12C105.137 12 132 38.863 132 72" fill="#E6F1F5"/>
<mask id="mask0_5818_12174" style="mask-type:alpha" maskUnits="userSpaceOnUse" x="12" y="12" width="120" height="120">
<path fill-rule="evenodd" clip-rule="evenodd" d="M132 72C132 105.137 105.137 132 72 132C38.863 132 12 105.137 12 72C12 38.863 38.863 12 72 12C105.137 12 132 38.863 132 72" fill="#E6F1F5"/>
</mask>
<g mask="url(#mask0_5818_12174)">
<path fill-rule="evenodd" clip-rule="evenodd" d="M43.6108 76.0504C46.344 69.6878 46.2886 62.0073 51.3855 51.716C51.8105 50.8398 52.2785 49.9511 52.7925 49.0351L49.6918 50.0777L42.0824 52.6257C41.4868 52.8256 40.9152 53.0706 40.3667 53.3522V80.9255C41.5768 79.7499 42.7011 78.1734 43.6108 76.0504" fill="#DD876B"/>
<path fill-rule="evenodd" clip-rule="evenodd" d="M40.3708 53.3505V80.9248C37.6627 83.5555 34.5264 84.1449 32.3961 84.1836C31.0813 84.2087 30.0732 83.0352 30.3161 81.7435C30.3182 81.7298 30.3213 81.7162 30.3244 81.7026C30.8028 79.1693 31.6047 74.9098 32.3176 71.0313C33.0053 67.2586 33.6135 63.848 33.7549 62.7363C34.2699 58.6736 36.7907 55.1908 40.3708 53.3505" fill="#F39E7C"/>
<path fill-rule="evenodd" clip-rule="evenodd" d="M40.1864 38.357C38.3063 39.0783 35.529 40.0403 33.0251 40.8851C29.4146 42.1036 28.9048 47.031 32.2075 48.9299C34.1629 50.0531 36.8135 50.7493 40.3643 50.295L40.3675 50.2918V38.2869C40.3088 38.3099 40.246 38.335 40.1864 38.357" fill="#F39E7C"/>
<path fill-rule="evenodd" clip-rule="evenodd" d="M54.078 42.9262C51.732 39.8883 49.3924 37.5455 47.1721 35.5272C47.1197 35.5503 47.0632 35.5754 47.0109 35.5984C44.6775 36.596 42.4467 37.4911 40.3667 38.2866V50.2916C44.8607 49.7158 49.2364 47.7792 55.0829 46.388C55.5006 46.2896 55.9319 46.1964 56.3653 46.1033C55.6074 44.9633 54.8463 43.907 54.0853 42.9262H54.078Z" fill="#DD876B"/>
<path fill-rule="evenodd" clip-rule="evenodd" d="M100.167 95.3225C99.1163 95.087 97.9627 94.8797 96.718 94.7143C82.8392 92.807 58.3583 94.9697 51.5571 95.6407C50.4024 95.7507 49.7607 95.8208 49.7607 95.8208C49.7607 95.8208 50.1543 96.9807 51.0462 98.7372C53.0017 102.586 57.3355 109.311 65.1323 113.044C71.2227 115.963 73.2679 128.003 76.602 134.962C92.1364 133.236 103.643 128.633 114 120.003C111.606 113.403 106.226 106.831 106.491 99.7589C106.568 97.6307 104.108 96.2207 100.167 95.3225Z" fill="#F39E7C"/>
</g>
<path fill-rule="evenodd" clip-rule="evenodd" d="M47.1725 35.5274C50.9714 33.8996 55.0205 32.0143 59.0225 29.884C59.5061 29.6286 59.9887 29.3648 60.4703 29.102C58.8624 28.0897 57.2994 27.0649 55.7962 26.0453C52.93 24.1097 50.2826 22.1888 47.9346 20.4186C47.5818 20.1559 47.2437 19.8931 46.9066 19.6387C45.1228 18.281 42.4325 16.0774 40.3682 14.3669V29.4946C41.6746 30.7539 43.115 31.9755 44.6476 33.3008C45.4662 34.0053 46.311 34.7444 47.1725 35.5274" fill="#DD876B"/>
<path fill-rule="evenodd" clip-rule="evenodd" d="M40.3167 14.3247C38.5842 12.8884 35.9755 13.7133 35.3349 15.8698C34.5131 18.6417 34.4702 22.6123 38.0074 26.9608C38.7276 27.8464 39.5201 28.6776 40.367 29.4952V14.3665C40.3502 14.3519 40.3335 14.3383 40.3167 14.3247" fill="#F39E7C"/>
<path fill-rule="evenodd" clip-rule="evenodd" d="M95.8267 27.3368V7.85544C95.8267 5.1871 93.6639 3.02332 90.9945 3.02332H50.3873C47.7179 3.02332 45.5552 5.1871 45.5552 7.85544V27.3368V27.3378V87.9676C45.5552 89.3201 46.0786 90.548 46.9359 91.4619C47.8697 92.4606 49.195 93.0813 50.6678 93.0813H90.7129C92.2916 93.0813 93.71 92.3653 94.6438 91.2368C95.2959 90.4559 95.7178 89.474 95.8068 88.3989C95.8152 88.3256 95.8193 88.2492 95.8235 88.1728C95.8277 88.1247 95.8277 88.0723 95.8277 88.02V27.3378C95.8267 27.3378 95.8267 27.3368 95.8267 27.3368" fill="white"/>
<path fill-rule="evenodd" clip-rule="evenodd" d="M82.8081 54.1569L90.8387 62.1856L88.1856 64.8387L80.1569 56.8081C77.1695 59.2029 73.4538 60.5054 69.625 60.5C60.31 60.5 52.75 52.94 52.75 43.625C52.75 34.31 60.31 26.75 69.625 26.75C78.94 26.75 86.5 34.31 86.5 43.625C86.5054 47.4538 85.2029 51.1695 82.8081 54.1569ZM79.0469 52.7656C81.4265 50.3185 82.7554 47.0383 82.75 43.625C82.75 36.3725 76.8756 30.5 69.625 30.5C62.3725 30.5 56.5 36.3725 56.5 43.625C56.5 50.8756 62.3725 56.75 69.625 56.75C73.0383 56.7554 76.3185 55.4265 78.7656 53.0469L79.0469 52.7656Z" fill="black"/>
<path d="M74.0024 35.6902C76.954 35.6902 79.346 38.1192 79.346 41.5197C79.346 48.3207 72.0592 52.207 69.6303 53.6644C67.2014 52.207 59.9146 48.3207 59.9146 41.5197C59.9146 38.1192 62.3435 35.6902 65.2582 35.6902C67.0653 35.6902 68.6587 37.3843 69.6303 38.3559C70.6019 37.3843 72.1952 35.6902 74.0024 35.6902Z" fill="#F42434"/>
<path fill-rule="evenodd" clip-rule="evenodd" d="M95.8264 17.4411V48.3422V87.8472C95.8264 89.0908 95.3825 90.2287 94.6456 91.1143C93.7086 92.2438 92.2944 92.9619 90.7116 92.9619H63.51H50.6676C47.8432 92.9619 45.5538 90.6725 45.5538 87.8482V45.8236V16.2122V7.83026C45.5538 5.16191 47.7176 2.99813 50.386 2.99813H90.9942C93.6636 2.99813 95.8264 5.16191 95.8264 7.83026V17.4411ZM91.1912 0H50.1872C46.1559 0 42.8877 3.26818 42.8877 7.29948V88.6605C42.8877 92.6918 46.1559 95.96 50.1872 95.96H91.1912C95.2225 95.96 98.4907 92.6918 98.4907 88.6605V7.29948C98.4907 3.26818 95.2225 0 91.1912 0V0Z" fill="#42144A"/>
<path fill-rule="evenodd" clip-rule="evenodd" d="M96.718 94.7141C95.8198 95.4877 94.6516 95.9577 93.3807 95.9577H53.3335C52.7044 95.9577 52.1098 95.8478 51.5571 95.6405C50.4024 95.7505 49.7607 95.8206 49.7607 95.8206C49.7607 95.8206 50.1543 96.9805 51.0462 98.737C51.6262 98.8815 52.2281 98.9579 52.8572 98.9579H93.857C96.5526 98.9579 98.9027 97.4997 100.167 95.3223C99.1163 95.0868 97.9616 94.8795 96.718 94.7141" fill="#DD876B"/>
<path fill-rule="evenodd" clip-rule="evenodd" d="M34.4518 77.2174L33.9566 80.986C33.8635 81.6748 33.2594 82.1773 32.5675 82.1417L30.3252 82.0339C30.8036 79.5005 31.6055 75.24 32.3173 71.3615C33.8844 72.7957 34.7501 74.9458 34.4518 77.2174" fill="white"/>
<path fill-rule="evenodd" clip-rule="evenodd" d="M104.7 98.7399C104.038 98.2814 103.135 98.4499 102.667 99.1073C86.325 120.598 70.8153 106.621 83.0693 83.4395C87.1645 75.2754 94.3174 68.6521 95.0638 59.1303C96.3242 48.9625 92.7975 42.4157 93.369 35.8877C93.9772 28.8782 97.9363 25.9146 100.893 24.5621C102.751 23.7121 104.497 24.9432 104.639 26.9416C105.517 39.1402 108.206 52.3688 112.427 65.4677C114.427 71.6084 107.551 89.8084 106.492 100.007C106.337 101.489 105.561 99.2612 104.7 98.7399Z" fill="#F39E7C"/>
<path fill-rule="evenodd" clip-rule="evenodd" d="M105.929 37.4538C105.464 34.1793 105.11 30.952 104.883 27.7948C104.835 27.129 104.597 26.5606 104.249 26.1136C103.059 26.3512 101.19 27.0672 101.461 29.2101C101.699 31.0818 102.175 32.9786 102.175 32.9786C102.58 35.1037 104.056 36.7336 105.929 37.4538" fill="white"/>
<path fill-rule="evenodd" clip-rule="evenodd" d="M94.0119 43.4256L93.9753 43.1493C93.9753 43.1493 93.9858 43.256 94.0119 43.4256" fill="#DD876B"/>
<path fill-rule="evenodd" clip-rule="evenodd" d="M94.0107 43.4255L94.0516 43.7354C94.4787 46.1085 94.9665 48.6471 95.1989 51.4756C95.1926 49.5871 95.5548 47.9949 97.9771 47.5793C94.9058 47.8075 94.1625 44.4179 94.0107 43.4255" fill="#DD876B"/>
<path fill-rule="evenodd" clip-rule="evenodd" d="M78.6512 98.8565L79.3829 105.444C79.3829 105.444 76.5774 99.4658 77.0653 97.1481C77.5531 94.8294 78.6512 98.8565 78.6512 98.8565" fill="#DD876B"/>
</svg>
