<svg width="48" height="18" viewBox="0 0 48 18" fill="none" xmlns="http://www.w3.org/2000/svg">
<path fill-rule="evenodd" clip-rule="evenodd" d="M39.9043 13.7048C39.9043 14.2441 39.4564 14.683 38.9089 14.683C38.3598 14.683 37.9143 14.2434 37.9143 13.7048C37.9143 13.1648 38.3606 12.726 38.9089 12.726C39.4564 12.726 39.9043 13.164 39.9043 13.7048ZM10.6348 13.7048C10.6348 14.2441 10.1878 14.683 9.63946 14.683C9.09114 14.683 8.64558 14.2434 8.64558 13.7048C8.64558 13.1648 9.09114 12.726 9.63946 12.726C10.1878 12.726 10.6348 13.164 10.6348 13.7048ZM28.9792 7.47575L30.0728 5.41974L22.9852 5.22772L19.3577 1.87555H17.5417L18.9452 5.11896L10.8374 4.89918V4.89393L9.75726 3.83255L13.8828 1.11196H25.6623L31.4342 4.92018L28.9792 7.47575ZM48 9.13464L46.9086 8.02825H43.663L42.5453 6.92186H45.818L42.7763 5.83723L35.1351 4.8171L25.9232 0H12.5896L4.18927 4.42105L8.7671 4.89886H1.98775L0 6.93012V11.0894L2.7761 12.2603H0.0180023V12.264L3.67621 14.6651H5.05113C4.98662 14.3553 4.95212 14.0335 4.95212 13.705C4.95212 11.1164 7.05088 9.01688 9.64021 9.01688C12.2295 9.01688 14.3283 11.1164 14.3283 13.705C14.3283 14.0335 14.2938 14.3553 14.2293 14.6651H34.3205C34.256 14.3553 34.2215 14.0335 34.2215 13.705C34.2215 11.1164 36.3203 9.01688 38.9096 9.01688C41.4982 9.01688 43.5977 11.1164 43.5977 13.705C43.5977 14.0335 43.5624 14.3553 43.4979 14.6651H46.9086L48 13.5587V12.4381L44.7461 11.3324H48V9.13464ZM38.9089 15.7343C37.7695 15.7343 36.8484 14.8244 36.8484 13.7053C36.8484 12.5861 37.7702 11.677 38.9089 11.677C40.0453 11.677 40.9701 12.5854 40.9701 13.7053C40.9701 14.8244 40.046 15.7343 38.9089 15.7343ZM9.63946 15.7343C8.50157 15.7343 7.57895 14.8244 7.57895 13.7053C7.57895 12.5861 8.50232 11.677 9.63946 11.677C10.7774 11.677 11.7015 12.5854 11.7015 13.7053C11.7015 14.8244 10.7781 15.7343 9.63946 15.7343ZM42.57 13.7048C42.57 11.717 40.9296 10.1021 38.9088 10.1021C36.8888 10.1021 35.2476 11.717 35.2476 13.7048C35.2476 14.7024 35.6609 15.6048 36.327 16.2574H12.222C12.8888 15.6048 13.3014 14.7024 13.3014 13.7048C13.3014 11.717 11.6609 10.1021 9.63941 10.1021C7.62016 10.1021 5.9782 11.717 5.9782 13.7048C5.9782 14.7024 6.3915 15.6048 7.05834 16.2574H1.06059V17.3082H9.63941H38.9088H46.9806V16.2574H41.4899C42.1575 15.6048 42.57 14.7024 42.57 13.7048Z" fill="#313D47"/>
</svg>
