<svg width="48" height="19" viewBox="0 0 48 19" fill="none" xmlns="http://www.w3.org/2000/svg">
<path fill-rule="evenodd" clip-rule="evenodd" d="M31.473 6.94148L20.8553 6.31073L17.6475 1.17773C22.9605 1.19423 25.2968 2.10773 25.2968 2.10773L31.9898 6.11498L31.473 6.94148ZM13.3973 5.86678L8.21853 5.08153L7.06128 3.42853L7.51578 2.54053C7.51578 2.54053 11.2118 1.41028 15.9165 1.20703L17.1368 6.08878L13.3973 5.86678ZM45.9435 9.92239L44.9827 8.96239L46.9463 8.93914L45.552 7.63339L39.7882 6.30064L34.9545 5.49514L26.1225 0.908893C26.1225 0.908893 23.3647 -0.113357 17.7248 0.0103927C12.0855 0.134143 4.40025 1.37389 4.40025 1.37389L4.5555 2.08639L1.344 5.41564L4.617 5.51614L0.57225 7.82989L0 11.4164L3.2445 12.5451H0V14.6669L5.547 16.0619H5.8365C5.7435 15.6869 5.6895 15.2961 5.6895 14.8926C5.6895 12.2069 7.87725 10.0191 10.5623 10.0191C13.254 10.0191 15.4447 12.2009 15.4447 14.8926C15.4447 15.2969 15.3907 15.6869 15.2977 16.0619H34.4857C34.3935 15.6869 34.338 15.2961 34.338 14.8926C34.338 12.2069 36.5228 10.0191 39.2085 10.0191C41.9002 10.0191 44.088 12.2009 44.088 14.8926C44.088 15.2969 44.034 15.6869 43.9417 16.0619H44.4675L47.4735 15.1941L48 12.9321V10.4706L45.9435 9.92239ZM40.4318 14.8938C40.4318 15.5665 39.8858 16.1125 39.2123 16.1125C38.5403 16.1125 37.995 15.5658 37.995 14.8938C37.995 14.2218 38.541 13.6758 39.2123 13.6758C39.885 13.6758 40.4318 14.221 40.4318 14.8938ZM11.7862 14.8938C11.7862 15.5665 11.2395 16.1125 10.566 16.1125C9.89324 16.1125 9.34799 15.5658 9.34799 14.8938C9.34799 14.2218 9.89474 13.6758 10.566 13.6758C11.2387 13.6758 11.7862 14.221 11.7862 14.8938ZM39.2123 17.0731C38.01 17.0731 37.0343 16.0966 37.0343 14.8943C37.0343 13.6921 38.0108 12.7163 39.2123 12.7163C40.4145 12.7163 41.3925 13.6913 41.3925 14.8943C41.3925 16.0973 40.416 17.0731 39.2123 17.0731ZM10.566 17.0731C9.36372 17.0731 8.38797 16.0973 8.38797 14.8943C8.38797 13.6921 9.36522 12.7163 10.566 12.7163C11.769 12.7163 12.7455 13.6913 12.7455 14.8943C12.7455 16.0973 11.7697 17.0731 10.566 17.0731ZM43.311 14.8939C43.311 12.6319 41.4757 10.7952 39.2122 10.7952C36.951 10.7952 35.115 12.6319 35.115 14.8939C35.115 16.1532 35.6835 17.2812 36.579 18.0334H13.2015C14.097 17.2812 14.6655 16.1532 14.6655 14.8939C14.6655 12.6319 12.8287 10.7952 10.566 10.7952C8.30549 10.7952 6.46799 12.6319 6.46799 14.8939C6.46799 16.1532 7.03799 17.2812 7.93274 18.0334H0.926239V18.9934H10.566H39.2122H46.5862V18.0334H41.847C42.7432 17.2812 43.311 16.1532 43.311 14.8939Z" fill="#313D47"/>
</svg>
