<svg width="24" height="24" viewBox="0 0 24 24" fill="none" xmlns="http://www.w3.org/2000/svg">
<path fill-rule="evenodd" clip-rule="evenodd" d="M18.031 16.617L22.314 20.899L20.899 22.314L16.617 18.031C15.0237 19.3082 13.042 20.0029 11 20C6.032 20 2 15.968 2 11C2 6.032 6.032 2 11 2C15.968 2 20 6.032 20 11C20.0029 13.042 19.3082 15.0237 18.031 16.617ZM16.025 15.875C17.2941 14.5699 18.0029 12.8204 18 11C18 7.132 14.867 4 11 4C7.132 4 4 7.132 4 11C4 14.867 7.132 18 11 18C12.8204 18.0029 14.5699 17.2941 15.875 16.025L16.025 15.875Z" fill="#006FA6"/>
<path d="M13.3343 6.76819C14.9085 6.76819 16.1843 8.06362 16.1843 9.87723C16.1843 13.5044 12.298 15.5771 11.0025 16.3544C9.7071 15.5771 5.8208 13.5044 5.8208 9.87723C5.8208 8.06362 7.11623 6.76819 8.67075 6.76819C9.63455 6.76819 10.4844 7.6717 11.0025 8.18988C11.5207 7.6717 12.3705 6.76819 13.3343 6.76819Z" fill="#006FA6"/>
</svg>
