<svg width="327" height="213" viewBox="0 0 327 213" fill="none" xmlns="http://www.w3.org/2000/svg">
<rect width="327" height="213" rx="18.7401" fill="#F5F4F3"/>
<mask id="mask0_5707_9974" style="mask-type:luminance" maskUnits="userSpaceOnUse" x="0" y="0" width="327" height="213">
<rect width="327" height="213" rx="18.7401" fill="white"/>
</mask>
<g mask="url(#mask0_5707_9974)">
<path fill-rule="evenodd" clip-rule="evenodd" d="M1 213H326V0H1V213Z" fill="#F5F4F3"/>
<mask id="mask1_5707_9974" style="mask-type:luminance" maskUnits="userSpaceOnUse" x="1" y="60" width="325" height="129">
<path fill-rule="evenodd" clip-rule="evenodd" d="M1 60H326V189H1V60Z" fill="white"/>
</mask>
<g mask="url(#mask1_5707_9974)">
<path fill-rule="evenodd" clip-rule="evenodd" d="M-27.3609 60C-28.0974 60 -28.7067 60.5706 -28.7067 61.2623V62.9758V88.3232H-40.1564V80.5912V79.422C-40.1564 78.7312 -40.7512 78.1733 -41.4878 78.1733H-43.1179H-55.7573H-57.3721C-58.1095 78.1733 -58.7188 78.7312 -58.7188 79.422V80.5912V94.9784H-73.2564V92.9194V89.0141C-73.2564 88.3232 -73.8521 87.7518 -74.5887 87.7518H-79.5765H-109.63H-114.604C-115.341 87.7518 -115.95 88.3232 -115.95 89.0141V92.9194V101.502H-127.697V97.5157V96.0815C-127.697 95.3907 -128.306 94.8192 -129.043 94.8192H-131.012H-145.126H-147.081C-147.818 94.8192 -148.427 95.3907 -148.427 96.0815V97.5157V104.158H-151.941V189H474.375V105.168H432.773V97.4361V94.9124C432.773 94.2215 432.164 93.6501 431.427 93.6501H428.139H408.387H405.085C404.348 93.6501 403.753 94.2215 403.753 94.9124V97.4361V105.168L394.344 98.8313V83.0353V81.1093C394.344 80.4185 393.749 79.847 393.013 79.847H390.434H373.742H371.178C370.44 79.847 369.831 80.4185 369.831 81.1093V83.0353V104.158H357.943V94.5932V91.1661C357.943 90.4753 357.333 89.9038 356.597 89.9038H352.204H333.386H330.978V82.2251V81.1093C330.978 80.4185 330.368 79.847 329.632 79.847H328.059H315.603H314.03C313.294 79.847 312.684 80.4185 312.684 81.1093V82.2251V94.5399H307.427V91.0197V87.127C307.427 86.437 306.818 85.8655 306.082 85.8655H301.094H270.926H269.055V81.6807V79.7412C269.055 79.0503 268.46 78.4789 267.71 78.4789H265.145H248.453H248.439H247.177V70.056V69.4185C247.177 68.7277 246.568 68.1571 245.832 68.1571H244.854H234.95H233.972C233.235 68.1571 232.625 68.7277 232.625 69.4185V70.056V83.0887V92.2286H213.071V84.5634V83.9259C213.071 83.2351 212.476 82.6772 211.725 82.6772H210.748H203.167V76.3801V74.4406C203.167 73.7497 202.557 73.1918 201.821 73.1918H199.256H182.563H179.985C179.248 73.1918 178.652 73.7497 178.652 74.4406V76.3801V83.368H173.679H172.701C171.965 83.368 171.356 83.9259 171.356 84.6295V85.2543V88.203H155.217V76.3801V74.4406C155.217 73.7497 154.607 73.1918 153.87 73.1918H151.306H134.613H132.035C131.297 73.1918 130.702 73.7497 130.702 74.4406V76.3801V87.5926H121.365V86.0509V84.0987C121.365 83.4078 120.756 82.8364 120.019 82.8364H112.21V63.7327V62.0192C112.21 61.3283 111.602 60.7569 110.865 60.7569H108.555H92.9684H90.6586C89.922 60.7569 89.3127 61.3283 89.3127 62.0192V63.7327V87.9778V88.203H84.1407V70.5343V69.8968C84.1407 69.206 83.5315 68.6481 82.7941 68.6481H81.8174H71.912H70.9345C70.198 68.6481 69.6031 69.206 69.6031 69.8968V70.5343V92.4809V92.5605H63.9491V79.3822V77.6687C63.9491 76.9643 63.3398 76.4064 62.6033 76.4064H60.2935H51.7348V68.0241V66.3106C51.7348 65.6189 51.1256 65.0483 50.389 65.0483H48.0784H32.4919H30.1821C29.4456 65.0483 28.8363 65.6189 28.8363 66.3106V68.0241V90.7411H26.9092V83.9124V83.2749C26.9092 82.5841 26.2999 82.0126 25.5634 82.0126H24.585H14.6805H13.703C12.9664 82.0126 12.3716 82.5841 12.3716 83.2749V83.9124V90.7411H5.32846V83.1682V81.4412C5.32846 80.7503 4.71919 80.1933 3.98264 80.1933H1.67284H-5.80898V62.9758V61.2623C-5.80898 60.5706 -6.41824 60 -7.1548 60H-27.3609Z" fill="#E8E8E8"/>
</g>
<path fill-rule="evenodd" clip-rule="evenodd" d="M163.896 165C84.273 165 1 191.871 1 191.871V212H326V188.5C326 188.5 243.52 165 163.896 165" fill="#D3D5D7"/>
<mask id="mask2_5707_9974" style="mask-type:luminance" maskUnits="userSpaceOnUse" x="57" y="186" width="206" height="9">
<path fill-rule="evenodd" clip-rule="evenodd" d="M57 186C57 186 75.379 193.124 117.318 194.177V194.177C144.18 194.851 192.615 195.847 219.997 193.669V193.669C252.546 191.079 263 186 263 186V186H57Z" fill="white"/>
</mask>
<g mask="url(#mask2_5707_9974)">
<path fill-rule="evenodd" clip-rule="evenodd" d="M55.1016 221.667H264.898V184.046H55.1016V221.667Z" fill="#676B6F"/>
</g>
<path fill-rule="evenodd" clip-rule="evenodd" d="M141.664 186.999H151.651C160.131 186.999 167.005 176.385 167.005 163.289C167.005 150.195 160.131 139.579 151.651 139.579H141.664C132.429 139.579 132.127 186.999 141.664 186.999" fill="#212121"/>
<path fill-rule="evenodd" clip-rule="evenodd" d="M141.664 186.999C133.208 186.999 126.311 176.348 126.311 163.289C126.311 150.231 133.208 139.579 141.664 139.579C150.121 139.579 157.019 150.231 157.019 163.289C157.019 176.348 150.121 186.999 141.664 186.999" fill="#212121"/>
<path fill-rule="evenodd" clip-rule="evenodd" d="M141.664 180.601C135.49 180.601 130.454 172.823 130.454 163.289C130.454 153.754 135.49 145.977 141.664 145.977C147.84 145.977 152.876 153.754 152.876 163.289C152.876 172.823 147.84 180.601 141.664 180.601" fill="#212121"/>
<path fill-rule="evenodd" clip-rule="evenodd" d="M141.664 178.138C136.368 178.138 132.048 171.467 132.048 163.289C132.048 155.11 136.368 148.439 141.664 148.439C146.961 148.439 151.28 155.11 151.28 163.289C151.28 171.467 146.961 178.138 141.664 178.138" fill="#212121"/>
<path fill-rule="evenodd" clip-rule="evenodd" d="M143.524 177.86C147.945 176.522 151.281 170.507 151.281 163.289C151.281 156.071 147.945 150.056 143.524 148.718C139.103 150.056 135.768 156.071 135.768 163.289C135.768 170.507 139.103 176.522 143.524 177.86" fill="#212121"/>
<path fill-rule="evenodd" clip-rule="evenodd" d="M141.033 174.894C139.952 174.012 139.337 172.86 139.607 171.905C139.876 170.951 141.278 169.967 142.212 170.717C143.141 171.482 143.568 173.955 143.299 174.909C143.028 175.863 142.115 175.772 141.033 174.894M136.934 166.117C136.664 164.133 136.812 162.597 137.42 162.36C138.026 162.121 139.354 163.367 139.591 165.076C139.819 166.785 138.946 168.894 138.34 169.132C137.732 169.37 137.204 168.101 136.934 166.117M138.415 155.201C139.161 153.607 139.959 152.845 140.448 153.502C140.936 154.16 141.191 156.697 140.553 158.078C139.907 159.448 138.394 159.605 137.905 158.949C137.417 158.291 137.671 156.799 138.415 155.201M144.392 150.358C145.591 150.36 146.438 150.95 146.438 152.008C146.438 153.065 145.425 154.981 144.392 154.99C143.359 154.981 142.345 153.065 142.345 152.008C142.345 150.95 143.193 150.36 144.392 150.358M143.141 177.964C144.826 177.564 146.365 176.488 147.642 174.921L147.63 174.931C146.551 175.814 145.637 175.91 145.365 174.957C145.094 174.005 145.516 171.531 146.444 170.761C147.376 170.004 148.78 170.979 149.051 171.933C149.123 172.187 149.133 172.457 149.087 172.731C149.648 171.682 150.116 170.511 150.474 169.248C150.437 169.244 150.401 169.236 150.363 169.221C149.756 168.986 148.88 166.884 149.104 165.171C149.337 163.468 150.655 162.217 151.266 162.442C151.222 161.242 151.085 160.079 150.868 158.972L150.841 159.01C150.354 159.671 148.84 159.521 148.191 158.155C147.551 156.779 147.8 154.239 148.287 153.579C148.436 153.377 148.614 153.308 148.812 153.355C147.348 150.848 145.34 149.113 143.073 148.599C138.855 149.65 134.427 154.072 134.427 163.274C134.427 172.474 138.89 176.962 143.141 177.964" fill="#212121"/>
<path fill-rule="evenodd" clip-rule="evenodd" d="M148.513 155.266C149.26 156.859 149.519 158.351 149.031 159.01C148.544 159.671 147.029 159.521 146.381 158.155C145.741 156.779 145.99 154.239 146.478 153.579C146.964 152.919 147.764 153.676 148.513 155.266M149.955 166.198C149.687 168.183 149.162 169.456 148.554 169.221C147.946 168.986 147.07 166.884 147.294 165.171C147.528 163.463 148.853 162.21 149.46 162.444C150.069 162.679 150.219 164.211 149.955 166.198M145.821 174.93C144.741 175.814 143.827 175.91 143.556 174.957C143.284 174.005 143.706 171.531 144.634 170.76C145.566 170.003 146.971 170.98 147.242 171.932C147.513 172.887 146.901 174.042 145.821 174.93M139.223 174.894C138.141 174.012 137.528 172.86 137.797 171.905C138.066 170.951 139.467 169.967 140.402 170.717C141.331 171.482 141.758 173.955 141.488 174.909C141.219 175.863 140.305 175.772 139.223 174.894M135.123 166.117C134.854 164.132 135.002 162.597 135.609 162.36C136.216 162.122 137.544 163.367 137.781 165.076C138.009 166.785 137.137 168.894 136.53 169.132C135.923 169.37 135.394 168.101 135.123 166.117M136.606 155.2C137.352 153.606 138.15 152.844 138.638 153.502C139.127 154.159 139.382 156.698 138.744 158.078C138.098 159.448 136.584 159.606 136.096 158.949C135.607 158.291 135.861 156.798 136.606 155.2M142.582 150.358C143.781 150.36 144.629 150.949 144.629 152.008C144.629 153.065 143.615 154.981 142.582 154.989C141.548 154.981 140.535 153.065 140.535 152.008C140.535 150.949 141.383 150.36 142.582 150.358M142.328 178.103C147.248 177.584 151.151 171.353 151.278 163.673L151.278 163.656L151.281 163.29V163.273C151.276 155.319 147.221 148.831 142.129 148.458C137.497 148.826 133.807 155.318 133.807 163.273C133.807 171.343 137.603 177.908 142.328 178.103" fill="#212121"/>
<path fill-rule="evenodd" clip-rule="evenodd" d="M142.544 159.858C141.256 159.858 140.213 161.469 140.213 163.455C140.213 165.442 141.256 167.053 142.544 167.053C143.831 167.053 144.874 165.442 144.874 163.455C144.874 161.469 143.831 159.858 142.544 159.858" fill="#212121"/>
<path fill-rule="evenodd" clip-rule="evenodd" d="M254.866 186.999H264.853C273.333 186.999 280.207 176.385 280.207 163.289C280.207 150.195 273.333 139.579 264.853 139.579H254.866C245.631 139.579 245.329 186.999 254.866 186.999" fill="#212121"/>
<path fill-rule="evenodd" clip-rule="evenodd" d="M254.865 186.999C246.409 186.999 239.512 176.348 239.512 163.289C239.512 150.231 246.409 139.579 254.865 139.579C263.322 139.579 270.22 150.231 270.22 163.289C270.22 176.348 263.322 186.999 254.865 186.999" fill="#212121"/>
<path fill-rule="evenodd" clip-rule="evenodd" d="M254.865 180.601C248.69 180.601 243.654 172.823 243.654 163.289C243.654 153.754 248.69 145.977 254.865 145.977C261.04 145.977 266.076 153.754 266.076 163.289C266.076 172.823 261.04 180.601 254.865 180.601" fill="#212121"/>
<path fill-rule="evenodd" clip-rule="evenodd" d="M254.865 178.138C249.569 178.138 245.249 171.467 245.249 163.289C245.249 155.11 249.569 148.439 254.865 148.439C260.161 148.439 264.481 155.11 264.481 163.289C264.481 171.467 260.161 178.138 254.865 178.138" fill="#212121"/>
<path fill-rule="evenodd" clip-rule="evenodd" d="M256.725 177.86C261.146 176.522 264.482 170.507 264.482 163.289C264.482 156.071 261.146 150.056 256.725 148.718C252.304 150.056 248.968 156.071 248.968 163.289C248.968 170.507 252.304 176.522 256.725 177.86" fill="#212121"/>
<path fill-rule="evenodd" clip-rule="evenodd" d="M254.234 174.894C253.153 174.012 252.538 172.86 252.808 171.905C253.076 170.951 254.479 169.967 255.412 170.717C256.342 171.482 256.768 173.955 256.499 174.909C256.23 175.863 255.316 175.772 254.234 174.894M250.134 166.117C249.865 164.133 250.012 162.597 250.62 162.36C251.227 162.121 252.555 163.367 252.792 165.076C253.019 166.785 252.148 168.894 251.541 169.132C250.933 169.37 250.405 168.101 250.134 166.117M251.616 155.201C252.362 153.607 253.16 152.845 253.649 153.502C254.137 154.16 254.392 156.697 253.754 158.078C253.108 159.448 251.594 159.605 251.106 158.949C250.618 158.291 250.872 156.799 251.616 155.201M257.593 150.358C258.792 150.36 259.64 150.95 259.64 152.008C259.64 153.065 258.626 154.981 257.593 154.99C256.559 154.981 255.546 153.065 255.546 152.008C255.546 150.95 256.394 150.36 257.593 150.358M256.342 177.964C258.027 177.564 259.566 176.488 260.843 174.921L260.832 174.931C259.752 175.814 258.837 175.91 258.566 174.957C258.295 174.005 258.717 171.531 259.645 170.761C260.577 170.004 261.98 170.979 262.252 171.933C262.324 172.187 262.334 172.457 262.288 172.731C262.849 171.682 263.317 170.511 263.676 169.248C263.638 169.244 263.602 169.236 263.563 169.221C262.957 168.986 262.08 166.884 262.305 165.171C262.538 163.468 263.857 162.217 264.466 162.442C264.423 161.242 264.287 160.079 264.069 158.972L264.041 159.01C263.554 159.671 262.04 159.521 261.392 158.155C260.751 156.779 261.001 154.239 261.488 153.579C261.636 153.377 261.816 153.308 262.013 153.355C260.55 150.848 258.54 149.113 256.275 148.599C252.056 149.65 247.628 154.072 247.628 163.274C247.628 172.474 252.091 176.962 256.342 177.964" fill="#212121"/>
<path fill-rule="evenodd" clip-rule="evenodd" d="M261.715 155.266C262.461 156.859 262.72 158.351 262.232 159.01C261.745 159.671 260.23 159.521 259.582 158.155C258.942 156.779 259.191 154.239 259.679 153.579C260.166 152.919 260.965 153.676 261.715 155.266M263.156 166.198C262.888 168.183 262.363 169.456 261.755 169.221C261.147 168.986 260.271 166.884 260.495 165.171C260.729 163.463 262.054 162.21 262.661 162.444C263.27 162.679 263.42 164.211 263.156 166.198M259.022 174.93C257.942 175.814 257.028 175.91 256.757 174.957C256.486 174.005 256.907 171.531 257.835 170.76C258.767 170.003 260.171 170.98 260.443 171.932C260.714 172.887 260.102 174.042 259.022 174.93M252.424 174.894C251.342 174.012 250.729 172.86 250.998 171.905C251.267 170.951 252.668 169.967 253.603 170.717C254.532 171.482 254.959 173.955 254.689 174.909C254.42 175.863 253.506 175.772 252.424 174.894M248.324 166.117C248.055 164.132 248.202 162.597 248.81 162.36C249.417 162.122 250.745 163.367 250.982 165.076C251.21 166.785 250.338 168.894 249.731 169.132C249.123 169.37 248.595 168.101 248.324 166.117M249.807 155.2C250.553 153.606 251.351 152.844 251.838 153.502C252.328 154.159 252.583 156.698 251.944 158.078C251.299 159.448 249.785 159.606 249.297 158.949C248.808 158.291 249.062 156.798 249.807 155.2M255.783 150.358C256.982 150.36 257.83 150.949 257.83 152.008C257.83 153.065 256.816 154.981 255.783 154.989C254.749 154.981 253.736 153.065 253.736 152.008C253.736 150.949 254.584 150.36 255.783 150.358M255.53 178.103C260.449 177.584 264.352 171.353 264.479 163.673L264.48 163.656L264.482 163.29V163.273C264.477 155.319 260.422 148.831 255.33 148.458C250.698 148.826 247.008 155.318 247.008 163.273C247.008 171.343 250.804 177.908 255.53 178.103" fill="#212121"/>
<path fill-rule="evenodd" clip-rule="evenodd" d="M255.745 159.858C254.458 159.858 253.414 161.469 253.414 163.455C253.414 165.442 254.458 167.053 255.745 167.053C257.032 167.053 258.076 165.442 258.076 163.455C258.076 161.469 257.032 159.858 255.745 159.858" fill="#212121"/>
<path fill-rule="evenodd" clip-rule="evenodd" d="M209.71 171.691L85.3006 171.681L45.1134 165.753L44.9961 128.244H209.71V171.691Z" fill="#212121"/>
<path fill-rule="evenodd" clip-rule="evenodd" d="M176.892 139.58H186.879C195.359 139.58 202.234 150.195 202.234 163.29C202.234 176.384 195.359 187 186.879 187H176.892C167.658 187 167.355 139.58 176.892 139.58" fill="#212121"/>
<path fill-rule="evenodd" clip-rule="evenodd" d="M176.892 187C168.435 187 161.537 176.349 161.537 163.289C161.537 150.231 168.435 139.58 176.892 139.58C185.349 139.58 192.247 150.231 192.247 163.289C192.247 176.349 185.349 187 176.892 187" fill="#373737"/>
<path fill-rule="evenodd" clip-rule="evenodd" d="M176.893 180.602C170.717 180.602 165.682 172.825 165.682 163.29C165.682 153.755 170.717 145.978 176.893 145.978C183.068 145.978 188.104 153.755 188.104 163.29C188.104 172.825 183.068 180.602 176.893 180.602" fill="white"/>
<path fill-rule="evenodd" clip-rule="evenodd" d="M176.893 178.139C171.595 178.139 167.276 171.469 167.276 163.289C167.276 155.111 171.595 148.44 176.893 148.44C182.189 148.44 186.509 155.111 186.509 163.289C186.509 171.469 182.189 178.139 176.893 178.139" fill="#969696"/>
<path fill-rule="evenodd" clip-rule="evenodd" d="M178.752 148.719C183.173 150.057 186.509 156.071 186.509 163.291C186.509 170.509 183.173 176.524 178.752 177.861C174.331 176.524 170.995 170.509 170.995 163.291C170.995 156.071 174.331 150.057 178.752 148.719" fill="#212121"/>
<path fill-rule="evenodd" clip-rule="evenodd" d="M179.329 173.125C175.821 173.125 172.96 168.708 172.96 163.291C172.96 157.873 175.821 153.455 179.329 153.455C182.836 153.455 185.698 157.873 185.698 163.291C185.698 168.708 182.836 173.125 179.329 173.125" fill="#C9C9C9"/>
<path fill-rule="evenodd" clip-rule="evenodd" d="M183.109 151.962C184.153 153.331 185.006 155.036 185.597 156.972L183.479 161.606L186.507 163.01L186.509 163.29C186.509 165.303 186.249 167.221 185.78 168.972L182.275 167.347V175.598C181.19 176.731 179.946 177.532 178.606 177.904C178.525 177.881 178.443 177.858 178.363 177.832V167.347L171.861 170.362H170.043C170.953 167.305 170.91 167.646 170.738 164.584L177.158 161.606L173.291 153.152C174.434 151.267 174.552 152.005 174.663 149.672H176.48L180.318 158.064L183.109 151.962Z" fill="#676767"/>
<path fill-rule="evenodd" clip-rule="evenodd" d="M181.907 150.617C183.04 151.689 184.018 153.113 184.777 154.789L181.661 161.606L186.502 163.852C186.451 165.945 186.121 167.93 185.565 169.716L180.457 167.347V177.085C179.591 177.619 178.663 177.965 177.694 178.088C177.304 178.038 176.92 177.952 176.545 177.832V167.347L170.043 170.362C169.778 169.608 169.556 168.817 169.377 167.992L169.201 167.082C169.063 166.275 168.968 165.44 168.921 164.584L175.34 161.606L171.474 153.152C171.869 152.501 172.3 151.905 172.765 151.372L173.18 150.919C173.647 150.44 174.143 150.021 174.663 149.672L178.501 158.064L181.907 150.617Z" fill="white"/>
<path fill-rule="evenodd" clip-rule="evenodd" d="M178.109 166.31C177.033 166.31 176.154 164.953 176.154 163.289C176.154 161.626 177.033 160.269 178.109 160.269C179.188 160.269 180.066 161.626 180.066 163.289C180.066 164.953 179.188 166.31 178.109 166.31" fill="#AFAFAF"/>
<path fill-rule="evenodd" clip-rule="evenodd" d="M63.6913 186.999H73.678C82.1581 186.999 89.0331 176.385 89.0331 163.289C89.0331 150.195 82.1581 139.579 73.678 139.579H63.6913C54.4566 139.579 54.1541 186.999 63.6913 186.999" fill="#212121"/>
<path fill-rule="evenodd" clip-rule="evenodd" d="M63.6911 186.999C55.2339 186.999 48.3359 176.348 48.3359 163.289C48.3359 150.231 55.2339 139.579 63.6911 139.579C72.1483 139.579 79.0454 150.231 79.0454 163.289C79.0454 176.348 72.1483 186.999 63.6911 186.999" fill="#373737"/>
<path fill-rule="evenodd" clip-rule="evenodd" d="M63.6916 180.601C57.5159 180.601 52.4805 172.824 52.4805 163.289C52.4805 153.754 57.5159 145.977 63.6916 145.977C69.8665 145.977 74.9027 153.754 74.9027 163.289C74.9027 172.824 69.8665 180.601 63.6916 180.601" fill="white"/>
<path fill-rule="evenodd" clip-rule="evenodd" d="M63.6914 178.138C58.3951 178.138 54.0752 171.468 54.0752 163.289C54.0752 155.11 58.3951 148.439 63.6914 148.439C68.9877 148.439 73.3076 155.11 73.3076 163.289C73.3076 171.468 68.9877 178.138 63.6914 178.138" fill="#969696"/>
<path fill-rule="evenodd" clip-rule="evenodd" d="M65.551 177.86C69.972 176.522 73.308 170.508 73.308 163.289C73.308 156.071 69.972 150.056 65.551 148.718C61.1299 150.056 57.7939 156.071 57.7939 163.289C57.7939 170.508 61.1299 176.522 65.551 177.86" fill="#212121"/>
<path fill-rule="evenodd" clip-rule="evenodd" d="M66.1274 173.123C62.6198 173.123 59.7588 168.706 59.7588 163.289C59.7588 157.872 62.6198 153.454 66.1274 153.454C69.635 153.454 72.4968 157.872 72.4968 163.289C72.4968 168.706 69.635 173.123 66.1274 173.123" fill="#C9C9C9"/>
<path fill-rule="evenodd" clip-rule="evenodd" d="M69.9078 174.617C70.953 173.249 71.8053 171.543 72.3958 169.607L70.2775 164.973L73.3058 163.569L73.3075 163.29C73.3075 161.276 73.0475 159.358 72.5785 157.607L69.0734 159.232V150.982C67.9883 149.847 66.7452 149.047 65.4052 148.675C65.3236 148.698 65.2421 148.721 65.1613 148.748V159.232L58.6593 156.217H56.8418C57.7518 159.274 57.7094 158.933 57.5369 161.995L63.9573 164.973L60.0903 173.428C61.2331 175.312 61.3512 174.574 61.4617 176.908H63.2792L67.1165 168.514L69.9078 174.617Z" fill="#676767"/>
<path fill-rule="evenodd" clip-rule="evenodd" d="M68.7059 175.962C69.8386 174.89 70.8166 173.467 71.5762 171.791L68.4595 164.973L73.3011 162.728C73.251 160.634 72.9196 158.649 72.3639 156.864L67.2563 159.232V149.494C66.3896 148.96 65.4617 148.614 64.493 148.491C64.103 148.542 63.7189 148.627 63.3434 148.748V159.232L56.8422 156.217C56.5779 156.971 56.3545 157.762 56.176 158.587L56.0001 159.497C55.8616 160.305 55.7682 161.139 55.7197 161.995L62.1393 164.973L58.274 173.428C58.6682 174.078 59.0999 174.675 59.5638 175.208L59.9793 175.66C60.4458 176.139 60.9421 176.559 61.4621 176.908L65.2994 168.515L68.7059 175.962Z" fill="white"/>
<path fill-rule="evenodd" clip-rule="evenodd" d="M64.9092 166.309C63.8317 166.309 62.9531 164.953 62.9531 163.288C62.9531 161.626 63.8317 160.268 64.9092 160.268C65.9866 160.268 66.8652 161.626 66.8652 163.288C66.8652 164.953 65.9866 166.309 64.9092 166.309" fill="#AFAFAF"/>
<path fill-rule="evenodd" clip-rule="evenodd" d="M86.7988 171.686H153.856V167.225H86.7988V171.686Z" fill="#212121"/>
<path fill-rule="evenodd" clip-rule="evenodd" d="M65.9549 86.9366C90.1284 82.4884 121.963 81 144.866 81C163.693 81 193.198 81.023 202.036 85.4524C217.37 93.3162 227.827 104.191 241.27 113.19C257.953 115.478 276.209 118.676 283.234 121.95C292.474 126.255 292.567 130.284 293.453 140.089C293.593 141.65 296.008 142.121 296.545 143.74C297.312 146.053 296.962 150.164 296.563 151.691C296.345 152.526 295.038 153.373 295.069 154.234C295.35 161.909 293.489 168.063 288.076 171.693L203.789 171.691L199.473 166.373H195.465C195.868 164.414 196.083 162.364 196.083 160.252C196.083 146.42 188.563 134.791 177.233 134.791C165.902 134.791 158.381 146.42 158.381 160.252C158.381 162.104 158.546 163.908 158.857 165.645L155.937 171.687L149.497 166.373H86.0719L82.6033 160.252C82.6033 146.42 75.0842 134.791 63.7524 134.791C54.0351 134.791 47.5628 143.454 45.4411 154.526L45.1131 165.752L37.9874 159.165C36.6687 155.018 35.3499 152.956 34.032 148.809C33.8782 143.884 34.315 139.946 34.5741 138.121C34.6735 137.425 34.9378 136.691 35.2097 136.135C35.9498 134.626 37.3433 132.024 37.3697 131.714C37.6688 128.244 37.3527 125.621 38.1285 122.437C38.5882 120.547 37.8846 117.675 38.1896 116.014C38.4123 114.805 44.2269 112.506 44.8013 111.965L60.2533 90.5572C61.6052 88.6827 63.3021 87.4248 65.9549 86.9366" fill="#326B00"/>
<path fill-rule="evenodd" clip-rule="evenodd" d="M76.7973 129.779C70.7966 125.937 62.5536 126.051 56.4322 128.903C50.7247 131.561 46.5246 138.457 48.2308 139.374C49.6226 140.124 51.5379 136.986 55.0948 135.478C60.5831 133.152 68.6528 132.103 74.4028 134.993C83.8788 139.755 82.0129 158.391 86.5512 158.41C91.0895 158.429 90.1421 138.32 76.7973 129.779" fill="#7AA44D"/>
<path fill-rule="evenodd" clip-rule="evenodd" d="M191.435 129.876C184.45 125.352 175.123 124.511 166.905 129.892C161.514 133.419 158.951 139.574 159.109 141.91C159.218 143.523 164.33 138.056 169.826 135.75C175.549 133.351 182.682 132.565 187.516 134.994C196.993 139.755 197.766 160.473 199.665 158.41C201.565 156.347 202.348 136.947 191.435 129.876" fill="#7AA44D"/>
<path fill-rule="evenodd" clip-rule="evenodd" d="M65.9548 86.9366C90.1283 82.4884 121.963 81 144.866 81C163.693 81 193.198 81.023 202.036 85.4524C217.37 93.3162 227.827 104.191 241.27 113.19C257.953 115.478 276.209 118.676 283.234 121.95C286.3 123.378 288.359 124.777 289.774 126.366C276.914 127.753 256.023 128.277 238.611 127.863C223.667 126.993 211.916 127.855 200.044 126.003C191.049 124.601 183.599 124.196 177.543 123.327H37.9482C38.1003 122.496 38.1547 121.665 38.04 120.833L44.8012 111.965L56.8212 113.171H157.218C159.735 113.171 161.395 110.724 158.631 107.245C153.079 100.26 149.929 95.2648 143.118 87.7003C136.539 80.3944 104.354 83.6732 65.9548 86.9366" fill="#7AA44D"/>
<path fill-rule="evenodd" clip-rule="evenodd" d="M82.8882 163.099C83.7464 153.833 80.1088 140.958 74.5186 133.637C77.2512 135.515 84.6658 137.598 85.7722 139.792C91.8221 151.793 95.5269 158.874 132.071 161.209C133.186 161.28 133.306 163.035 132.048 163.036L82.8882 163.099Z" fill="#7AA44D"/>
<path fill-rule="evenodd" clip-rule="evenodd" d="M38.129 122.437C38.084 121.42 37.8027 118.118 38.1902 116.014C38.4808 114.434 44.0847 112.351 44.8018 111.964C45.6974 111.415 46.3033 117.149 45.9889 118.325C45.513 120.104 38.1401 123.917 38.129 122.437" fill="#D12937"/>
<path fill-rule="evenodd" clip-rule="evenodd" d="M202.992 85.9507C217.797 93.766 228.094 104.364 241.243 113.171H167.475C166.625 113.171 165.843 112.838 165.271 112.116L145.594 87.2902C145.018 86.5639 145.24 85.9507 146.374 85.9507H202.992Z" fill="#212121"/>
<path fill-rule="evenodd" clip-rule="evenodd" d="M199.189 166.373H195.048C195.451 164.414 195.666 162.364 195.666 160.252C195.666 146.42 187.875 135.207 177.232 135.207C166.589 135.207 158.797 146.42 158.797 160.252C158.797 162.34 159.006 164.37 159.401 166.308C160.037 169.438 158.161 171.687 156.613 171.687C155.421 168.163 154.761 164.302 154.761 160.252C154.761 143.7 163.672 130.28 177.232 130.28C190.792 130.28 199.702 143.7 199.702 160.252C199.702 162.35 199.525 164.396 199.189 166.373" fill="#373737"/>
<path fill-rule="evenodd" clip-rule="evenodd" d="M85.6594 166.652L84.2668 171.681C81.2945 171.681 81.297 167.687 81.5647 166.393C81.97 164.428 82.1867 162.371 82.1867 160.252C82.1867 146.42 73.9359 135.207 64.1693 135.207C54.4019 135.207 47.9789 143.454 45.8572 154.526L45.1128 165.752C43.4695 162.115 42.398 157.686 42.7132 153.652C44.1662 140.781 51.5375 130.28 64.1693 130.28C76.8003 130.28 86.2228 143.7 86.2228 160.252C86.2228 162.45 86.0274 164.59 85.6594 166.652" fill="#373737"/>
<path fill-rule="evenodd" clip-rule="evenodd" d="M95.6472 166.372L88.2505 171.686L83.8779 171.68L82.3008 166.372H95.6472ZM157.216 166.372L156.614 171.686L154.929 171.686C154.206 171.686 153.493 171.387 152.887 170.886L147.415 166.372H157.216ZM292.862 166.372C291.967 168.059 290.208 170.515 288.077 171.693H250.893C233.717 171.692 217.694 171.691 200.519 171.691C197.824 171.691 195.049 169.139 195.049 166.372L199.522 163.901L202.312 166.372H230.008L232.413 163.901L235.812 155.279C236.485 153.571 237.638 152.581 239.415 152.581H289.194C291.088 152.581 292.627 153.412 293.005 155.279L294.415 162.255C294.07 163.616 293.595 164.985 292.862 166.372V166.372Z" fill="#373737"/>
<path fill-rule="evenodd" clip-rule="evenodd" d="M65.2146 91.7529C78.4463 88.7311 96.7721 86.2782 109.9 85.7151C118.633 85.3409 134.849 84.3143 139.682 89.505C145.348 95.5904 150.839 104.158 155.73 111.694C156.187 112.397 155.852 113.171 155.141 113.171H53.7995C53.1886 113.171 52.7204 112.462 53.0135 111.943L63.9085 92.7251C64.1788 92.2471 64.488 91.9188 65.2146 91.7529" fill="#212121"/>
<mask id="mask3_5707_9974" style="mask-type:luminance" maskUnits="userSpaceOnUse" x="55" y="87" width="184" height="25">
<path fill-rule="evenodd" clip-rule="evenodd" d="M114.151 87.169L112.04 112H154.805C150.081 104.786 145.084 96.9392 139.204 90.6921V90.6921C136.349 87.6573 128.343 87 121.163 87V87C118.637 87 116.212 87.0816 114.151 87.169V87.169ZM87.2682 89.5349C86.5944 89.6265 85.9213 89.7206 85.2475 89.8164V89.8164L77.6423 112H104.572L107.766 87.4699C100.924 87.8582 94.0357 88.6104 87.2682 89.5349V89.5349ZM147.544 87.5724L166.652 111.424C166.967 111.818 167.375 112 167.877 112V112H239C234.902 109.152 230.966 106.093 227.033 103.022V103.022C219.833 97.3973 212.8 91.9713 204.784 87.5724V87.5724H147.544ZM66.0169 93.2748C65.7232 93.3412 65.6638 93.3916 65.5196 93.6412V93.6412L55 112H72.8922L80.5991 90.5131C75.7081 91.2863 70.8239 92.1889 66.0169 93.2748V93.2748Z" fill="white"/>
</mask>
<g mask="url(#mask3_5707_9974)">
<path fill-rule="evenodd" clip-rule="evenodd" d="M114.151 87.169L112.04 112H154.805C150.081 104.786 145.084 96.9392 139.204 90.6921V90.6921C136.349 87.6573 128.343 87 121.163 87V87C118.637 87 116.212 87.0816 114.151 87.169V87.169ZM87.2682 89.5349C86.5944 89.6265 85.9213 89.7206 85.2475 89.8164V89.8164L77.6423 112H104.572L107.766 87.4699C100.924 87.8582 94.0357 88.6104 87.2682 89.5349V89.5349ZM147.544 87.5724L166.652 111.424C166.967 111.818 167.375 112 167.877 112V112H239C234.902 109.152 230.966 106.093 227.033 103.022V103.022C219.833 97.3973 212.8 91.9713 204.784 87.5724V87.5724H147.544ZM66.0169 93.2748C65.7232 93.3412 65.6638 93.3916 65.5196 93.6412V93.6412L55 112H72.8922L80.5991 90.5131C75.7081 91.2863 70.8239 92.1889 66.0169 93.2748V93.2748Z" fill="url(#paint0_linear_5707_9974)"/>
</g>
<path fill-rule="evenodd" clip-rule="evenodd" d="M76.4373 102.037C70.7175 102.361 65.1709 102.849 59.829 103.489L55 112.04H72.9006L76.4373 102.037ZM105.91 101.811C97.3932 101.482 89.0971 101.491 81.1085 101.814L77.6533 112.04H104.598L105.91 101.811ZM239.096 112.04H167.935C167.433 112.04 167.025 111.855 166.71 111.456L156.085 98C163.667 98.0026 171.466 98.2765 179.422 98.8481C198.578 100.224 216.609 103.163 232.63 107.247C234.755 108.886 236.902 110.494 239.096 112.04V112.04ZM154.856 112.04H112.069L112.897 102.154C114.232 102.234 115.57 102.32 116.915 102.416C128.939 103.28 140.519 104.76 151.438 106.75C152.598 108.529 153.735 110.303 154.856 112.04V112.04Z" fill="#212121"/>
<path fill-rule="evenodd" clip-rule="evenodd" d="M284.504 128.69H241.515C240.725 128.69 240.209 129.098 239.907 129.914L238.415 133.948H287.518L286.082 129.914C285.84 129.234 285.284 128.69 284.504 128.69V128.69ZM288.265 136.045H237.644L237.214 137.3C236.931 138.125 237.77 138.933 238.674 139.278L242.563 140.767C244.272 141.421 246.069 142.157 248.17 142.157H284.452C285.597 142.157 286.563 141.547 287.239 140.767L288.531 139.278C289.018 138.716 288.945 137.959 288.711 137.3L288.265 136.045Z" fill="#373737"/>
<path fill-rule="evenodd" clip-rule="evenodd" d="M284.628 133.948L283.193 129.914C282.95 129.234 282.395 128.69 281.614 128.69H241.515C240.725 128.69 240.209 129.097 239.907 129.914L238.415 133.948H284.628ZM285.374 136.045H237.645L237.214 137.3C236.931 138.125 237.769 138.933 238.674 139.278L242.562 140.767C244.271 141.421 246.069 142.157 248.17 142.157H281.562C282.706 142.157 283.673 141.547 284.349 140.767L285.639 139.278C286.128 138.716 286.055 137.959 285.82 137.3L285.374 136.045Z" fill="#212121"/>
<path fill-rule="evenodd" clip-rule="evenodd" d="M272.503 166.663C273.321 166.663 273.628 167.482 273.081 168.046L269.25 172H252.66L256.612 167.922C257.23 167.285 257.929 166.663 259.213 166.663H272.503ZM286.241 166.663H278.568C277.404 166.663 276.371 167.089 275.563 167.922L271.61 172H288.454L287.79 168.075C287.656 167.282 287.158 166.663 286.241 166.663V166.663ZM253.08 166.663H239.825C238.797 166.663 237.934 167.242 237.274 167.922L233.322 172H249.88L253.67 168.089C254.26 167.48 253.952 166.663 253.08 166.663V166.663Z" fill="#232323"/>
<path fill-rule="evenodd" clip-rule="evenodd" d="M289.482 162.733H241.512C240.679 162.733 239.799 161.774 240.078 160.985L240.831 158.86C241.109 158.072 241.931 157.34 242.76 157.34H289.482C290.314 157.34 290.996 158.024 290.996 158.86V161.211C290.996 162.046 290.314 162.733 289.482 162.733" fill="#272727"/>
<path fill-rule="evenodd" clip-rule="evenodd" d="M286.593 162.733H241.512C240.68 162.733 239.8 161.774 240.079 160.985L240.831 158.86C241.11 158.072 241.931 157.34 242.76 157.34H286.593C287.424 157.34 288.107 158.024 288.107 158.86V161.211C288.107 162.046 287.425 162.733 286.593 162.733" fill="#212121"/>
<path fill-rule="evenodd" clip-rule="evenodd" d="M225.73 152.828H215.356C214.017 152.828 212.677 153.929 212.378 155.275L211.83 157.741C211.532 159.087 212.384 160.189 213.724 160.189H224.097C225.437 160.189 226.777 159.087 227.076 157.741L227.623 155.275C227.922 153.929 227.07 152.828 225.73 152.828" fill="#373737"/>
<path fill-rule="evenodd" clip-rule="evenodd" d="M223.046 152.828H215.357C214.017 152.828 212.677 153.929 212.378 155.275L211.83 157.741C211.531 159.087 212.383 160.189 213.724 160.189H221.414C222.754 160.189 224.093 159.087 224.392 157.741L224.939 155.275C225.238 153.929 224.386 152.828 223.046 152.828" fill="#212121"/>
<path fill-rule="evenodd" clip-rule="evenodd" d="M219.627 154.131H216.201C215.335 154.131 214.47 154.842 214.276 155.712L213.924 157.304C213.73 158.174 214.28 158.885 215.146 158.885H218.573C219.439 158.885 220.304 158.174 220.497 157.304L220.85 155.712C221.044 154.842 220.493 154.131 219.627 154.131" fill="#E3E3E3"/>
<path fill-rule="evenodd" clip-rule="evenodd" d="M107.96 120.348H114.061C114.763 120.348 115.337 120.925 115.337 121.63C115.337 122.334 114.763 122.911 114.061 122.911H107.96C107.259 122.911 106.686 122.334 106.686 121.63C106.686 120.925 107.259 120.348 107.96 120.348" fill="#212121"/>
<path fill-rule="evenodd" clip-rule="evenodd" d="M75.0371 120.348H81.1382C81.8395 120.348 82.4127 120.925 82.4127 121.63C82.4127 122.334 81.8395 122.911 81.1382 122.911H75.0371C74.3349 122.911 73.7617 122.334 73.7617 121.63C73.7617 120.925 74.3349 120.348 75.0371 120.348" fill="#212121"/>
<path fill-rule="evenodd" clip-rule="evenodd" d="M209.344 125.872L233.769 128.358C234.773 128.459 235.395 129.463 235.063 130.404L233.021 136.186C232.727 137.017 231.959 137.493 230.974 137.425L215.963 136.393C215.138 136.337 214.416 135.913 213.906 135.262L208.228 128.003C207.529 127.111 208.01 125.737 209.344 125.872" fill="#E3E3E3"/>
<path fill-rule="evenodd" clip-rule="evenodd" d="M290.771 127.283C292.707 128.288 293.971 135.443 293.592 137.382L292.57 137.454C291.519 137.527 290.701 137.047 290.386 136.214L288.301 130.679C287.947 129.738 288.258 129.145 289.02 128.542L290.771 127.283Z" fill="#E3E3E3"/>
<path fill-rule="evenodd" clip-rule="evenodd" d="M138.061 102.303H145.752C150.299 102.303 150.3 111.622 145.752 111.622H138.061C136.262 111.622 134.79 110.144 134.79 108.337V105.589C134.79 103.781 136.262 102.303 138.061 102.303" fill="#7AA44D"/>
<path fill-rule="evenodd" clip-rule="evenodd" d="M147.176 107.11L151.738 108.397C152.795 108.695 153.322 109.57 153.16 110.83C153.01 111.991 151.773 112.783 149.671 112.253L146.672 111.497C146.023 111.332 145.286 110.924 145.455 110.273L145.959 108.334C146.127 107.682 146.533 106.929 147.176 107.11" fill="#7AA44D"/>
<path fill-rule="evenodd" clip-rule="evenodd" d="M136.285 104.087V104.087C137.106 104.087 137.781 104.765 137.781 105.589V109.115C137.781 109.794 138.187 110.158 138.834 110.158H145.96C147.328 110.158 147.33 111.623 145.96 111.623H138.061C136.079 111.623 134.79 110.114 134.79 108.237V105.589C134.79 104.762 135.463 104.087 136.285 104.087" fill="#476718"/>
<path fill-rule="evenodd" clip-rule="evenodd" d="M295.88 145.148C296.147 144.639 295.953 144.007 295.446 143.739C294.939 143.471 294.31 143.667 294.044 144.176C293.772 144.691 293.323 145.057 292.712 145.297C291.989 145.583 291.051 145.709 289.922 145.711V145.707C269.504 145.707 233.718 145.645 215.428 141.751C209.191 140.423 216.335 147.142 218.754 147.142C239.91 148.442 268.665 147.797 289.922 147.797V147.794C291.313 147.791 292.502 147.622 293.468 147.241C294.548 146.814 295.36 146.134 295.88 145.148" fill="#7AA44D"/>
<path fill-rule="evenodd" clip-rule="evenodd" d="M91.5947 169.131H152.325V166.661H91.5947V169.131Z" fill="#373737"/>
<path fill-rule="evenodd" clip-rule="evenodd" d="M264.683 133.664H270.784C271.485 133.664 272.058 134.24 272.058 134.945V134.946C272.058 135.651 271.485 136.226 270.784 136.226H264.683C263.981 136.226 263.407 135.651 263.407 134.946V134.945C263.407 134.24 263.981 133.664 264.683 133.664" fill="#AFAFAF"/>
<path fill-rule="evenodd" clip-rule="evenodd" d="M241.418 127.435C238.609 124.611 231.053 122.138 220.506 120.062C209.448 117.887 196.691 116.647 180.99 115.347C178.185 115.115 171.393 115.842 176.828 116.27C193.385 117.592 208.639 119.429 220.187 121.702C229.585 123.552 236.717 125.689 239.466 128.042C240.269 128.731 240.672 128.801 241.4 128.51C242.13 128.219 241.551 127.568 241.418 127.435" fill="#476718"/>
<mask id="mask4_5707_9974" style="mask-type:luminance" maskUnits="userSpaceOnUse" x="94" y="16" width="140" height="49">
<path fill-rule="evenodd" clip-rule="evenodd" d="M98.3805 16C95.9629 16.0465 94 18.3055 94 21.0597V21.0597V47.2113C94 49.995 96.0046 52.2727 98.4571 52.2727V52.2727H156.4L162.87 65L169.339 52.2727H229.542C231.993 52.2727 234 49.995 234 47.2113V47.2113V21.0597C234 18.3055 232.034 16.0465 229.619 16V16H98.3805Z" fill="white"/>
</mask>
<g mask="url(#mask4_5707_9974)">
<path fill-rule="evenodd" clip-rule="evenodd" d="M91.5859 65.8447H236.029V15.155H91.5859V65.8447Z" fill="#383F48"/>
</g>
<mask id="mask5_5707_9974" style="mask-type:luminance" maskUnits="userSpaceOnUse" x="104" y="24" width="20" height="18">
<path fill-rule="evenodd" clip-rule="evenodd" d="M113.155 24.578L111.403 29.6565C111.284 30.0004 110.943 30.2345 110.558 30.2345V30.2345H104.89C104.029 30.2345 103.672 31.2713 104.368 31.7479V31.7479L108.953 34.8871C109.265 35.0991 109.394 35.4777 109.276 35.8225V35.8225L107.524 40.9001C107.258 41.6716 108.195 42.313 108.892 41.8364V41.8364L113.477 38.698C113.789 38.4851 114.21 38.4851 114.522 38.698V38.698L119.108 41.8364C119.805 42.313 120.742 41.6716 120.475 40.9001V40.9001L118.724 35.8225C118.604 35.4777 118.734 35.0991 119.047 34.8871V34.8871L123.632 31.7479C124.329 31.2713 123.97 30.2345 123.109 30.2345V30.2345H117.442C117.057 30.2345 116.715 30.0004 116.596 29.6565V29.6565L114.845 24.578C114.712 24.1918 114.355 24 114 24V24C113.643 24 113.287 24.1918 113.155 24.578V24.578Z" fill="white"/>
</mask>
<g mask="url(#mask5_5707_9974)">
<path fill-rule="evenodd" clip-rule="evenodd" d="M102.764 43.212H125.239V22.9065H102.764V43.212Z" fill="#EDCB53"/>
</g>
<mask id="mask6_5707_9974" style="mask-type:luminance" maskUnits="userSpaceOnUse" x="130" y="24" width="20" height="18">
<path fill-rule="evenodd" clip-rule="evenodd" d="M139.155 24.578L137.403 29.6565C137.285 30.0004 136.943 30.2345 136.557 30.2345V30.2345H130.89C130.029 30.2345 129.672 31.2713 130.368 31.7479V31.7479L134.953 34.8871C135.264 35.0991 135.395 35.4777 135.277 35.8225V35.8225L133.524 40.9001C133.259 41.6716 134.197 42.313 134.892 41.8364V41.8364L139.477 38.698C139.789 38.4851 140.21 38.4851 140.522 38.698V38.698L145.108 41.8364C145.804 42.313 146.742 41.6716 146.475 40.9001V40.9001L144.724 35.8225C144.605 35.4777 144.734 35.0991 145.046 34.8871V34.8871L149.632 31.7479C150.329 31.2713 149.97 30.2345 149.109 30.2345V30.2345H143.441C143.057 30.2345 142.716 30.0004 142.596 29.6565V29.6565L140.845 24.578C140.711 24.1918 140.356 24 140 24V24C139.643 24 139.287 24.1918 139.155 24.578V24.578Z" fill="white"/>
</mask>
<g mask="url(#mask6_5707_9974)">
<path fill-rule="evenodd" clip-rule="evenodd" d="M128.764 43.212H151.238V22.9065H128.764V43.212Z" fill="#EDCB53"/>
</g>
<mask id="mask7_5707_9974" style="mask-type:luminance" maskUnits="userSpaceOnUse" x="154" y="24" width="20" height="18">
<path fill-rule="evenodd" clip-rule="evenodd" d="M163.155 24.578L161.403 29.6565C161.284 30.0004 160.943 30.2345 160.557 30.2345V30.2345H154.89C154.029 30.2345 153.672 31.2713 154.368 31.7479V31.7479L158.953 34.8871C159.264 35.0991 159.393 35.4777 159.276 35.8225V35.8225L157.524 40.9001C157.258 41.6716 158.196 42.313 158.892 41.8364V41.8364L163.477 38.698C163.789 38.4851 164.209 38.4851 164.522 38.698V38.698L169.108 41.8364C169.804 42.313 170.742 41.6716 170.475 40.9001V40.9001L168.724 35.8225C168.604 35.4777 168.734 35.0991 169.046 34.8871V34.8871L173.632 31.7479C174.329 31.2713 173.97 30.2345 173.109 30.2345V30.2345H167.441C167.057 30.2345 166.715 30.0004 166.596 29.6565V29.6565L164.845 24.578C164.711 24.1918 164.356 24 164 24V24C163.643 24 163.287 24.1918 163.155 24.578V24.578Z" fill="white"/>
</mask>
<g mask="url(#mask7_5707_9974)">
<path fill-rule="evenodd" clip-rule="evenodd" d="M152.764 43.212H175.238V22.9065H152.764V43.212Z" fill="#EDCB53"/>
</g>
<mask id="mask8_5707_9974" style="mask-type:luminance" maskUnits="userSpaceOnUse" x="178" y="24" width="20" height="18">
<path fill-rule="evenodd" clip-rule="evenodd" d="M187.154 24.578L185.403 29.6565C185.284 30.0004 184.943 30.2345 184.558 30.2345V30.2345H178.889C178.029 30.2345 177.672 31.2713 178.368 31.7479V31.7479L182.952 34.8871C183.264 35.0991 183.394 35.4777 183.276 35.8225V35.8225L181.523 40.9001C181.259 41.6716 182.196 42.313 182.891 41.8364V41.8364L187.477 38.698C187.79 38.4851 188.21 38.4851 188.521 38.698V38.698L193.108 41.8364C193.805 42.313 194.742 41.6716 194.476 40.9001V40.9001L192.723 35.8225C192.605 35.4777 192.734 35.0991 193.046 34.8871V34.8871L197.631 31.7479C198.329 31.2713 197.97 30.2345 197.109 30.2345V30.2345H191.44C191.056 30.2345 190.715 30.0004 190.596 29.6565V29.6565L188.844 24.578C188.712 24.1918 188.356 24 187.999 24V24C187.643 24 187.286 24.1918 187.154 24.578V24.578Z" fill="white"/>
</mask>
<g mask="url(#mask8_5707_9974)">
<path fill-rule="evenodd" clip-rule="evenodd" d="M176.764 43.212H199.239V22.9065H176.764V43.212Z" fill="#EDCB53"/>
</g>
<mask id="mask9_5707_9974" style="mask-type:luminance" maskUnits="userSpaceOnUse" x="204" y="24" width="20" height="18">
<path fill-rule="evenodd" clip-rule="evenodd" d="M213.155 24.578L211.403 29.6565C211.284 30.0004 210.943 30.2345 210.558 30.2345V30.2345H204.89C204.029 30.2345 203.672 31.2713 204.368 31.7479V31.7479L208.953 34.8871C209.264 35.0991 209.394 35.4777 209.276 35.8225V35.8225L207.524 40.9001C207.258 41.6716 208.196 42.313 208.892 41.8364V41.8364L213.477 38.698C213.789 38.4851 214.21 38.4851 214.522 38.698V38.698L219.108 41.8364C219.805 42.313 220.742 41.6716 220.475 40.9001V40.9001L218.724 35.8225C218.604 35.4777 218.734 35.0991 219.047 34.8871V34.8871L223.632 31.7479C224.329 31.2713 223.97 30.2345 223.109 30.2345V30.2345H217.442C217.057 30.2345 216.715 30.0004 216.596 29.6565V29.6565L214.845 24.578C214.712 24.1918 214.356 24 214 24V24C213.643 24 213.287 24.1918 213.155 24.578V24.578Z" fill="white"/>
</mask>
<g mask="url(#mask9_5707_9974)">
<path fill-rule="evenodd" clip-rule="evenodd" d="M202.763 43.212H225.238V22.9065H202.763V43.212Z" fill="#EDCB53"/>
</g>
</g>
<defs>
<linearGradient id="paint0_linear_5707_9974" x1="24.2082" y1="63.3445" x2="24.2082" y2="96.712" gradientUnits="userSpaceOnUse">
<stop stop-color="#242631"/>
<stop offset="1" stop-color="#2A2D31"/>
</linearGradient>
</defs>
</svg>
