<svg width="24" height="24" viewBox="0 0 24 24" fill="none" xmlns="http://www.w3.org/2000/svg">
<path fill-rule="evenodd" clip-rule="evenodd" d="M12 2C17.52 2 22 6.48 22 12C22 17.52 17.52 22 12 22C6.48 22 2 17.52 2 12C2 6.48 6.48 2 12 2ZM6.023 15.416C7.491 17.606 9.695 19 12.16 19C14.624 19 16.829 17.607 18.296 15.416C16.6317 13.8606 14.4379 12.9968 12.16 13C9.88171 12.9966 7.68751 13.8604 6.023 15.416ZM15 8C15 9.65685 13.6569 11 12 11C10.3431 11 9 9.65685 9 8C9 6.34315 10.3431 5 12 5C13.6569 5 15 6.34315 15 8Z" fill="#242C33"/>
</svg>
