<svg width="48" height="16" viewBox="0 0 48 16" fill="none" xmlns="http://www.w3.org/2000/svg">
<path fill-rule="evenodd" clip-rule="evenodd" d="M7.58405 11.6348C7.58405 12.7539 8.50662 13.6638 9.64452 13.6638C10.7824 13.6638 11.7057 12.7539 11.7057 11.6348C11.7057 10.515 10.7818 9.60718 9.64452 9.60718C8.50727 9.60718 7.58405 10.5163 7.58405 11.6348ZM36.8495 11.6348C36.8495 12.7539 37.7721 13.6638 38.91 13.6638C40.0472 13.6638 40.9711 12.7539 40.9711 11.6348C40.9711 10.515 40.0466 9.60718 38.91 9.60718C37.7727 9.60718 36.8495 10.5163 36.8495 11.6348ZM8.65082 11.6353C8.65082 12.1751 9.09597 12.6145 9.64451 12.6145C10.193 12.6145 10.6395 12.1758 10.6395 11.6353C10.6395 11.0955 10.193 10.6575 9.64451 10.6575C9.09597 10.6575 8.65082 11.0962 8.65082 11.6353ZM37.9156 11.6353C37.9156 12.1751 38.3614 12.6145 38.9099 12.6145C39.4584 12.6145 39.9049 12.1758 39.9049 11.6353C39.9049 11.0955 39.4584 10.6575 38.9099 10.6575C38.362 10.6575 37.9156 11.0962 37.9156 11.6353ZM1.06678 11.5457L0 9.44678H2.13357L1.06678 8.39699V6.29807H4.26648L5.33326 5.24763H2.13357L3.20035 3.14871H8.53361L7.46683 2.09892H11.7333L12.8001 1.04979H13.8669V2.09892H14.933L19.2001 3.14871H20.2663V2.09892H21.333L22.3998 3.14871H29.866L26.6663 0H27.7331L32.0002 2.09892L30.9334 3.14871H34.1331L43.7329 5.24763L46.9326 7.34785H44.7996L45.8658 8.39699H48V9.44678L46.9326 10.4966H44.7996L46.9326 11.5457L45.8658 12.5955H43.536C43.6025 12.2857 43.638 11.965 43.638 11.6351C43.638 9.06769 41.519 6.98367 38.91 6.98367C36.3009 6.98367 34.1825 9.06834 34.1825 11.6351C34.1825 11.965 34.2181 12.2857 34.2839 12.5955H14.2705C14.337 12.2857 14.3726 11.965 14.3726 11.6351C14.3726 9.06769 12.2535 6.98367 9.64452 6.98367C7.03616 6.98367 4.91708 9.06834 4.91708 11.6351C4.91708 11.965 4.95264 12.2857 5.01849 12.5955H4.26648L1.06678 11.5457ZM42.5706 11.6349C42.5706 12.6328 42.1584 13.5355 41.4919 14.1881H45.8658V15.2378H38.9099H9.6445H1.06677V14.1881H7.06315C6.39674 13.5355 5.98385 12.6328 5.98385 11.6349C5.98385 9.64741 7.62486 8.0332 9.6445 8.0332C11.6655 8.0332 13.3058 9.64741 13.3058 11.6349C13.3058 12.6328 12.8929 13.5355 12.2265 14.1881H36.3286C35.6622 13.5355 35.2493 12.6328 35.2493 11.6349C35.2493 9.64741 36.8903 8.0332 38.9099 8.0332C40.9309 8.0332 42.5706 9.64741 42.5706 11.6349Z" fill="#313D47"/>
</svg>
