<svg width="84" height="28" viewBox="0 0 84 28" fill="none" xmlns="http://www.w3.org/2000/svg">
<path fill-rule="evenodd" clip-rule="evenodd" d="M46.617 27.2077C46.9228 26.8885 47.0843 26.4578 47.0638 26.0162V25.3252C47.0906 24.6468 46.6947 24.0226 46.0696 23.7577C45.4445 23.4928 44.7206 23.6425 44.2519 24.1337C43.9449 24.4522 43.7832 24.8834 43.8051 25.3252V26.0162C43.7783 26.6947 44.1742 27.3188 44.7993 27.5837C45.4244 27.8486 46.1482 27.6989 46.617 27.2077ZM34.3623 26.0162C34.3828 26.4578 34.2213 26.8885 33.9155 27.2077C33.6002 27.5209 33.1679 27.6874 32.724 27.6664C32.2851 27.6887 31.8573 27.5249 31.5454 27.2153C31.2336 26.9057 31.0667 26.4791 31.0857 26.0401V25.3252C31.0632 24.8821 31.2274 24.45 31.5385 24.1337C32.2045 23.4952 33.2554 23.4952 33.9214 24.1337C34.2325 24.45 34.3967 24.8821 34.3742 25.3252L34.3623 26.0162ZM15.6144 23.7465L14.3574 27.589H15.257L15.4893 26.8443H16.6808L16.9013 27.589H17.7949L16.5557 23.7465H15.6144ZM16.0852 24.7831L16.4843 26.1533H15.6682L16.0852 24.7831ZM22.4059 26.2665V23.7465H23.2995V26.2665C23.3191 26.6532 23.1585 27.0271 22.8647 27.2792C22.5393 27.5336 22.1333 27.6626 21.7208 27.6426C21.3045 27.6634 20.8946 27.5345 20.5651 27.2792C20.2689 27.0288 20.1078 26.6537 20.1302 26.2665V23.7465H21.0238V26.2665C21.0086 26.4566 21.0734 26.6444 21.2025 26.7848C21.3472 26.9059 21.5324 26.9677 21.7208 26.9575C21.905 26.9706 22.0869 26.9107 22.2272 26.7907C22.3573 26.6485 22.4221 26.4585 22.4059 26.2665ZM25.8255 23.7465V24.4256H26.8085V27.5831H27.7021V24.4256H28.7149V23.7465H25.8255ZM33.2844 24.6401C33.4171 24.841 33.4838 25.0785 33.475 25.3192L33.4631 26.0162C33.4719 26.257 33.4052 26.4944 33.2724 26.6954C33.1463 26.8671 32.9433 26.9653 32.7303 26.9575C32.5118 26.9682 32.3021 26.87 32.1703 26.6954C32.0417 26.493 31.9793 26.2557 31.9916 26.0162V25.3192C31.982 25.0784 32.0487 24.8407 32.1822 24.6401C32.3108 24.4647 32.5192 24.3661 32.7363 24.3779C32.9509 24.3702 33.1557 24.4682 33.2844 24.6401ZM39.0689 26.4333L39.9447 23.7465H41.1064V27.589H40.177V26.6358L40.2604 24.8843L39.337 27.595H38.7413L37.8298 24.9082L37.9132 26.6358V27.589H37.0196V23.7465H38.211L39.0689 26.4333ZM46.1521 25.3192C46.1616 25.0775 46.0927 24.8393 45.9555 24.6401C45.8301 24.4675 45.6266 24.3691 45.4134 24.3779C45.1963 24.3661 44.9879 24.4647 44.8593 24.6401C44.7273 24.8409 44.6645 25.0794 44.6806 25.3192V26.0162C44.6718 26.257 44.7385 26.4944 44.8713 26.6954C45.0012 26.8691 45.2086 26.9672 45.4253 26.9575C45.6403 26.9673 45.846 26.8689 45.9734 26.6954C46.1062 26.4944 46.1728 26.257 46.164 26.0162L46.1521 25.3192ZM49.447 23.7465V24.4256H50.4479V27.5831H51.3415V24.4256H52.3543V23.7465H49.447ZM55.7973 27.589H54.9096L54.8977 23.7465H55.7973V27.589ZM60.8376 23.7465L60.075 26.5584V26.5465L59.3184 23.7465H58.3116L59.5746 27.589H60.5397L61.7848 23.7465H60.8376ZM64.2627 27.589V23.7465H66.9316V24.4256H65.1444V25.2597H66.6516V25.9448H65.1444V26.9039H66.9316V27.589H64.2627Z" fill="white"/>
<path fill-rule="evenodd" clip-rule="evenodd" d="M8.93617 2.11487V4.42636H2.31745V8.59657H7.28596V10.8902H2.31745V14.8936H9.0017V17.217H0V2.11487H8.93617ZM14.6316 17.2766C16.2054 17.3281 17.712 16.6377 18.7005 15.4119L17.3243 14.0596C16.6801 14.821 15.7418 15.2717 14.7447 15.2987C12.9873 15.2987 11.766 13.8689 11.766 12.0757C11.766 10.2825 12.9575 8.89446 14.6316 8.89446C15.6325 8.89924 16.5788 9.35164 17.2111 10.1276L18.623 8.60254C17.6308 7.45271 16.1667 6.82053 14.6494 6.8868C13.2672 6.88021 11.9405 7.43049 10.9687 8.41349C9.99691 9.39649 9.46188 10.7294 9.48432 12.1115C9.46166 13.4851 9.99608 14.8093 10.9658 15.7824C11.9355 16.7555 13.2579 17.2945 14.6316 17.2766ZM24.6224 8.94806C23.2999 8.94806 22.3764 9.87146 22.3764 11.4144L22.3705 17.223H20.0947V2.11487H22.3764V8.6204C23.025 7.52151 24.2103 6.8517 25.4862 6.86295C27.7322 6.86295 29.0309 8.37614 29.0309 10.6936V17.2468H26.7492V11.3787C26.7492 9.82976 25.945 8.94806 24.6224 8.94806ZM35.685 15.257C36.5151 15.2749 37.315 14.9456 37.8918 14.3484C38.4686 13.7512 38.77 12.9404 38.7233 12.1115C38.7542 11.2778 38.4436 10.4677 37.8634 9.86836C37.2831 9.26901 36.4835 8.93233 35.6493 8.93615C34.8295 8.93486 34.0455 9.27148 33.4818 9.86672C32.9181 10.462 32.6247 11.2632 32.6706 12.0817C32.6366 12.9096 32.9403 13.7157 33.512 14.3155C34.0837 14.9153 34.8744 15.2572 35.7029 15.263L35.685 15.257ZM39.9684 8.93615H43.3463V6.85105H36.0484H35.685C33.1951 6.86928 31.0454 8.59925 30.4951 11.0276C29.9448 13.456 31.1387 15.9437 33.3775 17.0335C35.6163 18.1233 38.3107 17.5284 39.8826 15.5973C41.4544 13.6662 41.49 10.9071 39.9684 8.93615Z" fill="#62A744"/>
<path fill-rule="evenodd" clip-rule="evenodd" d="M54.6418 4.42638L54.6418 4.41745L54.6418 4.40851V4.42638ZM54.6418 4.41745C54.6375 1.72978 52.6963 0 49.6257 0H44.4248V17.223H46.7423V2.10894H49.4469C51.1806 2.10894 52.2886 2.91915 52.2886 4.49191C52.2886 5.90383 51.1984 6.87489 49.4469 6.87489H47.8146V8.93617H49.3635C52.2619 8.93617 54.6371 7.39033 54.6418 4.41745ZM63.0836 17.211V6.83317L61.0045 6.84509V8.34041C60.2052 7.34994 58.9741 6.80998 57.7041 6.89275C56.3021 6.86222 54.9472 7.39912 53.9467 8.38168C52.9462 9.36424 52.3849 10.7092 52.39 12.1115C52.3847 13.5027 52.9429 14.8368 53.9372 15.8099C54.9316 16.7829 56.2775 17.312 57.6683 17.2766C58.9728 17.3372 60.2241 16.7538 61.0164 15.7157V17.211H63.0836ZM67.3195 9.31746C67.9152 7.8281 69.1067 6.80937 70.8463 6.88682V9.2698H70.7152C68.7195 9.2698 67.3195 10.5685 67.3195 13.2077V17.1932H65.0437V6.86299H67.3195V9.31746ZM57.704 15.2749C58.5288 15.286 59.3214 14.9545 59.8927 14.3595C60.4641 13.7644 60.763 12.9591 60.7184 12.1353C60.7575 11.3013 60.4536 10.4877 59.8775 9.8834C59.3014 9.27914 58.5031 8.93688 57.6682 8.93617C56.8495 8.93498 56.0664 9.27079 55.503 9.8647C54.9395 10.4586 54.6453 11.2583 54.6895 12.0757C54.6555 12.9036 54.9592 13.7098 55.5309 14.3096C56.1026 14.9093 56.8933 15.2513 57.7218 15.257L57.704 15.2749ZM81.2238 17.2051H78.4416L74.3667 13.2017V17.223H72.085V2.11489H74.3131V10.4017L78.3582 6.75574H81.337L75.6595 11.7719L81.2238 17.2051ZM82.7133 2.57362C82.7521 2.60287 82.7725 2.65047 82.7669 2.69872C82.7707 2.75912 82.7343 2.81481 82.6776 2.83574C82.6303 2.84398 82.5819 2.84398 82.5346 2.83574H82.3976V2.5617H82.5286C82.5896 2.54966 82.6523 2.54966 82.7133 2.5617V2.57362ZM82.2488 3.31235V2.43065L82.5466 2.46639C82.6236 2.45351 82.7021 2.45351 82.779 2.46639C82.8681 2.49849 82.9243 2.58656 82.916 2.68086C82.9201 2.74903 82.8885 2.81443 82.8326 2.85363L82.7075 2.89533C82.767 2.89983 82.8215 2.93035 82.8564 2.97873L82.9041 3.13363V3.28256H82.7671V3.17533C82.775 3.09981 82.7435 3.02552 82.6837 2.97873C82.6288 2.9658 82.5717 2.9658 82.5169 2.97873H82.3977V3.31235H82.2488ZM82.0876 2.38893C82.2119 2.25885 82.3842 2.1856 82.5642 2.18638C82.9323 2.19282 83.2282 2.49141 83.2314 2.85957C83.2344 3.03876 83.1633 3.21124 83.0348 3.33617C82.9121 3.46434 82.7416 3.53558 82.5642 3.53276C82.1924 3.53276 81.891 3.23136 81.891 2.85957C81.8909 2.68271 81.9617 2.51321 82.0876 2.38893ZM83.3449 2.85957C83.3472 3.06841 83.2631 3.26892 83.1126 3.41362C82.9687 3.5611 82.7705 3.64296 82.5645 3.64C82.3567 3.64319 82.1565 3.56143 82.0104 3.41362C81.8638 3.26673 81.7822 3.06713 81.784 2.85957C81.7804 2.65223 81.8649 2.45308 82.0164 2.31149C82.1617 2.16597 82.3588 2.0842 82.5645 2.0842C82.7701 2.0842 82.9673 2.16597 83.1126 2.31149C83.2641 2.45308 83.3485 2.65223 83.3449 2.85957Z" fill="white"/>
</svg>
