<svg width="18" height="18" viewBox="0 0 18 18" fill="none" xmlns="http://www.w3.org/2000/svg">
<path fill-rule="evenodd" clip-rule="evenodd" d="M13.5233 12.4627L16.7355 15.6742L15.6742 16.7355L12.4627 13.5233C11.2678 14.4812 9.7815 15.0022 8.25 15C4.524 15 1.5 11.976 1.5 8.25C1.5 4.524 4.524 1.5 8.25 1.5C11.976 1.5 15 4.524 15 8.25C15.0022 9.7815 14.4812 11.2678 13.5233 12.4627ZM12.0187 11.9062C12.9706 10.9274 13.5021 9.61532 13.5 8.25C13.5 5.349 11.1503 3 8.25 3C5.349 3 3 5.349 3 8.25C3 11.1503 5.349 13.5 8.25 13.5C9.61532 13.5021 10.9274 12.9706 11.9062 12.0187L12.0187 11.9062Z" fill="#242C33"/>
<path d="M10.0013 5.07611C11.182 5.07611 12.1388 6.04769 12.1388 7.40789C12.1388 10.1283 9.22408 11.6828 8.25251 12.2658C7.28093 11.6828 4.36621 10.1283 4.36621 7.40789C4.36621 6.04769 5.33778 5.07611 6.50367 5.07611C7.22653 5.07611 7.86388 5.75375 8.25251 6.14238C8.64114 5.75375 9.27849 5.07611 10.0013 5.07611Z" fill="#F42434"/>
</svg>
