<svg width="48" height="19" viewBox="0 0 48 19" fill="none" xmlns="http://www.w3.org/2000/svg">
<path fill-rule="evenodd" clip-rule="evenodd" d="M36.0728 6.72421C34.2975 6.58546 33.0982 6.41671 27.5055 6.06346L23.6055 1.54321C26.3167 1.63471 28.8007 1.77121 30.6255 1.93996C31.26 2.25796 34.2097 3.75571 37.1527 5.56696L36.0728 6.72421ZM16.4573 5.40673L14.7053 1.44898C17.2118 1.42423 19.9373 1.43248 22.5 1.50223L24.6608 5.89573C24.6608 5.89573 18.768 5.52448 16.4573 5.40673ZM13.125 5.26548L5.82971 4.99548C5.82971 4.99548 6.17171 3.83898 6.38246 3.24948C6.83621 1.97748 7.88096 1.66773 8.67371 1.61598C9.98096 1.53273 11.484 1.47873 13.125 1.44873V5.26548ZM47.5755 10.7968L47.0805 9.6928H45.7688L44.808 8.73355H46.6507L45.981 7.23955L40.4857 6.0133C40.4857 6.0133 33.648 1.85455 31.0575 0.549554C26.6588 0.145304 11.2455 -0.567946 3.83175 0.803054C3.2865 0.924554 3.0885 1.3918 3.39225 1.84105L3.51675 2.0248C2.808 3.0133 1.90875 4.0858 1.263 6.1093L1.62975 6.2278L1.88925 9.05905H0.63975C0.57675 9.5548 0.52425 10.0806 0.48825 10.6551L3.36225 11.6136H0V13.5336L3.75 15.2443L5.64075 15.4243C5.61525 15.2211 5.598 15.0156 5.598 14.8041C5.598 12.0606 7.8225 9.83605 10.5667 9.83605C13.311 9.83605 15.5355 12.0606 15.5355 14.8041C15.5355 15.3403 15.4485 15.8563 15.291 16.3393L16.0658 16.4136H34.3522L34.5112 16.4008C34.341 15.8991 34.2443 15.3643 34.2443 14.8041C34.2443 12.0606 36.4688 9.83605 39.213 9.83605C41.958 9.83605 44.1825 12.0606 44.1825 14.8041C44.1825 15.0981 44.1518 15.3838 44.103 15.6636L44.253 15.6516L45.9225 15.5713L48 14.0923V11.5161C47.961 11.4021 47.5755 10.7968 47.5755 10.7968ZM40.4318 14.8037C40.4318 15.4772 39.8858 16.0224 39.2123 16.0224C38.5403 16.0224 37.995 15.4757 37.995 14.8037C37.995 14.1324 38.541 13.5857 39.2123 13.5857C39.885 13.5857 40.4318 14.1309 40.4318 14.8037ZM11.7862 14.8037C11.7862 15.4772 11.2395 16.0224 10.566 16.0224C9.89324 16.0224 9.34799 15.4757 9.34799 14.8037C9.34799 14.1324 9.89474 13.5857 10.566 13.5857C11.2387 13.5857 11.7862 14.1309 11.7862 14.8037ZM39.2123 16.9837C38.01 16.9837 37.0343 16.0065 37.0343 14.8042C37.0343 13.6027 38.0108 12.6262 39.2123 12.6262C40.4145 12.6262 41.3925 13.602 41.3925 14.8042C41.3925 16.0072 40.416 16.9837 39.2123 16.9837ZM10.566 16.9837C9.36372 16.9837 8.38797 16.0072 8.38797 14.8042C8.38797 13.6027 9.36522 12.6262 10.566 12.6262C11.769 12.6262 12.7455 13.602 12.7455 14.8042C12.7455 16.0072 11.7697 16.9837 10.566 16.9837ZM43.311 14.8038C43.311 12.5426 41.4757 10.7058 39.2122 10.7058C36.951 10.7058 35.115 12.5426 35.115 14.8038C35.115 16.0631 35.6835 17.1911 36.579 17.9433H13.2015C14.097 17.1911 14.6655 16.0631 14.6655 14.8038C14.6655 12.5426 12.8287 10.7058 10.566 10.7058C8.30549 10.7058 6.46799 12.5426 6.46799 14.8038C6.46799 16.0631 7.03799 17.1911 7.93274 17.9433H0.926239V18.9033H10.566H39.2122H45.0862V17.9433H41.847C42.7432 17.1911 43.311 16.0631 43.311 14.8038Z" fill="#313D47"/>
</svg>
