<svg width="48" height="19" viewBox="0 0 48 19" fill="none" xmlns="http://www.w3.org/2000/svg">
<path fill-rule="evenodd" clip-rule="evenodd" d="M10.6004 12.72C9.39911 12.72 8.42239 13.6961 8.42239 14.898C8.42239 16.1005 9.39792 17.0772 10.6004 17.0772C11.8036 17.0772 12.7797 16.1011 12.7797 14.898C12.7797 13.6955 11.803 12.72 10.6004 12.72ZM39.2463 12.72C38.045 12.72 37.0689 13.6961 37.0689 14.898C37.0689 16.0999 38.0444 17.0772 39.2463 17.0772C40.45 17.0772 41.4262 16.1011 41.4262 14.898C41.4262 13.6955 40.4489 12.72 39.2463 12.72ZM10.6004 13.6802C9.92895 13.6802 9.38251 14.2266 9.38251 14.8981C9.38251 15.5702 9.92776 16.1172 10.6004 16.1172C11.2737 16.1172 11.8201 15.5714 11.8201 14.8981C11.8201 14.2254 11.2725 13.6802 10.6004 13.6802ZM39.2463 13.6802C38.5754 13.6802 38.029 14.2266 38.029 14.8981C38.029 15.5702 38.5742 16.1172 39.2463 16.1172C39.9196 16.1172 40.466 15.5714 40.466 14.8981C40.466 14.2254 39.919 13.6802 39.2463 13.6802ZM0 13.4399V11.5196H3.83988L0.960119 10.5595V6.71965L11.5202 5.75953V1.91964H8.64047L7.68036 5.75953H1.92024L2.88036 0.959526L3.83988 0H27.8399L29.7601 1.91964H13.4405L15.3601 5.75953H30.7202L28.8 2.87976H29.7601L33.6 5.75953L45.1202 6.71965L46.0804 8.63988H44.1601L45.1202 9.59941H47.0405V11.5196H45.1202L46.0804 12.4798H48L47.0405 15.3595L45.1202 16.3196H44.1026C44.2342 15.868 44.3065 15.3915 44.3065 14.8978C44.3065 12.1058 42.0384 9.84003 39.2463 9.84003C36.4555 9.84003 34.1885 12.1064 34.1885 14.8978C34.1885 15.3915 34.2596 15.8686 34.3918 16.3196H15.4561C15.5889 15.8686 15.66 15.3915 15.66 14.8978C15.66 12.1058 13.3925 9.84003 10.6004 9.84003C7.80956 9.84003 5.54261 12.1064 5.54261 14.8978C5.54261 15.3915 5.61314 15.8686 5.74589 16.3196H3.83988L0 13.4399ZM39.2463 10.7996C41.5097 10.7996 43.3458 12.6362 43.3458 14.8978C43.3458 16.1573 42.7768 17.2851 41.8813 18.0372H45.1202V18.9973H39.2463H10.6004H0.960114V18.0372H7.9672C7.07228 17.2851 6.50213 16.1573 6.50213 14.8978C6.50213 12.6362 8.33939 10.7996 10.6004 10.7996C12.8632 10.7996 14.6999 12.6362 14.6999 14.8978C14.6999 16.1573 14.1309 17.2851 13.2354 18.0372H36.6131C35.7182 17.2851 35.1486 16.1573 35.1486 14.8978C35.1486 12.6362 36.9853 10.7996 39.2463 10.7996Z" fill="#313D47"/>
</svg>
