<svg width="327" height="213" viewBox="0 0 327 213" fill="none" xmlns="http://www.w3.org/2000/svg">
<rect width="327" height="213" rx="18.7401" fill="#F5F4F3"/>
<mask id="mask0_5707_9874" style="mask-type:luminance" maskUnits="userSpaceOnUse" x="0" y="0" width="327" height="213">
<rect width="327" height="213" rx="18.7401" fill="white"/>
</mask>
<g mask="url(#mask0_5707_9874)">
<circle cx="158.549" cy="175.929" r="141.162" fill="#EBDDB9"/>
<path fill-rule="evenodd" clip-rule="evenodd" d="M333.842 213H-11.0383V199.318H333.842V213Z" fill="#666B70"/>
<path fill-rule="evenodd" clip-rule="evenodd" d="M146.074 188.153L154.093 188.823L202.511 190.93L212.572 191.882L357.58 191.029L424.155 188.153L431.457 164.458L408.264 142.766H168.177L143.67 158.027L146.074 188.153Z" fill="black"/>
<path fill-rule="evenodd" clip-rule="evenodd" d="M456.144 159.507C456.144 159.507 451.611 157.503 452.617 151.995C453.626 146.484 452.114 141.476 452.114 141.476C452.114 141.476 451.611 135.465 453.374 127.95C455.138 120.438 450.099 118.434 450.099 118.434C448.587 115.93 429.276 100.577 429.276 100.577C429.276 100.577 440.862 96.9035 433.138 94.5674C425.415 92.2295 394.518 88.2221 394.518 88.2221C346.833 84.549 313.923 82.5471 285.38 88.2221C256.836 93.8989 220.736 122.279 218.217 123.282C215.699 124.283 210.829 125.286 210.829 125.286C152.063 129.96 139.694 136.848 131.886 140.103C124.079 143.358 122.945 151.121 122.945 151.121L122.648 163.014C120.633 164.015 120.633 167.272 120.633 167.272C120.633 167.272 121.838 179.542 122.678 185.719C123.518 191.897 144.171 189.559 144.171 189.559L147.871 189.805C147.871 189.805 147.704 181.975 148.089 177.538C148.089 177.538 146.577 153.996 178.567 150.491C210.556 146.984 210.556 181.296 210.556 181.296C210.556 181.296 209.591 192.313 211.837 194.066H356.03C361.067 194.066 360.562 189.434 360.562 189.434C360.434 177.206 362.14 172.147 364.632 167.021C369.748 156.502 385.956 149.158 401.907 152.997C427.823 159.236 421.888 185.303 421.636 187.307C421.384 189.308 422.979 190.052 422.979 190.052V190.052L423.903 189.994C423.903 189.994 444.307 186.806 450.35 184.302C456.396 181.796 457.405 180.545 459.42 170.777C461.433 161.01 456.144 159.507 456.144 159.507" fill="#62A744"/>
<path fill-rule="evenodd" clip-rule="evenodd" d="M459.42 170.776C460.374 166.147 459.688 163.376 458.702 161.738C458.742 161.878 461.071 170.869 425.751 172.029C425.751 172.029 420.881 147.735 396.701 148.235C396.701 148.235 374.03 147.234 365.466 158.754C356.902 170.276 357.91 178.289 357.91 178.289C357.91 178.289 226.278 181.377 214.525 181.711C214.525 181.711 213.685 148.489 184.637 147.006C184.637 147.006 167.677 144.65 153.883 156.058C153.883 156.058 142.605 166.687 144.815 181.545C144.815 181.545 137.006 179.542 134.487 184.049C131.969 188.557 123.091 186.83 123.091 186.83C126.147 191.597 144.171 189.558 144.171 189.558L147.873 189.805C147.873 189.805 147.704 181.973 148.089 177.538C148.089 177.538 146.579 153.996 178.568 150.491C210.558 146.984 210.558 181.295 210.558 181.295C210.558 181.295 209.591 192.311 211.837 194.066H356.03C361.067 194.066 360.564 189.433 360.564 189.433C360.434 177.204 362.14 172.147 364.632 167.021C369.748 156.5 385.956 149.158 401.909 152.997C427.824 159.236 421.89 185.301 421.636 187.304C421.384 189.308 422.979 190.051 422.979 190.051V190.051L423.905 189.991C423.905 189.991 444.307 186.804 450.352 184.3C456.398 181.795 457.405 180.544 459.42 170.776" fill="#222222"/>
<path fill-rule="evenodd" clip-rule="evenodd" d="M354.283 191.881C350.129 190.63 336.804 186.711 332.36 186.561C327.071 186.384 240.827 187.512 240.827 187.512C240.827 187.512 229.074 187.512 222.694 191.312V191.881" fill="#343434"/>
<path fill-rule="evenodd" clip-rule="evenodd" d="M209.362 154.41C248.442 146.807 357.582 141.477 380.121 141.613L376.387 148.993C376.387 148.993 362.619 152.332 357.582 168.025C357.582 168.025 317.284 160.558 231.652 164.687C231.652 164.687 243.104 173.534 251.666 175.538C251.666 175.538 237.551 181.228 218.386 181.626C218.386 181.626 217.38 163.615 209.362 154.41" fill="#306700"/>
<path fill-rule="evenodd" clip-rule="evenodd" d="M248.273 174.467C248.273 174.467 339.406 171.049 346.646 166.532C346.646 166.532 355.323 167.46 357.582 168.024L354.254 178.377C354.254 178.377 226.774 181.348 220.65 181.531C220.65 181.531 248.44 177.236 248.273 174.467" fill="#306700"/>
<path fill-rule="evenodd" clip-rule="evenodd" d="M156.933 138.307C156.933 138.307 161.298 141.16 162.137 142.572C162.977 143.983 166 137.306 204.954 135.302C204.954 135.302 180.272 132.129 156.933 138.307" fill="#306700"/>
<path fill-rule="evenodd" clip-rule="evenodd" d="M123.091 171.8L124.917 183.951C124.917 183.951 129.702 185.209 132.724 181.626C135.748 178.041 130.962 173.288 130.962 173.288C130.962 173.288 125.273 173.6 123.091 171.8" fill="#222222"/>
<path fill-rule="evenodd" clip-rule="evenodd" d="M136.024 157.134C131.969 155.749 129.325 156.824 127.499 154.408C127.499 154.408 125.542 153.84 122.906 152.725L122.65 163.013C120.635 164.014 120.635 167.27 120.635 167.27C120.635 167.27 120.704 167.974 120.821 169.126C121.995 169.711 122.797 170.096 122.797 170.096C122.797 170.096 127.548 172.215 131.075 171.453C134.601 170.693 136.449 178.364 136.449 178.364C136.449 178.364 140.141 177.856 141.989 178.364C141.989 178.364 140.949 166.116 150.955 154.714C150.955 154.714 140.079 158.52 136.024 157.134" fill="#306700"/>
<path fill-rule="evenodd" clip-rule="evenodd" d="M206.557 184.523C206.557 199.651 194.223 211.912 179.011 211.912C163.796 211.912 151.463 199.651 151.463 184.523C151.463 169.396 163.796 157.135 179.011 157.135C194.223 157.135 206.557 169.396 206.557 184.523" fill="#121615"/>
<path fill-rule="evenodd" clip-rule="evenodd" d="M179.55 160.307C180.885 160.335 182.192 160.471 183.468 160.707L184.27 156.694C182.735 156.41 181.159 156.247 179.55 156.218V160.307Z" fill="#121615"/>
<path fill-rule="evenodd" clip-rule="evenodd" d="M165.36 164.453C166.436 163.729 167.574 163.088 168.763 162.539L167.187 158.756C165.748 159.409 164.374 160.179 163.074 161.053L165.36 164.453Z" fill="#121615"/>
<path fill-rule="evenodd" clip-rule="evenodd" d="M174.553 160.707C175.826 160.473 177.135 160.337 178.469 160.307V156.218C176.859 156.247 175.283 156.41 173.751 156.696L174.553 160.707Z" fill="#121615"/>
<path fill-rule="evenodd" clip-rule="evenodd" d="M169.753 162.111C170.955 161.62 172.206 161.221 173.496 160.924L172.692 156.911C171.135 157.262 169.627 157.74 168.179 158.332L169.753 162.111Z" fill="#121615"/>
<path fill-rule="evenodd" clip-rule="evenodd" d="M155.072 169.182L158.493 171.454C159.189 170.377 159.969 169.357 160.823 168.407L157.908 165.509C156.866 166.652 155.918 167.88 155.072 169.182" fill="#121615"/>
<path fill-rule="evenodd" clip-rule="evenodd" d="M154.991 180.436C155.205 179.19 155.511 177.974 155.909 176.802L152.102 175.233C151.605 176.652 151.22 178.124 150.955 179.638L154.991 180.436Z" fill="#121615"/>
<path fill-rule="evenodd" clip-rule="evenodd" d="M156.278 175.789C156.74 174.602 157.292 173.461 157.929 172.372L154.503 170.098C153.72 171.409 153.04 172.787 152.475 174.223L156.278 175.789Z" fill="#121615"/>
<path fill-rule="evenodd" clip-rule="evenodd" d="M200.09 172.374C200.727 173.463 201.279 174.604 201.741 175.791L205.542 174.225C204.979 172.789 204.299 171.409 203.516 170.098L200.09 172.374Z" fill="#121615"/>
<path fill-rule="evenodd" clip-rule="evenodd" d="M159.654 199.238L156.226 201.514C157.101 202.672 158.063 203.758 159.101 204.769L162.009 201.876C161.162 201.054 160.375 200.173 159.654 199.238" fill="#121615"/>
<path fill-rule="evenodd" clip-rule="evenodd" d="M198.366 199.238C197.645 200.173 196.858 201.054 196.011 201.876L198.919 204.769C199.957 203.758 200.921 202.672 201.794 201.514L198.366 199.238Z" fill="#121615"/>
<path fill-rule="evenodd" clip-rule="evenodd" d="M154.644 184.525C154.644 183.5 154.708 182.49 154.834 181.498L150.79 180.699C150.621 181.95 150.531 183.227 150.531 184.525C150.531 184.749 150.535 184.973 150.541 185.197H154.654C154.648 184.973 154.644 184.749 154.644 184.525" fill="#121615"/>
<path fill-rule="evenodd" clip-rule="evenodd" d="M190.831 158.76L189.256 162.543C190.444 163.092 191.583 163.732 192.659 164.457L194.944 161.055C193.647 160.182 192.27 159.413 190.831 158.76" fill="#121615"/>
<path fill-rule="evenodd" clip-rule="evenodd" d="M184.523 160.924C185.813 161.221 187.062 161.62 188.266 162.111L189.84 158.334C188.392 157.74 186.884 157.262 185.325 156.911L184.523 160.924Z" fill="#121615"/>
<path fill-rule="evenodd" clip-rule="evenodd" d="M155.245 189.886C154.978 188.711 154.796 187.503 154.708 186.271H150.587C150.679 187.776 150.89 189.251 151.209 190.683L155.245 189.886Z" fill="#121615"/>
<path fill-rule="evenodd" clip-rule="evenodd" d="M197.198 168.409C198.053 169.361 198.832 170.379 199.527 171.456L202.949 169.184C202.104 167.882 201.154 166.655 200.111 165.512L197.198 168.409Z" fill="#121615"/>
<path fill-rule="evenodd" clip-rule="evenodd" d="M205.916 175.233L202.109 176.802C202.505 177.974 202.813 179.19 203.026 180.436L207.063 179.638C206.799 178.124 206.412 176.654 205.916 175.233" fill="#121615"/>
<path fill-rule="evenodd" clip-rule="evenodd" d="M203.309 186.271C203.221 187.503 203.041 188.711 202.774 189.886L206.808 190.683C207.129 189.251 207.338 187.776 207.432 186.271H203.309Z" fill="#121615"/>
<path fill-rule="evenodd" clip-rule="evenodd" d="M191.519 205.316C190.524 205.91 189.483 206.433 188.403 206.883L189.979 210.662C191.309 210.109 192.588 209.46 193.807 208.722L191.519 205.316Z" fill="#121615"/>
<path fill-rule="evenodd" clip-rule="evenodd" d="M200.835 195.302C200.3 196.372 199.687 197.397 199.004 198.37L202.426 200.642C203.258 199.449 204.001 198.189 204.646 196.87L200.835 195.302Z" fill="#121615"/>
<path fill-rule="evenodd" clip-rule="evenodd" d="M195.218 202.609C194.345 203.384 193.413 204.097 192.433 204.743L194.718 208.144C195.922 207.35 197.064 206.468 198.131 205.505L195.218 202.609Z" fill="#121615"/>
<path fill-rule="evenodd" clip-rule="evenodd" d="M202.511 190.929C202.188 192.1 201.781 193.237 201.294 194.33L205.095 195.896C205.687 194.557 206.177 193.166 206.555 191.728L202.511 190.929Z" fill="#121615"/>
<path fill-rule="evenodd" clip-rule="evenodd" d="M161.558 167.619C162.461 166.697 163.438 165.845 164.479 165.076L162.193 161.672C160.927 162.594 159.744 163.616 158.649 164.727L161.558 167.619Z" fill="#121615"/>
<path fill-rule="evenodd" clip-rule="evenodd" d="M193.54 165.076C194.58 165.847 195.557 166.699 196.46 167.621L199.369 164.729C198.276 163.616 197.091 162.594 195.827 161.672L193.54 165.076Z" fill="#121615"/>
<path fill-rule="evenodd" clip-rule="evenodd" d="M207.227 180.699L203.184 181.498C203.309 182.49 203.373 183.5 203.373 184.523C203.373 184.749 203.37 184.971 203.364 185.195H207.479C207.483 184.971 207.486 184.747 207.486 184.523C207.486 183.225 207.396 181.95 207.227 180.699" fill="#121615"/>
<path fill-rule="evenodd" clip-rule="evenodd" d="M165.586 204.741C164.606 204.097 163.674 203.384 162.801 202.609L159.888 205.505C160.955 206.467 162.096 207.348 163.3 208.142L165.586 204.741Z" fill="#121615"/>
<path fill-rule="evenodd" clip-rule="evenodd" d="M156.726 194.33C156.237 193.235 155.83 192.1 155.509 190.929L151.463 191.728C151.843 193.164 152.333 194.557 152.924 195.895L156.726 194.33Z" fill="#121615"/>
<path fill-rule="evenodd" clip-rule="evenodd" d="M187.4 207.275C186.32 207.669 185.204 207.986 184.061 208.227L184.863 212.24C186.275 211.947 187.648 211.549 188.976 211.056L187.4 207.275Z" fill="#121615"/>
<path fill-rule="evenodd" clip-rule="evenodd" d="M159.015 198.37C158.331 197.397 157.719 196.372 157.183 195.302L153.375 196.87C154.017 198.189 154.761 199.449 155.595 200.642L159.015 198.37Z" fill="#121615"/>
<path fill-rule="evenodd" clip-rule="evenodd" d="M169.614 206.883C168.534 206.433 167.494 205.91 166.498 205.316L164.211 208.72C165.43 209.46 166.709 210.109 168.04 210.662L169.614 206.883Z" fill="#121615"/>
<path fill-rule="evenodd" clip-rule="evenodd" d="M173.959 208.227C172.815 207.988 171.7 207.669 170.62 207.275L169.044 211.056C170.372 211.549 171.745 211.947 173.157 212.24L173.959 208.227Z" fill="#121615"/>
<path fill-rule="evenodd" clip-rule="evenodd" d="M182.998 208.427C181.873 208.611 180.722 208.72 179.548 208.744V212.835C180.996 212.807 182.416 212.673 183.802 212.439L182.998 208.427Z" fill="#121615"/>
<path fill-rule="evenodd" clip-rule="evenodd" d="M178.47 208.744C177.298 208.718 176.147 208.61 175.022 208.427L174.218 212.439C175.604 212.673 177.024 212.807 178.47 212.834V208.744Z" fill="#121615"/>
<path fill-rule="evenodd" clip-rule="evenodd" d="M205.264 184.526C205.264 198.944 193.509 210.63 179.01 210.63C164.509 210.63 152.754 198.944 152.754 184.526C152.754 170.108 164.509 158.422 179.01 158.422C193.509 158.422 205.264 170.108 205.264 184.526" fill="#252525"/>
<path fill-rule="evenodd" clip-rule="evenodd" d="M200.042 184.523C200.042 196.073 190.625 205.434 179.011 205.434C167.395 205.434 157.978 196.073 157.978 184.523C157.978 172.974 167.395 163.613 179.011 163.613C190.625 163.613 200.042 172.974 200.042 184.523" fill="#1A1A1A"/>
<path fill-rule="evenodd" clip-rule="evenodd" d="M185.202 184.524C185.202 187.925 182.428 190.683 179.008 190.683C175.588 190.683 172.814 187.925 172.814 184.524C172.814 181.124 175.588 178.366 179.008 178.366C182.428 178.366 185.202 181.124 185.202 184.524" fill="#535353"/>
<path fill-rule="evenodd" clip-rule="evenodd" d="M182.734 190.912C183.733 190.912 184.704 191.446 185.472 192.133C186.854 193.838 187.854 195.849 188.595 197.173C189.21 198.674 189.159 200.099 187.317 201.294C184.347 203.128 181.198 204.119 177.768 203.686C175.95 203.203 176.641 201.88 176.899 201.066C178.076 198.344 178.613 196.536 179.228 194.628C180.148 191.853 181.455 190.936 182.734 190.912M172.085 189.562C175.463 189.536 175.925 191.954 175.49 193.913C174.748 195.948 173.493 197.832 172.699 199.13C171.728 200.428 170.473 201.091 168.477 200.122C165.38 198.493 162.948 196.281 161.592 193.123C161.079 191.317 162.589 191.241 163.434 191.063C166.377 190.707 168.246 190.249 170.192 189.79C170.907 189.638 171.548 189.586 172.085 189.562M193.153 182.412H194.766C196.378 182.59 197.606 183.303 197.786 185.492C197.991 188.978 197.35 192.184 195.354 194.985C194.049 196.334 193.204 195.086 192.616 194.476C190.771 192.16 189.415 190.81 188.033 189.385C184.476 185.619 186.6 183.507 188.828 182.743C190.311 182.463 191.848 182.412 193.153 182.412M163.843 173.198C164.561 173.198 165.071 173.911 165.456 174.345C167.248 176.71 168.578 178.085 169.936 179.562C173.39 183.403 171.241 185.465 168.987 186.178C166.837 186.535 164.561 186.406 163.049 186.382C161.437 186.178 160.233 185.414 160.079 183.226C159.952 179.739 160.669 176.533 162.743 173.784C163.152 173.377 163.511 173.224 163.843 173.198M187.65 168.311C188.161 168.287 188.724 168.44 189.391 168.744C192.488 170.322 194.971 172.511 196.353 175.642C196.89 177.448 195.38 177.551 194.535 177.728C191.592 178.135 189.748 178.619 187.778 179.078C182.709 180.197 181.967 177.321 182.427 175.03C183.171 172.97 184.399 171.086 185.167 169.762C185.832 168.897 186.6 168.311 187.65 168.311M178.741 165.106C179.177 165.106 179.586 165.106 180.02 165.156C181.865 165.59 181.173 166.964 180.942 167.754C179.842 170.527 179.329 172.361 178.792 174.269C177.282 179.206 174.39 178.443 172.598 176.889C171.165 175.235 170.115 173.25 169.347 171.927C168.707 170.45 168.733 169.052 170.525 167.778C173.084 166.124 175.798 165.106 178.741 165.106M179.023 164.647C167.965 164.647 159.006 173.529 159.006 184.524C159.006 195.493 167.965 204.4 179.023 204.4C190.055 204.4 199.014 195.493 199.014 184.524C199.014 173.529 190.055 164.647 179.023 164.647" fill="#E0E0E0"/>
<path fill-rule="evenodd" clip-rule="evenodd" d="M179.002 179.858C181.594 179.858 183.694 181.948 183.694 184.523C183.694 187.1 181.594 189.19 179.002 189.19C176.411 189.19 174.311 187.1 174.311 184.523C174.311 181.948 176.411 179.858 179.002 179.858M179.003 177.841C175.29 177.841 172.292 180.832 172.292 184.524C172.292 188.218 175.29 191.207 179.003 191.207C182.716 191.207 185.725 188.218 185.725 184.524C185.725 180.832 182.716 177.841 179.003 177.841" fill="#1A1A1A"/>
<path fill-rule="evenodd" clip-rule="evenodd" d="M179.748 178.738C179.748 179.144 179.418 179.472 179.01 179.472C178.601 179.472 178.27 179.144 178.27 178.738C178.27 178.333 178.601 178.004 179.01 178.004C179.418 178.004 179.748 178.333 179.748 178.738" fill="#535353"/>
<path fill-rule="evenodd" clip-rule="evenodd" d="M179.748 190.627C179.748 191.032 179.418 191.361 179.01 191.361C178.601 191.361 178.27 191.032 178.27 190.627C178.27 190.222 178.601 189.893 179.01 189.893C179.418 189.893 179.748 190.222 179.748 190.627" fill="#535353"/>
<path fill-rule="evenodd" clip-rule="evenodd" d="M173.033 183.95C173.44 183.95 173.771 184.278 173.771 184.683C173.771 185.091 173.44 185.419 173.033 185.419C172.625 185.419 172.295 185.091 172.295 184.683C172.295 184.278 172.625 183.95 173.033 183.95" fill="#535353"/>
<path fill-rule="evenodd" clip-rule="evenodd" d="M184.988 183.95C185.395 183.95 185.726 184.278 185.726 184.683C185.726 185.091 185.395 185.419 184.988 185.419C184.58 185.419 184.25 185.091 184.25 184.683C184.25 184.278 184.58 183.95 184.988 183.95" fill="#535353"/>
<path fill-rule="evenodd" clip-rule="evenodd" d="M175.305 179.961C175.594 180.249 175.594 180.714 175.305 181C175.016 181.287 174.548 181.287 174.261 181C173.971 180.714 173.971 180.249 174.261 179.961C174.548 179.674 175.016 179.674 175.305 179.961" fill="#535353"/>
<path fill-rule="evenodd" clip-rule="evenodd" d="M183.758 188.365C184.047 188.653 184.047 189.118 183.758 189.403C183.469 189.691 183.001 189.691 182.714 189.403C182.424 189.118 182.424 188.653 182.714 188.365C183.001 188.078 183.469 188.078 183.758 188.365" fill="#535353"/>
<path fill-rule="evenodd" clip-rule="evenodd" d="M182.714 179.961C182.424 180.249 182.424 180.714 182.714 181C183.003 181.287 183.471 181.287 183.758 181C184.047 180.714 184.047 180.249 183.758 179.961C183.471 179.674 183.003 179.674 182.714 179.961" fill="#535353"/>
<path fill-rule="evenodd" clip-rule="evenodd" d="M174.261 188.365C173.971 188.653 173.971 189.118 174.261 189.403C174.55 189.691 175.017 189.691 175.305 189.403C175.594 189.118 175.594 188.653 175.305 188.365C175.017 188.078 174.55 188.078 174.261 188.365" fill="#535353"/>
<path fill-rule="evenodd" clip-rule="evenodd" d="M220.649 126.803C220.649 126.803 247.13 105.42 267.583 96.5686C267.583 96.5686 271.311 93.9617 274.073 91.4744C248.133 100.809 220.517 122.409 218.326 123.281C217.015 123.802 215.067 124.323 213.501 124.704L220.649 126.803Z" fill="#252A31"/>
<path fill-rule="evenodd" clip-rule="evenodd" d="M133.272 141.857C133.272 141.857 122.065 146.615 130.879 152.874C130.879 152.874 134.404 152.499 136.294 154.002C138.183 155.503 145.235 152.374 145.235 152.374C145.235 152.374 152.537 145.236 157.197 144.486C161.857 143.735 159.841 141.481 155.182 140.103C150.524 138.727 135.706 140.491 133.272 141.857" fill="#E5E5E5"/>
<path fill-rule="evenodd" clip-rule="evenodd" d="M225.166 127.199C225.166 127.199 260.934 97.1454 288.64 93.138C316.347 89.1306 365.717 93.138 365.717 93.138C365.717 93.138 388.388 93.3882 401.989 100.903C401.989 100.903 411.561 105.042 411.394 109.278C411.394 109.278 410.722 113.199 408.288 115.1C405.937 116.938 395.75 117.883 395.75 117.883C395.75 117.883 387.385 119.319 381.082 119.685C376.447 119.955 346.322 122.441 346.322 122.441C346.322 122.441 323.268 124.024 309.798 124.945C269.513 127.699 237.76 130.233 225.166 127.199" fill="#131519"/>
<path fill-rule="evenodd" clip-rule="evenodd" d="M234.236 126.197C234.236 126.197 267.104 94.1978 308.289 94.3285L297.71 123.693C297.71 123.693 244.06 128.451 234.236 126.197" fill="#1B1B1B"/>
<path fill-rule="evenodd" clip-rule="evenodd" d="M318.282 94.3303L316.098 122.692C316.098 122.692 375.038 119.938 376.802 118.685L366.726 96.1454C366.726 96.1454 346.249 93.6039 318.282 94.3303" fill="#1B1B1B"/>
<mask id="mask1_5707_9874" style="mask-type:alpha" maskUnits="userSpaceOnUse" x="278" y="94" width="30" height="32">
<path fill-rule="evenodd" clip-rule="evenodd" d="M307.264 97.1771L306.881 98.2452L284.146 124.794C282.264 124.934 280.253 125.083 278.155 125.229V125.229L304.55 94.4097C304.886 94.3947 305.222 94.3817 305.56 94.3723V94.3723C306.142 95.3004 306.71 96.2322 307.264 97.1771" fill="white"/>
</mask>
<g mask="url(#mask1_5707_9874)">
<path fill-rule="evenodd" clip-rule="evenodd" d="M307.264 97.1771L306.881 98.2452L284.146 124.794C282.264 124.934 280.253 125.083 278.155 125.229V125.229L304.55 94.4097C304.886 94.3947 305.222 94.3817 305.56 94.3723V94.3723C306.142 95.3004 306.71 96.2322 307.264 97.1771" fill="url(#paint0_linear_5707_9874)"/>
</g>
<mask id="mask2_5707_9874" style="mask-type:alpha" maskUnits="userSpaceOnUse" x="282" y="133" width="11" height="8">
<path fill-rule="evenodd" clip-rule="evenodd" d="M292.014 136.842C292.014 138.71 289.974 140.224 287.459 140.224V140.224C284.944 140.224 282.907 138.71 282.907 136.842V136.842C282.907 134.975 284.944 133.46 287.459 133.46V133.46C289.974 133.46 292.014 134.975 292.014 136.842" fill="white"/>
</mask>
<g mask="url(#mask2_5707_9874)">
<path fill-rule="evenodd" clip-rule="evenodd" d="M292.014 136.842C292.014 138.71 289.974 140.224 287.459 140.224V140.224C284.944 140.224 282.907 138.71 282.907 136.842V136.842C282.907 134.975 284.944 133.46 287.459 133.46V133.46C289.974 133.46 292.014 134.975 292.014 136.842" fill="url(#paint1_linear_5707_9874)"/>
</g>
<mask id="mask3_5707_9874" style="mask-type:alpha" maskUnits="userSpaceOnUse" x="278" y="135" width="20" height="4">
<path fill-rule="evenodd" clip-rule="evenodd" d="M295.519 135.14C295.519 135.14 298.249 134.766 297.678 136.354V136.354C297.297 137.412 296.662 137.39 295.603 137.369V137.369C295.073 137.36 294.439 137.351 293.676 137.472V137.472C291.389 137.847 281.731 138.781 279.256 138.594V138.594C276.777 138.408 279.256 136.354 279.256 136.354V136.354C284.599 135.255 289.281 135.03 292.234 135.03V135.03C294.3 135.03 295.519 135.14 295.519 135.14" fill="white"/>
</mask>
<g mask="url(#mask3_5707_9874)">
<path fill-rule="evenodd" clip-rule="evenodd" d="M295.519 135.14C295.519 135.14 298.249 134.766 297.678 136.354V136.354C297.297 137.412 296.662 137.39 295.603 137.369V137.369C295.073 137.36 294.439 137.351 293.676 137.472V137.472C291.389 137.847 281.731 138.781 279.256 138.594V138.594C276.777 138.408 279.256 136.354 279.256 136.354V136.354C284.599 135.255 289.281 135.03 292.234 135.03V135.03C294.3 135.03 295.519 135.14 295.519 135.14" fill="url(#paint2_linear_5707_9874)"/>
</g>
<mask id="mask4_5707_9874" style="mask-type:alpha" maskUnits="userSpaceOnUse" x="278" y="135" width="20" height="4">
<path fill-rule="evenodd" clip-rule="evenodd" d="M294.941 135.554C294.941 135.554 297.464 135.266 296.938 136.489V136.489C296.585 137.303 295.997 137.287 295.018 137.272V137.272C294.528 137.264 293.944 137.255 293.238 137.35V137.35C291.125 137.638 282.206 138.357 279.918 138.211V138.211C277.629 138.069 279.918 136.489 279.918 136.489V136.489C284.856 135.643 289.185 135.47 291.91 135.47V135.47C293.818 135.47 294.941 135.554 294.941 135.554" fill="white"/>
</mask>
<g mask="url(#mask4_5707_9874)">
<path fill-rule="evenodd" clip-rule="evenodd" d="M294.941 135.554C294.941 135.554 297.464 135.266 296.938 136.489V136.489C296.585 137.303 295.997 137.287 295.018 137.272V137.272C294.528 137.264 293.944 137.255 293.238 137.35V137.35C291.125 137.638 282.206 138.357 279.918 138.211V138.211C277.629 138.069 279.918 136.489 279.918 136.489V136.489C284.856 135.643 289.185 135.47 291.91 135.47V135.47C293.818 135.47 294.941 135.554 294.941 135.554" fill="url(#paint3_linear_5707_9874)"/>
</g>
<path fill-rule="evenodd" clip-rule="evenodd" d="M232.92 127.179C233.239 125.624 233.623 124.291 235.412 121.654C238.19 117.97 241.991 116.89 245.665 115.557C250.424 116.7 252.084 122.765 249.754 126.418C244.037 127.529 238.446 127.56 232.92 127.179" fill="#62A744"/>
<path fill-rule="evenodd" clip-rule="evenodd" d="M232.922 127.18C233.177 125.783 233.241 124.069 234.869 122.479C240.045 123.942 245.443 122.86 250.457 120.765C251.383 124.291 250.426 125.18 249.755 126.418C243.877 127.624 238.383 127.402 232.922 127.18" fill="#306700"/>
<path d="M69.4252 74.6085H67.6192L67.3244 75.6143H65.9238L67.9141 70.1831H69.1487L71.1758 75.6143H69.7569L69.4252 74.6085ZM67.9141 73.6028H69.0935L68.4853 71.7375L67.9141 73.6028Z" fill="#313D47"/>
<path d="M77.8464 70.1831V73.749C77.8464 74.1514 77.7542 74.5171 77.5699 74.8097C77.4041 75.1023 77.1645 75.3217 76.8328 75.4863C76.5011 75.6509 76.1141 75.724 75.6903 75.724C75.0269 75.724 74.4924 75.5594 74.1055 75.212C73.7185 74.8645 73.5342 74.3891 73.5342 73.8039V70.2197H74.8794V73.8405C74.8794 74.4439 75.1743 74.7365 75.7087 74.7365C76.2431 74.7365 76.2063 74.6451 76.3353 74.5171C76.4643 74.3891 76.5564 74.1331 76.5564 73.7856V70.2197L77.8648 70.1831H77.8464Z" fill="#313D47"/>
<path d="M85.0516 71.1889H83.4115V75.6143H82.1031V71.1889H80.4814V70.1831H85.0516V71.1889Z" fill="#313D47"/>
<path d="M92.221 73.0177C92.221 73.5663 92.1104 74.0235 91.9261 74.4258C91.7419 74.8281 91.4286 75.1573 91.0784 75.3768C90.7283 75.5962 90.286 75.7059 89.8438 75.7059C89.4015 75.7059 88.9592 75.5962 88.6091 75.3768C88.2589 75.1573 87.9457 74.8647 87.7614 74.4624C87.5771 74.0601 87.4665 73.6212 87.4297 73.1092V72.8166C87.4297 72.268 87.5403 71.8108 87.7245 71.4085C87.9088 71.0062 88.2221 70.6953 88.5722 70.4576C88.9224 70.2381 89.3646 70.1284 89.8253 70.1284C90.286 70.1284 90.7099 70.2381 91.06 70.4576C91.4101 70.677 91.7234 71.0062 91.9077 71.3719C92.092 71.7742 92.2026 72.2497 92.2026 72.7617V73.036L92.221 73.0177ZM90.8757 72.7983C90.8757 72.2497 90.7836 71.8474 90.5993 71.5731C90.415 71.2988 90.157 71.1708 89.8069 71.1708C89.1435 71.1708 88.7934 71.6645 88.7749 72.6337V73.036C88.7749 73.5846 88.8671 73.9869 89.0514 74.2612C89.2356 74.5355 89.4936 74.7001 89.8438 74.7001C90.1939 74.7001 90.4519 74.5721 90.6177 74.2978C90.7836 74.0235 90.8942 73.6212 90.8942 73.0726V72.7983H90.8757Z" fill="#313D47"/>
<path d="M96.6992 70.1831L97.9338 73.9502L99.1685 70.1831H100.919V75.6143H99.6108V74.3342L99.7398 71.7375L98.4314 75.596H97.51L96.1647 71.7375L96.2937 74.3342V75.6143H94.9854V70.1831H96.7176H96.6992Z" fill="#313D47"/>
<path d="M108.438 73.0177C108.438 73.5663 108.327 74.0235 108.143 74.4258C107.959 74.8281 107.645 75.1573 107.295 75.3768C106.945 75.5962 106.503 75.7059 106.061 75.7059C105.618 75.7059 105.176 75.5962 104.826 75.3768C104.476 75.1573 104.162 74.8647 103.978 74.4624C103.794 74.0601 103.683 73.6212 103.646 73.1092V72.8166C103.646 72.268 103.757 71.8108 103.941 71.4085C104.126 71.0062 104.439 70.6953 104.789 70.4576C105.139 70.2381 105.581 70.1284 106.042 70.1284C106.503 70.1284 106.927 70.2381 107.277 70.4576C107.627 70.677 107.94 71.0062 108.125 71.3719C108.309 71.7742 108.419 72.2497 108.419 72.7617V73.036L108.438 73.0177ZM107.093 72.7983C107.093 72.2497 107 71.8474 106.816 71.5731C106.632 71.2988 106.374 71.1708 106.024 71.1708C105.36 71.1708 105.01 71.6645 104.992 72.6337V73.036C104.992 73.5846 105.084 73.9869 105.268 74.2612C105.452 74.5355 105.71 74.7001 106.061 74.7001C106.411 74.7001 106.669 74.5721 106.835 74.2978C107 74.0235 107.111 73.6212 107.111 73.0726V72.7983H107.093Z" fill="#313D47"/>
<path d="M115.164 71.1889H113.524V75.6143H112.215V71.1889H110.594V70.1831H115.164V71.1889Z" fill="#313D47"/>
<path d="M119.219 75.6143H117.91V70.1831H119.219V75.6143Z" fill="#313D47"/>
<path d="M124.341 74.1514L125.428 70.1831H126.902L125.059 75.6143H123.604L121.761 70.1831H123.217L124.304 74.1514H124.341Z" fill="#313D47"/>
<path d="M132.763 73.3102H130.68V74.6085H133.15V75.6143H129.372V70.1831H133.15V71.1889H130.68V72.3227H132.763V73.2919V73.3102Z" fill="#313D47"/>
<path d="M24 32.8762V60.7088H40.7327V56.4114H28.3306V49.0052H37.5447V44.781H28.3306V37.1371H40.53V32.8762H24Z" fill="#62A60A"/>
<path d="M51.1815 60.746C45.6899 60.746 41.6357 56.4851 41.6357 51.2368C41.6357 45.9885 45.6899 41.6179 51.2184 41.6179C56.7468 41.6179 56.8758 42.898 58.608 44.7633L55.9912 47.5794C54.7013 46.2262 53.3376 45.2936 51.1999 45.2936C48.1409 45.2936 45.8926 47.9269 45.8926 51.1637C45.8926 54.4004 48.1593 57.1069 51.4211 57.1069C54.6828 57.1069 54.904 56.1926 56.2124 54.821L58.7923 57.3263C56.9311 59.3013 54.7934 60.7277 51.2184 60.7277" fill="#62A60A"/>
<path d="M65.5373 60.7088H61.2988V32.8762H65.5373V44.8176C66.7351 43.0803 68.4305 41.5808 71.3053 41.5808C75.47 41.5808 77.8657 44.3421 77.8657 48.6212V60.6723H73.6272V49.8647C73.6272 47.012 72.2083 45.3844 69.6652 45.3844C67.1221 45.3844 65.5004 47.1034 65.5004 49.9196V60.6906H65.5373V60.7088Z" fill="#62A60A"/>
<path d="M90.2495 57.0708C86.9693 57.0708 84.6105 54.4375 84.6105 51.2007C84.6105 47.9639 86.7666 45.422 90.1574 45.422C93.5482 45.422 95.8148 48.0553 95.8148 51.2921C95.8517 54.474 93.6587 57.0708 90.2311 57.0708M104.476 41.6001H90.9314C90.7102 41.6001 90.4891 41.5818 90.2495 41.5818C84.5921 41.5818 80.3721 45.9341 80.3721 51.2007C80.3721 56.4673 84.5368 60.7099 90.1574 60.7099C95.778 60.7099 100.072 56.3576 100.072 51.1275C100.072 45.8975 99.3899 46.9947 98.192 45.422H104.458L104.494 41.6184L104.476 41.6001Z" fill="#62A60A"/>
<path d="M148.961 46.1345V41.5994H144.723V60.6909H148.961V53.3395C148.961 48.4752 151.559 46.0979 155.264 46.0979H155.503V41.6359C152.241 41.5262 150.122 43.3915 148.961 46.1345Z" fill="#313D47"/>
<path d="M131.122 57.0884C127.842 57.0884 125.483 54.455 125.483 51.2183C125.483 47.9815 127.639 45.4396 131.03 45.4396C134.421 45.4396 136.688 48.0729 136.688 51.3097C136.688 54.5465 134.532 57.0884 131.104 57.0884M137.222 41.5994V44.3973C135.914 42.6783 133.905 41.6359 131.085 41.6359C125.428 41.6359 121.208 45.9882 121.208 51.2548C121.208 56.5215 125.373 60.764 131.012 60.764C136.651 60.764 135.914 59.6851 137.222 57.9478V60.7091H141.055L141.018 41.5994H137.222C137.222 41.6177 137.222 41.6177 137.222 41.6177V41.5994Z" fill="#313D47"/>
<path d="M125.428 37.1377C125.428 32.1636 121.835 29 116.122 29H106.466V60.7094H110.76V32.8585H115.772C118.997 32.8585 121.061 34.3581 121.061 37.2291C121.061 40.1001 119.034 41.5997 115.772 41.5997H112.768V45.4582H115.643C121.024 45.4582 125.447 42.6054 125.447 37.1559" fill="#313D47"/>
<path d="M169.619 60.6723L171.093 60.7088H174.76L164.477 50.6694L175 41.3979H169.508L162.008 48.1458V32.8762H157.788L157.77 60.7088H162.008V53.3027L169.619 60.6723Z" fill="#313D47"/>
<path d="M38.116 95.251L45.5241 90.0758L47.6065 91.6851L37.3421 98.2501L35.3887 96.7322L39.3507 85.2847L41.4331 86.8939L38.1345 95.251H38.116Z" fill="#313D47"/>
<path d="M45.1744 103.796C44.1055 103.138 43.4421 102.279 43.1841 101.218C42.9261 100.157 43.1288 99.0784 43.8107 97.9995L43.9213 97.8166C44.382 97.0852 44.9164 96.5366 45.5614 96.1343C46.2063 95.7319 46.8882 95.5491 47.5884 95.5491C48.3071 95.5491 48.989 95.7685 49.6524 96.1891C50.6475 96.8109 51.2372 97.5972 51.4215 98.5847C51.6058 99.5539 51.3294 100.615 50.6107 101.767L50.1131 102.553L45.4876 99.6819C45.2481 100.194 45.2112 100.688 45.3402 101.163C45.4692 101.639 45.7825 102.041 46.2616 102.333C47.0172 102.791 47.7543 102.882 48.5283 102.608L48.8231 104.254C48.2703 104.473 47.6806 104.565 47.0356 104.473C46.3906 104.4 45.7641 104.162 45.1744 103.796ZM48.6757 97.7252C48.2887 97.4875 47.9017 97.4143 47.4963 97.5241C47.0909 97.6338 46.7039 97.9081 46.3353 98.347L49.0443 100.011L49.1364 99.8648C49.3944 99.4259 49.4865 99.0236 49.4128 98.6578C49.3391 98.2921 49.0996 97.9629 48.6757 97.7069V97.7252Z" fill="#313D47"/>
<path d="M55.3103 100.63C56.1764 100.246 57.0241 100.264 57.8534 100.666C59.5119 101.489 59.8805 102.861 58.9407 104.799L56.5081 109.682L54.4626 108.676L56.8767 103.848C57.0978 103.409 57.1531 103.044 57.0794 102.733C56.9873 102.422 56.7293 102.166 56.287 101.946C55.6789 101.654 55.1445 101.672 54.6285 102.001L51.9195 107.414L49.874 106.408L55.2735 95.6008L57.319 96.6066L55.3103 100.63Z" fill="#313D47"/>
<path d="M60.7823 111.382L58.6631 110.522L61.888 102.641L64.0072 103.5L60.7823 111.382ZM62.5883 100.556C62.7173 100.245 62.9384 100.026 63.2333 99.8975C63.5281 99.7878 63.8598 99.7878 64.2284 99.9341C64.5969 100.08 64.8365 100.3 64.9655 100.592C65.0945 100.885 65.0945 101.178 64.9655 101.507C64.8365 101.836 64.6154 102.037 64.3205 102.165C64.0257 102.293 63.694 102.275 63.3254 102.129C62.9753 101.982 62.7173 101.763 62.5883 101.47C62.4593 101.178 62.4593 100.867 62.5883 100.556Z" fill="#313D47"/>
<path d="M66.9376 111.785C67.3431 111.913 67.6932 111.913 68.0249 111.785C68.3566 111.638 68.5777 111.401 68.7067 111.035L70.7523 111.693C70.568 112.242 70.2547 112.699 69.8124 113.046C69.3702 113.412 68.8542 113.632 68.246 113.723C67.6563 113.814 67.0482 113.76 66.4217 113.558C65.2607 113.193 64.4499 112.516 64.026 111.565C63.6022 110.614 63.5837 109.499 64.026 108.2L64.0813 108.054C64.4867 106.811 65.1501 105.915 66.0531 105.403C66.9561 104.872 68.0065 104.799 69.1674 105.165C70.181 105.494 70.9181 106.043 71.342 106.811C71.7658 107.579 71.8395 108.456 71.5262 109.407L69.4807 108.749C69.6097 108.328 69.5913 107.944 69.4254 107.597C69.2596 107.249 68.9647 107.012 68.5593 106.884C68.0433 106.719 67.6011 106.774 67.2325 107.067C66.8455 107.359 66.5322 107.908 66.2558 108.731L66.1821 108.95C65.9057 109.791 65.8504 110.431 65.9794 110.87C66.1084 111.309 66.4401 111.62 66.9745 111.785H66.9376Z" fill="#313D47"/>
<path d="M73.7933 115.405L71.5635 114.857L74.4751 103.135L76.7049 103.683L73.7933 115.405Z" fill="#313D47"/>
<path d="M80.0027 116.796C78.768 116.576 77.8281 116.028 77.1647 115.15C76.5197 114.272 76.2986 113.193 76.5197 111.932L76.5566 111.712C76.704 110.871 76.9989 110.139 77.4411 109.536C77.8834 108.932 78.4363 108.494 79.0997 108.238C79.7631 107.982 80.4818 107.927 81.2558 108.055C82.4167 108.256 83.2644 108.768 83.7988 109.609C84.3333 110.45 84.4991 111.529 84.2595 112.846L84.0937 113.76L78.7127 112.846C78.6943 113.413 78.8417 113.888 79.1365 114.272C79.4498 114.656 79.8737 114.912 80.4449 115.004C81.311 115.15 82.0482 114.949 82.6379 114.419L83.5408 115.845C83.117 116.266 82.601 116.558 81.9745 116.723C81.3479 116.887 80.6845 116.906 79.9842 116.796H80.0027ZM80.9241 109.883C80.4818 109.81 80.0948 109.883 79.7631 110.158C79.4314 110.414 79.1734 110.816 79.0075 111.365L82.1403 111.895L82.1772 111.712C82.2509 111.218 82.1772 110.798 81.9745 110.487C81.7533 110.176 81.4216 109.975 80.9425 109.883H80.9241Z" fill="#313D47"/>
<path d="M92.2024 113.87L92.055 117.893L89.6777 117.802L90.1016 106.373L94.598 106.537C95.4642 106.574 96.2197 106.757 96.8647 107.086C97.5097 107.415 98.0072 107.89 98.3389 108.476C98.6706 109.061 98.8181 109.737 98.7996 110.469C98.7628 111.584 98.3389 112.462 97.5465 113.084C96.7541 113.706 95.6669 113.98 94.3032 113.943L92.2208 113.87H92.2024ZM92.2577 111.968L94.3769 112.041C95.0035 112.06 95.4826 111.932 95.8327 111.657C96.1829 111.383 96.3487 110.963 96.3671 110.414C96.3856 109.847 96.2381 109.39 95.9249 109.042C95.6116 108.695 95.1509 108.494 94.5612 108.457L92.3867 108.384L92.2577 111.968Z" fill="#313D47"/>
<path d="M105.029 111.307C104.716 111.289 104.44 111.289 104.2 111.307C103.334 111.362 102.799 111.691 102.56 112.294L102.947 117.835L100.662 118L100.054 109.515L102.21 109.369L102.339 110.374C102.744 109.57 103.352 109.131 104.163 109.076C104.421 109.076 104.661 109.076 104.882 109.131L105.011 111.307H105.029Z" fill="#313D47"/>
<path d="M105.95 113.322C105.821 112.481 105.877 111.713 106.098 111.018C106.319 110.323 106.706 109.738 107.259 109.299C107.812 108.842 108.493 108.568 109.286 108.44C110.428 108.257 111.424 108.476 112.253 109.061C113.082 109.647 113.635 110.524 113.893 111.713L114.003 112.28C114.206 113.56 114.003 114.657 113.395 115.553C112.787 116.449 111.884 116.98 110.65 117.163C109.433 117.345 108.401 117.108 107.554 116.449C106.706 115.791 106.172 114.785 105.969 113.45V113.341L105.95 113.322ZM108.235 113.139C108.364 113.944 108.604 114.529 108.973 114.895C109.341 115.279 109.802 115.425 110.373 115.334C110.926 115.242 111.313 114.968 111.553 114.511C111.792 114.054 111.847 113.359 111.7 112.445C111.571 111.658 111.331 111.073 110.963 110.689C110.594 110.305 110.115 110.159 109.562 110.25C109.009 110.342 108.622 110.616 108.383 111.091C108.143 111.567 108.106 112.243 108.235 113.139Z" fill="#313D47"/>
<path d="M116.583 105.016L117.062 107.046L118.481 106.717L118.868 108.344L117.449 108.673L118.426 112.806C118.5 113.117 118.61 113.318 118.758 113.428C118.905 113.538 119.145 113.556 119.476 113.465C119.716 113.41 119.937 113.337 120.121 113.263L120.508 114.946C120.103 115.184 119.661 115.348 119.2 115.458C117.633 115.824 116.657 115.22 116.251 113.666L115.201 109.204L113.985 109.478L113.598 107.851L114.814 107.576L114.335 105.546L116.565 105.034L116.583 105.016Z" fill="#313D47"/>
<path d="M125.963 113.56C124.765 113.944 123.678 113.871 122.683 113.377C121.706 112.884 121.006 112.024 120.619 110.817L120.545 110.616C120.287 109.793 120.214 109.025 120.324 108.275C120.435 107.526 120.73 106.904 121.209 106.373C121.688 105.843 122.296 105.459 123.033 105.221C124.157 104.874 125.134 104.947 126 105.441C126.866 105.935 127.493 106.831 127.917 108.111L128.193 108.988L122.996 110.616C123.236 111.128 123.586 111.475 124.047 111.695C124.507 111.896 125.005 111.914 125.539 111.75C126.387 111.494 126.94 110.982 127.216 110.232L128.672 111.091C128.488 111.658 128.156 112.152 127.677 112.591C127.198 113.03 126.627 113.341 125.945 113.56H125.963ZM123.604 106.977C123.162 107.105 122.867 107.361 122.683 107.745C122.499 108.129 122.462 108.586 122.554 109.153L125.595 108.202L125.539 108.038C125.373 107.562 125.134 107.233 124.784 107.05C124.452 106.867 124.047 106.849 123.586 106.995L123.604 106.977Z" fill="#313D47"/>
<path d="M133.665 108.785C134.052 108.621 134.329 108.383 134.476 108.072C134.624 107.761 134.642 107.432 134.495 107.066L136.466 106.243C136.688 106.774 136.743 107.322 136.651 107.889C136.559 108.456 136.301 108.95 135.914 109.407C135.527 109.864 135.011 110.212 134.421 110.468C133.297 110.943 132.246 110.961 131.288 110.522C130.33 110.084 129.593 109.242 129.058 107.981L129.003 107.834C128.487 106.627 128.413 105.53 128.745 104.543C129.095 103.555 129.814 102.824 130.956 102.348C131.952 101.928 132.855 101.891 133.684 102.184C134.513 102.495 135.14 103.116 135.545 104.031L133.573 104.854C133.389 104.451 133.131 104.177 132.781 104.012C132.431 103.866 132.062 103.866 131.657 104.031C131.159 104.232 130.864 104.561 130.772 105.036C130.68 105.494 130.791 106.134 131.122 106.92L131.214 107.139C131.565 107.944 131.933 108.474 132.32 108.73C132.726 108.986 133.168 109.005 133.684 108.785H133.665Z" fill="#313D47"/>
<path d="M136.688 97.5027L137.646 99.3679L138.955 98.7096L139.729 100.191L138.42 100.849L140.374 104.616C140.521 104.891 140.669 105.073 140.853 105.128C141.019 105.201 141.258 105.147 141.572 105C141.793 104.891 141.995 104.763 142.143 104.653L142.935 106.189C142.603 106.518 142.217 106.792 141.793 106.994C140.374 107.725 139.268 107.378 138.494 105.97L136.375 101.892L135.269 102.458L134.495 100.977L135.601 100.41L134.643 98.545L136.67 97.5027H136.688Z" fill="#313D47"/>
<path d="M138.807 96.2417C138.641 95.9491 138.586 95.6565 138.678 95.3457C138.77 95.0348 138.973 94.797 139.323 94.5959C139.655 94.3947 139.987 94.3399 140.3 94.413C140.613 94.4862 140.853 94.669 141.037 94.9616C141.221 95.2542 141.258 95.5651 141.166 95.876C141.074 96.1868 140.871 96.4429 140.539 96.6257C140.208 96.8269 139.876 96.8817 139.563 96.8086C139.249 96.7355 139.01 96.5526 138.826 96.26L138.807 96.2417ZM146.363 104.233L144.391 105.385L140.042 98.0521L142.014 96.9L146.363 104.233Z" fill="#313D47"/>
<path d="M145.699 99.659C145.22 98.9641 144.907 98.2509 144.796 97.5377C144.686 96.8063 144.796 96.1296 145.073 95.4713C145.368 94.8313 145.847 94.2644 146.51 93.8072C147.468 93.1489 148.427 92.9112 149.44 93.0757C150.435 93.2403 151.32 93.7889 152.094 94.7216L152.444 95.197C153.199 96.2759 153.494 97.3366 153.347 98.3972C153.199 99.4578 152.61 100.336 151.596 101.049C150.583 101.744 149.551 101.981 148.482 101.762C147.413 101.543 146.51 100.866 145.736 99.7504L145.681 99.659H145.699ZM147.671 98.4886C148.132 99.147 148.611 99.5676 149.108 99.7504C149.606 99.9333 150.085 99.8602 150.564 99.531C151.025 99.2201 151.246 98.7995 151.265 98.2692C151.283 97.7389 151.025 97.0988 150.491 96.3491C150.03 95.6908 149.551 95.2884 149.053 95.1056C148.556 94.9227 148.058 94.9959 147.597 95.3067C147.137 95.6176 146.916 96.0382 146.897 96.5685C146.897 97.0988 147.155 97.7389 147.671 98.4704V98.4886Z" fill="#313D47"/>
<path d="M152.389 89.6031L153.089 90.298C153.052 89.3288 153.421 88.5059 154.213 87.8476C154.895 87.2624 155.595 87.0247 156.277 87.1344C156.959 87.2441 157.659 87.7013 158.359 88.4876L161.971 92.657L160.239 94.1383L156.664 90.0237C156.351 89.658 156.037 89.4568 155.742 89.4385C155.448 89.402 155.097 89.5483 154.729 89.8774C154.25 90.298 154.047 90.81 154.176 91.4318L158.12 95.9669L156.387 97.4482L150.804 91.0112L152.444 89.6214L152.389 89.6031Z" fill="#313D47"/>
<path d="M164.828 89.8407C164.515 90.1516 164.128 90.3162 163.685 90.3162C163.243 90.3162 162.856 90.1516 162.543 89.8407C162.229 89.5298 162.082 89.1458 162.082 88.7069C162.082 88.268 162.248 87.884 162.561 87.5731C162.874 87.2622 163.261 87.0977 163.704 87.0977C164.146 87.0977 164.533 87.244 164.846 87.5731C165.16 87.884 165.325 88.268 165.325 88.7069C165.325 89.1458 165.16 89.5298 164.846 89.8407H164.828ZM162.69 87.7194C162.414 87.9937 162.285 88.3046 162.285 88.6886C162.285 89.0726 162.414 89.4018 162.69 89.6761C162.967 89.9504 163.28 90.0784 163.667 90.0784C164.054 90.0784 164.386 89.9504 164.644 89.6761C164.92 89.4018 165.049 89.0726 165.049 88.6886C165.049 88.3046 164.92 87.9754 164.644 87.7194C164.367 87.4451 164.054 87.3171 163.667 87.3171C163.28 87.3171 162.948 87.4451 162.69 87.7194ZM163.648 87.8108C163.87 87.8108 164.035 87.8291 164.128 87.8657C164.312 87.9389 164.404 88.0852 164.404 88.3046C164.404 88.524 164.349 88.5789 164.238 88.652C164.183 88.6886 164.091 88.7252 163.98 88.7435C164.128 88.7618 164.22 88.8166 164.293 88.9081C164.349 88.9995 164.386 89.0909 164.386 89.1824V89.3104C164.386 89.3469 164.386 89.4018 164.386 89.4384C164.386 89.4749 164.386 89.5115 164.386 89.5298C164.386 89.5481 164.091 89.5481 164.091 89.5481C164.091 89.5481 164.091 89.5481 164.091 89.5298V89.475V89.3287C164.091 89.1275 164.035 88.9995 163.925 88.9263C163.851 88.8898 163.741 88.8715 163.575 88.8715H163.335V89.5664H163.022V87.8108H163.648ZM163.98 88.0852C163.906 88.0486 163.777 88.012 163.593 88.012H163.317V88.652H163.593C163.722 88.652 163.833 88.652 163.888 88.6155C164.017 88.5606 164.072 88.4692 164.072 88.3412C164.072 88.2132 164.035 88.1217 163.962 88.0852H163.98Z" fill="#313D47"/>
</g>
<defs>
<linearGradient id="paint0_linear_5707_9874" x1="278.156" y1="93.8092" x2="308.289" y2="93.8092" gradientUnits="userSpaceOnUse">
<stop stop-color="#1F212D"/>
<stop offset="1" stop-color="#242A2F"/>
</linearGradient>
<linearGradient id="paint1_linear_5707_9874" x1="282.906" y1="133.46" x2="292.013" y2="133.46" gradientUnits="userSpaceOnUse">
<stop stop-color="#1F212D"/>
<stop offset="1" stop-color="#242A2F"/>
</linearGradient>
<linearGradient id="paint2_linear_5707_9874" x1="278.154" y1="135.029" x2="297.756" y2="135.029" gradientUnits="userSpaceOnUse">
<stop stop-color="#1F212D"/>
<stop offset="1" stop-color="#242A2F"/>
</linearGradient>
<linearGradient id="paint3_linear_5707_9874" x1="278.9" y1="135.47" x2="297.009" y2="135.47" gradientUnits="userSpaceOnUse">
<stop stop-color="#1F212D"/>
<stop offset="1" stop-color="#242A2F"/>
</linearGradient>
</defs>
</svg>
