<svg width="327" height="217" viewBox="0 0 327 217" fill="none" xmlns="http://www.w3.org/2000/svg">
<rect width="327" height="217" rx="18.4578" fill="#F5F4F3"/>
<mask id="mask0_5707_9981" style="mask-type:luminance" maskUnits="userSpaceOnUse" x="0" y="0" width="327" height="217">
<rect width="327" height="217" rx="18.4578" fill="white"/>
</mask>
<g mask="url(#mask0_5707_9981)">
<path fill-rule="evenodd" clip-rule="evenodd" d="M0 217H327V0H0V217Z" fill="#F5F4F3"/>
<path fill-rule="evenodd" clip-rule="evenodd" d="M102.307 193.812H87.8164L187.629 35.1992L198.845 40.4011L102.307 193.812Z" fill="white"/>
<mask id="mask1_5707_9981" style="mask-type:luminance" maskUnits="userSpaceOnUse" x="9" y="17" width="155" height="200">
<path fill-rule="evenodd" clip-rule="evenodd" d="M9.3877 17.5151H163.086V217H9.3877V17.5151Z" fill="white"/>
</mask>
<g mask="url(#mask1_5707_9981)">
<path fill-rule="evenodd" clip-rule="evenodd" d="M38.1022 225.799L9.3877 225.859L140.494 17.5151L163.086 27.1838L38.1022 225.799Z" fill="white"/>
</g>
<mask id="mask2_5707_9981" style="mask-type:luminance" maskUnits="userSpaceOnUse" x="0" y="0" width="327" height="217">
<path fill-rule="evenodd" clip-rule="evenodd" d="M0 0H327V217H0V0Z" fill="white"/>
</mask>
<g mask="url(#mask2_5707_9981)">
<path fill-rule="evenodd" clip-rule="evenodd" d="M312.395 138.897H59.1958L40.2016 29.5358C37.4806 13.8641 55.0822 0.923039 74.009 4.66412C132.715 16.2667 243.75 44.5036 312.395 101.4V138.897ZM-34.917 -11.6821V258.196H371.702V95.9794C327.665 49.4989 144.708 -11.6795 144.708 -11.6795L-34.917 -11.6821Z" fill="#D4D7D9"/>
</g>
<path fill-rule="evenodd" clip-rule="evenodd" d="M182.817 117.249C183.404 115.986 183.292 112.305 182.46 111.75C181.084 110.831 178.765 111.983 178.443 113.193C177.962 115.001 182.817 117.249 182.817 117.249" fill="#B3856A"/>
<path fill-rule="evenodd" clip-rule="evenodd" d="M207.536 139.355L184.945 131.026L187.437 124.389L210.027 132.719L207.536 139.355Z" fill="#313D47"/>
<mask id="mask3_5707_9981" style="mask-type:luminance" maskUnits="userSpaceOnUse" x="174" y="100" width="153" height="117">
<path fill-rule="evenodd" clip-rule="evenodd" d="M174.49 100.967H327V217H174.49V100.967Z" fill="white"/>
</mask>
<g mask="url(#mask3_5707_9981)">
<path fill-rule="evenodd" clip-rule="evenodd" d="M371.702 258.197H246.494L174.49 186.061L210.843 132.528C210.843 115.097 225.1 100.967 242.687 100.967H371.702V258.197Z" fill="#A2A6AB"/>
</g>
<path fill-rule="evenodd" clip-rule="evenodd" d="M218.326 120.633C219.144 121.325 219.994 122.017 220.845 122.693C228.426 128.708 231.423 138.835 228.055 147.863C228 148.009 227.945 148.156 227.888 148.302C223.219 160.415 209.034 165.934 197.195 160.416C196.186 159.946 195.171 159.483 194.17 159.041L218.326 120.633Z" fill="#313D47"/>
<mask id="mask4_5707_9981" style="mask-type:luminance" maskUnits="userSpaceOnUse" x="0" y="34" width="12" height="58">
<path fill-rule="evenodd" clip-rule="evenodd" d="M0 34.3323H11.93V91.3781H0V34.3323Z" fill="white"/>
</mask>
<g mask="url(#mask4_5707_9981)">
<path fill-rule="evenodd" clip-rule="evenodd" d="M-13.1615 91.3781L-34.916 91.1125V34.3323H-21.0693C-3.50181 34.3323 11.296 47.9503 11.909 65.3511C11.9227 65.7356 11.9304 66.1228 11.9304 66.5108C11.9304 80.2443 0.695397 91.3781 -13.1615 91.3781" fill="#A2A6AB"/>
</g>
<mask id="mask5_5707_9981" style="mask-type:luminance" maskUnits="userSpaceOnUse" x="98" y="186" width="149" height="31">
<path fill-rule="evenodd" clip-rule="evenodd" d="M98.7451 186.061H246.494V217H98.7451V186.061Z" fill="white"/>
</mask>
<g mask="url(#mask5_5707_9981)">
<path fill-rule="evenodd" clip-rule="evenodd" d="M115.128 208.699C134.126 191.797 178.891 185.414 188.238 186.112C199.534 186.955 204.242 193.471 212.521 203.032C212.521 203.032 222.103 200.641 227.375 202.693C241.676 208.259 244.862 240.296 246.494 258.197H100.404C92.8674 238.492 113.355 210.277 115.128 208.699" fill="#F4F5F7"/>
</g>
<path fill-rule="evenodd" clip-rule="evenodd" d="M181.652 164.716C182.295 164.798 185.469 163.903 190.823 157.853C195.981 152.024 201.191 143.641 205.493 134.247C209.794 124.854 212.73 115.448 213.761 107.763C214.831 99.7841 213.42 96.8277 212.935 96.4024C212.292 96.326 209.117 97.2148 203.762 103.266C198.604 109.094 193.394 117.477 189.094 126.871C184.793 136.264 181.856 145.67 180.824 153.355C179.754 161.334 181.166 164.291 181.652 164.716M181.669 174.166C180.312 174.166 178.988 173.895 177.711 173.32C173.902 171.607 169.686 166.731 171.24 153.233C172.253 144.427 175.513 133.679 180.417 122.967C189.849 102.373 205.279 82.5838 216.875 87.7979C220.685 89.5113 224.899 94.3877 223.346 107.885C222.332 116.692 219.073 127.44 214.169 138.151C205.776 156.477 192.632 174.166 181.669 174.166" fill="#313D47"/>
<path fill-rule="evenodd" clip-rule="evenodd" d="M176.842 98.299C178.933 97.707 181.456 97.5907 187.128 95.8035C195.717 93.0962 196.638 88.4568 204.2 85.1019C208.275 83.293 213.887 86.9994 213.887 86.9994C209.235 88.6547 204.761 92.1614 204.712 94.281C204.626 97.9188 212.912 96.3729 212.912 96.3729C213.993 97.1324 214.072 100.441 214.072 100.441C212.404 103.977 205.33 108.683 199.377 108.747C186.904 108.88 184.268 113.315 179.659 115.134C179.659 115.134 175.708 113.321 174.708 107.774C173.641 101.852 176.842 98.299 176.842 98.299" fill="#DDB78C"/>
<path fill-rule="evenodd" clip-rule="evenodd" d="M169.031 172.28C170.695 171.867 173.583 170.414 174.233 169.901C178.49 166.538 179.205 163.063 184.609 156.968C185.242 156.254 186.387 155.291 188.109 154.493C190.591 153.344 192.966 153.158 194.309 153.536L192.763 155.547L190.814 158.108C190.806 158.904 191.845 159.247 192.11 159.337C195.692 160.535 200.997 159.392 203.899 155.809C204.713 154.805 205.83 153.529 205.83 153.529C207.811 156.45 206.01 160.944 206.01 160.944C206.482 162.097 206.003 163.54 205.778 164.159C204.919 166.527 202.321 168.897 202.321 168.897C203.025 172.074 201.638 173.845 201.638 173.845C201.521 176.499 200.293 177.474 200.016 177.737C197.632 180.005 193.167 180.27 186.914 180.993C184.353 181.29 175.073 187.775 171.102 189.876L169.031 172.28Z" fill="#DDB78C"/>
<path fill-rule="evenodd" clip-rule="evenodd" d="M36.6632 112.117C40.805 114.002 57.2497 125.99 62.6969 121.014L60.7255 81.9158L34.0652 81.8091C34.0652 81.8091 33.126 84.1987 32.9339 87.8729C32.6325 93.5957 29.9439 99.5076 27.2759 106.005C26.9975 106.685 35.9819 111.807 36.6632 112.117" fill="#DDB78C"/>
<path fill-rule="evenodd" clip-rule="evenodd" d="M61.7646 102.53L61.5101 97.4919C61.5101 97.4919 48.7435 92.1806 44.3926 85.7695C44.3926 85.7695 49.0935 99.8459 61.7646 102.53" fill="#8F695D"/>
<path fill-rule="evenodd" clip-rule="evenodd" d="M31.0967 78.5639C31.0967 78.5639 37.9227 78.5405 40.2049 72.6962C40.2356 72.6155 50.6757 40.4014 62.6714 40.805C76.8861 41.2833 82.6927 45.7127 83.3552 59.0825C83.6361 64.7531 86.3332 67.0655 88.9629 69.9308C89.9942 71.0557 88.8254 73.1033 87.1298 72.7353L85.0662 72.5816C84.6 72.5469 84.1876 72.8716 84.1219 73.3168C83.5891 76.9807 82.7422 80.3824 81.4658 83.3683C78.3614 90.6274 71.7275 99.5999 64.0127 96.7902C44.1511 89.5562 31.0967 78.5639 31.0967 78.5639" fill="#DDB78C"/>
<path fill-rule="evenodd" clip-rule="evenodd" d="M77.9349 65.943C77.4994 66.548 76.7191 66.6418 76.1914 66.1531C75.6646 65.6635 75.5904 64.7773 76.0258 64.1723C76.4604 63.5673 77.2416 63.4736 77.7684 63.9631C78.296 64.4518 78.3703 65.3389 77.9349 65.943" fill="#242C33"/>
<path fill-rule="evenodd" clip-rule="evenodd" d="M69.4533 61.0781C70.7647 60.6207 72.6644 59.6598 74.8117 59.1338C76.334 58.7614 77.7632 58.8317 80.1555 58.4524C82.3216 58.1095 82.5572 55.5489 80.2887 55.4474C78.5154 55.3666 75.9557 55.7503 72.9717 56.8605C70.5325 57.7684 69.0554 58.9419 68.1222 59.5435C66.3558 60.6831 67.5254 61.7499 69.4533 61.0781" fill="#925953"/>
<path fill-rule="evenodd" clip-rule="evenodd" d="M82.2634 81.2893C82.1695 81.5592 81.9782 82.0991 81.8723 82.3647C81.828 82.4758 81.7477 82.6954 81.6666 82.8864C81.5897 83.0661 81.5069 83.2701 81.5069 83.2701C75.8378 83.1312 75.27 78.4553 76.1144 79.0551C79.0361 81.1304 82.2634 81.2893 82.2634 81.2893" fill="white"/>
<path fill-rule="evenodd" clip-rule="evenodd" d="M56.6571 64.3875C56.6392 64.3294 56.6178 64.279 56.6008 64.2191C56.6008 64.2191 51.3508 65.8076 50.6849 68.7457C50.5952 69.1398 50.503 69.5339 50.4091 69.9262C50.3323 71.1223 50.1769 72.308 49.9481 73.4833C49.9677 73.5354 49.972 73.5953 49.9489 73.6578C49.9259 73.7168 49.8627 73.742 49.8046 73.7385C49.7927 73.7376 49.7799 73.7367 49.7688 73.7359C49.7671 73.7359 49.7654 73.7333 49.7637 73.7324C49.7679 73.7784 49.7671 73.8235 49.7517 73.8695C49.7406 73.9121 49.7312 73.9546 49.7201 73.998C49.6945 74.1048 49.668 74.2115 49.6416 74.3183C49.5878 74.5318 49.5323 74.7445 49.4759 74.9572C49.376 75.3295 49.2719 75.701 49.1617 76.0717C48.9184 76.8937 48.6478 77.7087 48.3549 78.5151C48.3088 78.6435 48.1099 78.6062 48.0936 78.4778L48.0313 78.0047C47.689 78.9621 47.3466 79.9195 47.0034 80.8769C46.9632 80.9898 46.7959 80.9759 46.7506 80.8743C46.7344 80.8352 46.7173 80.7962 46.7011 80.758C46.4706 81.2571 46.2956 81.7736 46.1837 82.3161C46.1547 82.4549 45.9882 82.4654 45.9216 82.3482C45.8064 82.1459 45.6911 81.9428 45.5758 81.7397L45.4085 82.7978C45.3914 82.9046 45.2292 82.9653 45.1635 82.8603L44.9304 82.4888C44.8202 82.8455 44.7425 83.2066 44.7212 83.5842C44.7135 83.724 44.5095 83.7335 44.4591 83.6163C44.372 83.4175 44.2644 83.2387 44.1449 83.0651C44.0373 83.3802 43.9306 83.6962 43.823 84.0113C43.7863 84.118 43.6053 84.118 43.5703 84.0087C43.5481 83.9427 43.5276 83.8767 43.5063 83.8099C43.2083 84.3211 42.8813 84.8133 42.509 85.2742C42.4194 85.3862 42.2768 85.3028 42.2683 85.1822C41.9891 85.5077 41.7107 85.8332 41.4324 86.1578C41.3607 86.242 41.248 86.2142 41.1985 86.1248C41.0243 85.8176 40.8066 85.5476 40.5547 85.302C40.3805 85.512 40.2696 85.7464 40.2277 86.0276C40.2055 86.1708 40.0279 86.1726 39.9656 86.0597C39.8452 85.8462 39.6839 85.6796 39.4969 85.5303C39.4269 85.6891 39.3748 85.8488 39.3526 86.0294C39.3415 86.124 39.2091 86.1899 39.1332 86.117C38.8326 85.8315 38.5073 85.5815 38.165 85.3523L38.1163 85.7933C38.1043 85.9148 37.9455 85.9426 37.8721 85.8558C37.7825 85.7481 37.6809 85.6605 37.5741 85.5797C37.5255 85.8106 37.5041 86.0389 37.5306 86.282C37.5468 86.4408 37.3385 86.4851 37.2676 86.3505C37.1012 86.0346 36.8937 85.7499 36.6666 85.4773C36.6316 86.1491 36.5957 86.821 36.5607 87.4928C36.553 87.6386 36.3541 87.6352 36.2977 87.5249C35.9707 86.8783 35.6429 86.2299 35.315 85.5823C35.2834 85.9278 35.2723 86.2741 35.3073 86.6239C35.3219 86.775 35.105 86.8401 35.0452 86.6934C34.7908 86.0736 34.5364 85.4539 34.2811 84.8341C34.2307 85.2074 34.1803 85.5806 34.1291 85.9538C34.1138 86.0728 33.9584 86.1066 33.8849 86.0163C33.4 85.4244 33.0841 84.7317 32.9424 83.993L32.7767 84.4843C32.7315 84.6197 32.5385 84.5685 32.5155 84.447C32.3823 83.7648 32.2738 83.0782 32.1782 82.3898C32.0544 82.6424 31.9503 82.9028 31.8871 83.1823C31.8555 83.3247 31.6344 83.3412 31.6156 83.1806C31.5353 82.5018 31.391 81.8361 31.2066 81.1781C31.1622 81.2927 31.1178 81.4064 31.0734 81.5201C31.0154 81.6677 30.7729 81.5974 30.8139 81.422C30.7601 80.9707 30.7157 80.5974 30.6628 80.1469C28.6598 77.1462 28.0297 73.4633 27.2732 70C27.2058 70.1432 27.1383 70.2864 27.0709 70.4297C27.0145 70.5494 26.8267 70.5304 26.8088 70.3932C26.638 69.0721 26.562 67.7441 26.5688 66.4143C26.5142 66.41 26.4613 66.3744 26.4433 66.3041C26.159 65.206 25.8756 64.108 25.5913 63.01L25.4564 63.3989C25.4128 63.523 25.2002 63.4961 25.1943 63.3624C25.1439 62.2505 25.0927 61.1386 25.0431 60.0267L24.9005 60.3965C24.8544 60.5162 24.6427 60.4963 24.6384 60.36C24.6103 59.5172 24.5829 58.6735 24.5548 57.8306L24.5155 56.6328C24.5078 56.4115 24.5001 56.1893 24.4924 55.9679C24.4924 55.9471 24.4907 55.9254 24.4907 55.9046C24.4668 55.7787 24.4404 55.6528 24.4173 55.5278C24.3439 55.5409 24.2602 55.5087 24.2508 55.4211C24.1782 54.6807 24.1398 53.9385 24.1279 53.1964C23.7736 48.2696 25.0551 43.592 27.2305 39.449C27.5584 37.9942 28.3174 36.5777 28.3387 35.0743C28.3413 34.9562 28.5215 34.918 28.5838 35.0109C28.7656 35.2817 28.8929 35.5717 28.9757 35.8763C29.4154 34.6064 30.235 33.5119 30.8907 32.3418C31.2647 31.6752 31.5951 30.9669 31.7155 30.2074C31.8709 29.23 31.6096 28.2857 31.3287 27.3534C31.2903 27.225 31.4209 27.113 31.5396 27.1955C32.4369 27.8195 33.1413 28.6598 33.6262 29.6259C33.5648 28.3594 32.8792 27.1955 32.2286 26.1235C32.1637 26.0167 32.2551 25.8518 32.3908 25.9169C33.4435 26.4229 34.4023 27.0843 35.2553 27.876C35.2297 27.1 35.006 26.3492 34.5774 25.6912C34.4911 25.5593 34.6388 25.4169 34.7703 25.5029C35.2459 25.8136 35.6565 26.1973 36.0493 26.6009C35.9502 26.2068 35.8504 25.8136 35.7564 25.4178C35.6933 25.1574 35.6429 24.7494 36.0348 24.7477C36.1842 24.746 36.3165 24.8354 36.4335 24.9178C36.67 25.0862 36.8928 25.2789 37.1208 25.4577C37.5212 25.7728 37.9225 26.087 38.3221 26.4021C38.2828 25.4117 37.7534 24.5159 37.2412 23.6835C37.172 23.5716 37.2685 23.4231 37.4034 23.4769C38.8249 24.042 39.9895 25.0984 40.7024 26.436C40.9176 25.9108 40.9927 25.3605 40.9048 24.7859C40.88 24.6262 41.0986 24.5854 41.1669 24.7173C41.4469 25.2563 41.5699 25.8396 41.5545 26.436C42.3485 25.6608 43.233 24.9933 44.2081 24.4517C44.325 24.3866 44.4633 24.568 44.3686 24.6618C44.1944 24.8354 44.0604 25.0307 43.9425 25.2372C45.0678 24.8076 46.2102 24.4248 47.3722 24.1062C47.4917 24.0741 47.6326 24.2026 47.5327 24.3163C47.1434 24.7642 46.8958 25.2841 46.7797 25.8553C47.3158 25.5975 47.8751 25.4048 48.4608 25.2824C48.576 25.2581 48.6307 25.3822 48.6059 25.4716C48.512 25.8084 48.5018 26.146 48.5598 26.4837C49.534 25.7771 50.7438 25.4126 51.8879 25.0749C51.9451 25.0576 52.0065 25.0749 52.0484 25.1183C53.0917 26.2025 54.4014 26.9993 55.8383 27.4446C55.8716 27.396 55.8418 27.4394 55.875 27.3908L53.7799 24.7121C53.7013 24.6114 53.82 24.4343 53.9429 24.5055C55.3995 25.3475 56.9064 26.1009 58.4501 26.7727L57.6381 23.3181C58.4612 24.1913 59.5848 24.1236 60.4402 24.9656L63.7888 26.0532C63.034 25.2112 62.3826 24.2894 61.8516 23.2912C61.7798 23.1575 61.96 23.0698 62.0624 23.1332C64.6204 24.719 66.4782 27.5973 69.4315 28.5027C68.3787 27.4559 67.4823 26.2719 66.7805 24.9638C66.7087 24.8293 66.8897 24.7434 66.9913 24.805C68.4052 25.6704 69.8182 26.5349 71.2312 27.4003C70.1708 26.2571 69.177 25.0402 68.6392 23.5646C68.6016 23.4604 68.7066 23.3302 68.8202 23.3884C71.3764 24.6887 73.849 26.1469 76.231 27.7423C75.1407 26.291 74.1802 24.7494 73.3768 23.1245C73.3119 22.9935 73.4827 22.8962 73.5877 22.9666C76.2874 24.7815 78.8291 26.817 81.1983 29.0408C80.6144 26.6321 79.2381 24.4491 77.2923 22.885C77.1659 22.7834 77.2837 22.5881 77.4314 22.6532C79.571 23.6063 81.5603 24.8605 83.3448 26.3726C83.8553 25.6469 83.32 24.5081 83.0493 23.7773C82.7138 22.8737 82.3125 21.9961 81.8558 21.1455C81.7781 21.0014 81.9941 20.9016 82.0905 21.0118C84.1448 23.3615 85.5603 26.1669 86.596 29.0816C87.1168 30.5459 87.5462 32.0398 87.9304 33.544C88.3488 35.1811 88.7672 36.8363 88.9934 38.5107C89.1053 39.3388 89.1539 40.1799 89.107 41.0105C89.0634 46.7741 86.2613 51.9291 77.9932 50.1454C74.2912 49.3468 71.5454 48.9883 68.7851 50.9908C65.2949 53.5236 62.5517 59.5406 61.8959 62.6567" fill="#925953"/>
<path fill-rule="evenodd" clip-rule="evenodd" d="M48.19 65.5183C48.5818 68.6605 50.3364 71.0318 53.6106 70.6499C56.5451 70.3088 58.9451 67.9912 58.9323 64.8222C58.9186 61.6522 56.5161 59.1732 53.5645 59.1724C48.2122 59.1715 47.8143 62.4951 48.19 65.5183" fill="#DDB78C"/>
<path fill-rule="evenodd" clip-rule="evenodd" d="M52.281 62.5185C52.3562 62.3718 52.5799 62.265 52.7378 62.357C53.5259 62.817 54.1807 63.4168 54.5871 64.2189C55.0234 65.0808 55.0866 66.0625 55.0097 67.0095C54.9764 67.4305 54.3019 67.3159 54.3361 66.8984C54.389 66.2378 54.3438 65.566 54.1346 64.9384H54.1184C54.074 64.9393 54.0287 64.9419 53.9835 64.9445C53.8947 64.9497 53.805 64.9601 53.7171 64.9758C53.694 64.9792 53.6718 64.9836 53.6488 64.9888C53.6129 64.9983 53.5771 65.0079 53.5421 65.0183C53.4661 65.0417 53.3944 65.073 53.3209 65.1034C53.3133 65.1068 53.3175 65.1042 53.315 65.106C53.3064 65.1103 53.2979 65.1146 53.2902 65.1198C53.2654 65.1337 53.2424 65.1476 53.2193 65.1632C53.1715 65.1936 53.1288 65.2283 53.0844 65.2622C53.0785 65.2691 53.0708 65.2761 53.064 65.283C53.0443 65.3039 53.0238 65.3247 53.005 65.3464C52.9888 65.3655 52.9735 65.3846 52.9581 65.4037C52.947 65.4184 52.9427 65.4263 52.9393 65.4323C52.9154 65.4723 52.8906 65.5122 52.8701 65.5547C52.8599 65.579 52.8488 65.6051 52.8386 65.6294C52.8368 65.6337 52.8351 65.6372 52.8343 65.6406C52.824 65.6919 52.807 65.7413 52.7976 65.7934C52.7942 65.8186 52.7796 65.8741 52.7805 65.9132C52.7814 65.9123 52.7814 65.9037 52.7822 65.9184V65.9583C52.7822 65.9861 52.7839 66.013 52.7856 66.0408C52.789 66.0885 52.795 66.1363 52.8018 66.184C52.8035 66.1953 52.8146 66.2396 52.8164 66.2526C52.8198 66.263 52.8232 66.2752 52.8249 66.2795C52.8394 66.3307 52.8573 66.3793 52.8761 66.4279C52.8966 66.4774 52.9231 66.5225 52.9436 66.5711C52.9077 66.4878 52.941 66.5651 52.9555 66.5876C52.9692 66.6093 52.982 66.6302 52.9965 66.651C53.0289 66.6979 53.064 66.743 53.1015 66.7864C53.1169 66.8055 53.1357 66.8229 53.1527 66.842C53.0896 66.7717 53.1536 66.842 53.1707 66.8576C53.303 66.98 53.338 67.1735 53.2117 67.3194C53.0981 67.4487 52.8608 67.4878 52.7284 67.3645C52.4902 67.1458 52.3032 66.8784 52.1999 66.5755C52.0172 66.0408 52.0804 65.4427 52.4407 64.9792C52.7796 64.5426 53.3073 64.3577 53.8477 64.3057C53.5165 63.7441 53.0161 63.2884 52.4433 62.9533C52.287 62.8622 52.1922 62.6947 52.281 62.5185" fill="#8F695D"/>
<mask id="mask6_5707_9981" style="mask-type:luminance" maskUnits="userSpaceOnUse" x="14" y="98" width="169" height="119">
<path fill-rule="evenodd" clip-rule="evenodd" d="M14.6162 98.2988H182.817V217H14.6162V98.2988Z" fill="white"/>
</mask>
<g mask="url(#mask6_5707_9981)">
<path fill-rule="evenodd" clip-rule="evenodd" d="M28.03 99.7267C28.03 99.7267 26.0185 102.834 24.2213 107.774C20.3741 118.35 16.9889 129.898 15.7611 137.891C12.5714 158.641 17.0589 182.939 17.0589 182.939C22.9893 226.037 22.4856 244.611 35.8302 258.197H100.404C115.383 246.134 117.091 223.334 117.091 223.334C136.041 217.878 177.354 194.571 177.354 194.571C172.404 188.311 169.031 172.28 169.031 172.28C150.465 177.631 132.157 189.03 103.092 196.264C103.092 196.264 92.8674 182.183 87.8873 146.721C87.8873 146.721 130.749 141.698 182.817 117.249C182.817 117.249 175.092 108.451 176.841 98.2988C176.841 98.2988 124.603 114.415 72.94 110.481C72.94 110.481 66.7296 106.421 61.9245 105.703L62.2481 112.129C62.2481 112.129 48.3809 103.713 28.03 99.7267" fill="#326B00"/>
</g>
<mask id="mask7_5707_9981" style="mask-type:luminance" maskUnits="userSpaceOnUse" x="28" y="130" width="89" height="87">
<path fill-rule="evenodd" clip-rule="evenodd" d="M28.6338 130.734H116.961V217H28.6338V130.734Z" fill="white"/>
</mask>
<g mask="url(#mask7_5707_9981)">
<path fill-rule="evenodd" clip-rule="evenodd" d="M32.244 130.817C26.9872 139.363 28.3473 150.055 30.8233 159.293C33.6553 169.853 37.8141 180.033 42.6405 189.808C45.09 194.771 47.7222 199.639 50.4766 204.434C53.1438 209.076 55.7769 213.859 58.9922 218.14C61.9993 222.144 65.7354 225.229 70.3962 227.041C75.4361 229 80.9405 229.437 86.2954 229.482C91.1578 229.522 96.0457 229.102 100.811 228.104C104.897 227.249 108.889 225.989 112.891 224.805C114.206 224.417 115.521 224.031 116.838 223.652C117.053 223.591 116.962 223.251 116.747 223.313C112.399 224.565 108.083 225.952 103.699 227.07C99.5718 228.122 95.3755 228.762 91.1262 229.009C80.6784 229.617 68.9106 228.721 61.3675 220.476C57.884 216.667 55.3286 212.018 52.7152 207.585C49.9728 202.935 47.3338 198.22 44.8544 193.421C39.9058 183.84 35.5831 173.899 32.4173 163.563C29.5887 154.325 27.064 143.656 30.8549 134.309C31.3227 133.156 31.8939 132.052 32.5445 130.995C32.6623 130.802 32.3626 130.625 32.244 130.817" fill="#B3856A"/>
</g>
<path fill-rule="evenodd" clip-rule="evenodd" d="M55.3347 131.782C60.3968 133.374 64.834 136.723 67.6958 141.252C69.2583 143.726 70.3759 146.448 71.4704 149.159C72.6717 152.126 73.879 155.092 75.0973 158.052C77.4802 163.836 79.9033 169.603 82.3656 175.353C83.6027 178.244 84.839 181.137 86.1112 184.013C87.2339 186.554 88.4736 189.064 90.0966 191.321C91.7077 193.562 93.7235 195.731 96.3831 196.636C98.55 197.373 100.82 197.07 102.979 196.465C103.194 196.404 103.102 196.065 102.886 196.125C100.817 196.706 98.6541 197.008 96.5675 196.328C93.919 195.464 91.9049 193.265 90.3229 191.041C88.7126 188.774 87.4789 186.263 86.3596 183.72C85.1088 180.88 83.8862 178.028 82.6653 175.175C80.1586 169.322 77.6928 163.449 75.2689 157.558C74.0711 154.652 72.8886 151.739 71.7086 148.824C70.6815 146.288 69.6297 143.742 68.1996 141.404C65.2848 136.637 60.7102 133.103 55.4269 131.443C55.2135 131.375 55.1221 131.715 55.3347 131.782" fill="#B3856A"/>
<path fill-rule="evenodd" clip-rule="evenodd" d="M153.111 178.79C153.368 183.147 154.869 187.361 156.462 191.379C157.977 195.199 159.851 198.883 162.484 202.045C162.628 202.217 162.874 201.967 162.73 201.796C160.083 198.619 158.212 194.893 156.703 191.047C155.166 187.131 153.708 183.031 153.458 178.79C153.445 178.565 153.097 178.564 153.111 178.79" fill="#B3856A"/>
<path fill-rule="evenodd" clip-rule="evenodd" d="M95.8231 196.31C91.7361 201.584 89.6229 208.032 88.4097 214.549C88.3687 214.77 88.7034 214.865 88.7453 214.642C89.9457 208.192 92.0221 201.781 96.0682 196.559C96.2048 196.382 95.9606 196.132 95.8231 196.31" fill="#B3856A"/>
<path fill-rule="evenodd" clip-rule="evenodd" d="M95.1627 195.866C90.2304 197.155 85.8957 200.425 83.3378 204.894C83.2268 205.09 83.5256 205.267 83.6383 205.071C86.1519 200.678 90.4071 197.473 95.2541 196.206C95.4709 196.149 95.3796 195.81 95.1627 195.866" fill="#B3856A"/>
<path fill-rule="evenodd" clip-rule="evenodd" d="M64.8367 108.797C73.3831 116.728 80.9135 126.325 85.0928 137.369C86.2181 140.344 87.077 143.416 87.6371 146.553C87.6764 146.775 88.0119 146.681 87.9718 146.46C85.9432 135.093 79.9385 124.879 72.5217 116.262C70.1883 113.55 67.7003 110.978 65.0826 108.548C64.9179 108.396 64.672 108.643 64.8367 108.797" fill="#B3856A"/>
<path fill-rule="evenodd" clip-rule="evenodd" d="M165.108 101.721C164.342 108.947 166.642 116.291 171.295 121.812C171.44 121.984 171.685 121.735 171.54 121.562C166.944 116.111 164.699 108.853 165.455 101.721C165.48 101.496 165.132 101.498 165.108 101.721" fill="#B3856A"/>
<path fill-rule="evenodd" clip-rule="evenodd" d="M23.5364 111.069C33.8117 115.107 44.2654 118.878 55.1341 120.91C58.1693 121.477 61.2302 121.901 64.3064 122.167C64.4293 122.177 64.4908 122.046 64.4737 121.944C63.9435 118.675 63.3493 115.418 62.6901 112.173L62.4007 112.344C64.437 114.048 66.031 116.192 67.0701 118.653C67.146 118.833 67.3783 118.715 67.3936 118.565C67.8999 113.722 65.0252 109.574 62.3486 105.861C62.2188 105.681 61.9175 105.856 62.0489 106.039C64.6906 109.704 67.5465 113.782 67.047 118.565C67.1546 118.536 67.2622 118.505 67.3706 118.476C66.3204 115.99 64.7034 113.817 62.6457 112.096C62.5117 111.984 62.3196 112.088 62.3555 112.267C63.0137 115.512 63.6097 118.768 64.1399 122.038C64.1945 121.963 64.2509 121.89 64.3064 121.815C53.3036 120.866 42.6296 117.774 32.2715 114.014C29.3754 112.963 26.4982 111.857 23.6286 110.73C23.4203 110.648 23.3306 110.988 23.5364 111.069" fill="#B3856A"/>
<path fill-rule="evenodd" clip-rule="evenodd" d="M169.031 194.085C169.031 195.241 168.086 196.179 166.918 196.179C165.752 196.179 164.806 195.241 164.806 194.085C164.806 192.928 165.752 191.992 166.918 191.992C168.086 191.992 169.031 192.928 169.031 194.085" fill="#B3856A"/>
<path fill-rule="evenodd" clip-rule="evenodd" d="M88.2095 146.379C89.5747 142.05 88.7705 137.486 87.9534 133.133C87.9116 132.91 87.5777 133.005 87.6187 133.227C88.4247 137.52 89.2213 142.015 87.874 146.286C87.8057 146.502 88.1412 146.594 88.2095 146.379" fill="#B3856A"/>
<path fill-rule="evenodd" clip-rule="evenodd" d="M42.1134 118.038C41.4901 121.814 41.3544 125.648 41.7207 129.458C41.742 129.681 42.0895 129.684 42.0673 129.458C41.7044 125.681 41.8299 121.876 42.4489 118.132C42.4848 117.911 42.1501 117.815 42.1134 118.038" fill="#B3856A"/>
<path fill-rule="evenodd" clip-rule="evenodd" d="M62.4713 112.372C67.1458 123.626 74.2962 133.521 80.499 143.919C82.0836 146.573 83.6324 149.26 84.9207 152.077C86.2629 155.012 87.261 158.089 88.0559 161.219C88.8336 164.284 89.4236 167.393 89.9948 170.502C90.5344 173.437 90.9835 176.396 91.9218 179.234C94.0144 185.567 97.6311 191.31 101.426 196.722C101.554 196.906 101.856 196.73 101.726 196.544C98.2774 191.627 95.0065 186.459 92.8524 180.812C91.7929 178.034 91.2063 175.193 90.6719 172.276C90.1092 169.209 89.5611 166.137 88.8652 163.097C88.1728 160.07 87.3318 157.07 86.192 154.182C85.0591 151.308 83.6145 148.581 82.0742 145.912C79.0484 140.668 75.7272 135.605 72.5391 130.462C68.9165 124.619 65.4519 118.648 62.806 112.279C62.7206 112.073 62.3842 112.164 62.4713 112.372" fill="#B3856A"/>
<path fill-rule="evenodd" clip-rule="evenodd" d="M192.421 93.5028C191.949 93.8518 191.688 94.3491 191.44 94.8725C191.128 95.5288 190.823 96.191 190.578 96.8759C190.104 98.2013 189.882 99.6387 190.28 101.014C190.343 101.231 190.678 101.139 190.615 100.92C190.247 99.6491 190.443 98.3307 190.868 97.0998C191.087 96.4619 191.365 95.8464 191.651 95.2371C191.895 94.7198 192.124 94.1547 192.596 93.8066C192.775 93.6747 192.602 93.3692 192.421 93.5028" fill="#8F695D"/>
<path fill-rule="evenodd" clip-rule="evenodd" d="M192.133 107.526C192.855 108.086 193.632 108.569 194.452 108.968C194.653 109.065 194.829 108.762 194.627 108.664C193.808 108.265 193.031 107.783 192.308 107.223C192.233 107.164 192.115 107.211 192.071 107.286C192.018 107.375 192.059 107.469 192.133 107.526" fill="#8F695D"/>
<path fill-rule="evenodd" clip-rule="evenodd" d="M190.451 158.1C189.985 158.586 189.653 159.171 189.329 159.757C188.974 160.398 188.633 161.048 188.306 161.703C188.205 161.905 188.505 162.084 188.605 161.881C188.923 161.245 189.252 160.616 189.596 159.995C189.915 159.416 190.236 158.829 190.696 158.349C190.852 158.187 190.607 157.938 190.451 158.1" fill="#8F695D"/>
<path fill-rule="evenodd" clip-rule="evenodd" d="M194.098 164.676C194.842 165.211 195.823 165.093 196.669 164.914C197.78 164.68 198.857 164.243 199.923 163.855C201.997 163.099 204.042 162.251 205.935 161.096C206.126 160.979 205.952 160.675 205.759 160.791C204.015 161.858 202.14 162.661 200.23 163.369C199.297 163.715 198.359 164.07 197.406 164.357C196.456 164.644 195.157 165.01 194.273 164.372C194.09 164.241 193.917 164.546 194.098 164.676" fill="#8F695D"/>
<path fill-rule="evenodd" clip-rule="evenodd" d="M193.789 170.619C194.13 171.093 194.766 171.09 195.295 171.063C196.034 171.025 196.755 170.828 197.461 170.613C199.035 170.133 200.592 169.597 202.149 169.064C202.36 168.992 202.27 168.652 202.057 168.725C200.749 169.172 199.441 169.62 198.125 170.038C197.478 170.243 196.831 170.457 196.165 170.594C195.663 170.697 194.46 170.959 194.089 170.441C193.958 170.261 193.658 170.436 193.789 170.619" fill="#8F695D"/>
<path fill-rule="evenodd" clip-rule="evenodd" d="M194.122 176.097C196.73 176.159 199.158 175.105 201.5 174.061C201.704 173.971 201.528 173.668 201.325 173.759C199.041 174.777 196.666 175.806 194.122 175.746C193.898 175.74 193.898 176.092 194.122 176.097" fill="#8F695D"/>
<path fill-rule="evenodd" clip-rule="evenodd" d="M186.167 180.76C183.966 178.804 182.391 176.207 181.694 173.326C181.64 173.106 181.306 173.199 181.359 173.418C182.069 176.355 183.679 179.016 185.921 181.009C186.088 181.158 186.335 180.91 186.167 180.76" fill="#8F695D"/>
<mask id="mask8_5707_9981" style="mask-type:luminance" maskUnits="userSpaceOnUse" x="125" y="202" width="87" height="15">
<path fill-rule="evenodd" clip-rule="evenodd" d="M125.223 202.977H211.852V217H125.223V202.977Z" fill="white"/>
</mask>
<g mask="url(#mask8_5707_9981)">
<path fill-rule="evenodd" clip-rule="evenodd" d="M125.388 221.397C136.758 220.032 148.135 218.663 159.432 216.761C170.792 214.849 182.033 212.345 193.034 208.889C199.238 206.94 205.401 204.833 211.728 203.321C211.946 203.268 211.854 202.93 211.637 202.982C206.033 204.321 200.556 206.125 195.068 207.876C189.595 209.622 184.085 211.219 178.501 212.562C167.357 215.242 156.036 217.088 144.69 218.627C138.264 219.498 131.826 220.273 125.388 221.047C125.169 221.073 125.166 221.424 125.388 221.397" fill="#D6D6D6"/>
</g>
<mask id="mask9_5707_9981" style="mask-type:luminance" maskUnits="userSpaceOnUse" x="0" y="97" width="107" height="121">
<path fill-rule="evenodd" clip-rule="evenodd" d="M0 97.2627H106.934V217H0V97.2627Z" fill="white"/>
</mask>
<g mask="url(#mask9_5707_9981)">
<path fill-rule="evenodd" clip-rule="evenodd" d="M-34.917 97.2635C-30.327 97.2635 -4.07568 97.1759 -0.618706 98.8068C13.4619 105.449 18.2628 126.502 18.2628 126.502C14.8101 139.756 14.6564 157.943 14.6564 157.943C32.0036 190.356 49.5728 219.64 65.1928 232.302C86.2958 249.408 96.5618 253.875 106.934 258.197H-34.917V97.2635Z" fill="#A2A6AB"/>
</g>
<path fill-rule="evenodd" clip-rule="evenodd" d="M220.453 122.138C221.113 119.673 221.959 117.274 222.38 114.749C222.768 112.434 223.558 110.051 223.461 107.688C223.453 107.462 223.105 107.462 223.115 107.688C223.168 109.006 222.895 110.275 222.62 111.554C222.382 112.668 222.193 113.791 222.004 114.914C221.593 117.347 220.755 119.667 220.117 122.044C220.059 122.263 220.394 122.356 220.453 122.138" fill="#302C3C"/>
<path fill-rule="evenodd" clip-rule="evenodd" d="M203.543 133.381C202.226 136.891 198.285 138.679 194.742 137.372C191.201 136.066 189.398 132.161 190.716 128.651C192.033 125.14 195.973 123.352 199.515 124.658C203.058 125.964 204.861 129.869 203.543 133.381" fill="#313D47"/>
<path fill-rule="evenodd" clip-rule="evenodd" d="M177.354 194.571C178.25 193.006 176.384 186.713 176.384 186.713C175.57 187.22 173.886 188.26 173.886 188.26C175.519 192.615 177.354 194.571 177.354 194.571" fill="#B3856A"/>
<path fill-rule="evenodd" clip-rule="evenodd" d="M34.7083 121.949C34.2908 121.79 34.0424 121.426 34.1551 121.134C34.2661 120.842 34.6964 120.734 35.1156 120.891C35.5339 121.05 35.7824 121.414 35.6697 121.707C35.557 121.998 35.1267 122.107 34.7083 121.949" fill="#F2E8DB"/>
<path fill-rule="evenodd" clip-rule="evenodd" d="M23.4753 128.705C23.2798 129.104 22.8922 129.318 22.6087 129.182C22.3244 129.047 22.2527 128.612 22.4474 128.213C22.642 127.812 23.0305 127.599 23.3148 127.735C23.5983 127.871 23.6708 128.305 23.4753 128.705" fill="#F2E8DB"/>
<path fill-rule="evenodd" clip-rule="evenodd" d="M56.508 126.65C56.0897 126.491 55.8412 126.126 55.9539 125.836C56.0649 125.543 56.4952 125.435 56.9144 125.593C57.3328 125.751 57.5812 126.115 57.4685 126.408C57.3567 126.699 56.9264 126.808 56.508 126.65" fill="#F2E8DB"/>
<path fill-rule="evenodd" clip-rule="evenodd" d="M70.076 134.24C69.8515 133.856 69.8916 133.418 70.1648 133.261C70.4381 133.104 70.841 133.289 71.0647 133.675C71.2884 134.058 71.2492 134.497 70.9759 134.654C70.7027 134.809 70.2997 134.624 70.076 134.24" fill="#F2E8DB"/>
<path fill-rule="evenodd" clip-rule="evenodd" d="M73.1829 123.159C72.908 122.809 72.8849 122.37 73.1334 122.178C73.3827 121.985 73.807 122.113 74.0836 122.463C74.3586 122.814 74.3799 123.252 74.1315 123.445C73.883 123.637 73.4587 123.509 73.1829 123.159" fill="#F2E8DB"/>
<path fill-rule="evenodd" clip-rule="evenodd" d="M80.9174 138.265C80.7894 137.839 80.9302 137.422 81.2325 137.332C81.5347 137.243 81.8831 137.516 82.0111 137.941C82.14 138.365 81.9992 138.784 81.6961 138.872C81.3947 138.963 81.0455 138.69 80.9174 138.265" fill="#F2E8DB"/>
<path fill-rule="evenodd" clip-rule="evenodd" d="M93.7663 120.332C93.3189 120.332 92.9561 120.078 92.9561 119.767C92.9561 119.453 93.3189 119.2 93.7663 119.2C94.2137 119.2 94.5774 119.453 94.5774 119.767C94.5774 120.078 94.2137 120.332 93.7663 120.332" fill="#F2E8DB"/>
<path fill-rule="evenodd" clip-rule="evenodd" d="M78.8195 115.824C78.3747 115.774 78.0417 115.483 78.0767 115.172C78.1117 114.862 78.5002 114.649 78.945 114.699C79.3907 114.748 79.7237 115.04 79.6887 115.35C79.6537 115.661 79.2644 115.873 78.8195 115.824" fill="#F2E8DB"/>
<path fill-rule="evenodd" clip-rule="evenodd" d="M112.012 131.126C111.565 131.126 111.202 130.872 111.202 130.56C111.202 130.246 111.565 129.994 112.012 129.994C112.46 129.994 112.823 130.246 112.823 130.56C112.823 130.872 112.46 131.126 112.012 131.126" fill="#F2E8DB"/>
<path fill-rule="evenodd" clip-rule="evenodd" d="M124.98 120.821C124.546 120.933 124.131 120.776 124.052 120.475C123.973 120.172 124.261 119.836 124.695 119.725C125.129 119.614 125.544 119.769 125.623 120.072C125.702 120.374 125.414 120.71 124.98 120.821" fill="#F2E8DB"/>
<path fill-rule="evenodd" clip-rule="evenodd" d="M94.5621 142.867C94.1147 142.867 93.751 142.613 93.751 142.301C93.751 141.988 94.1147 141.735 94.5621 141.735C95.0095 141.735 95.3723 141.988 95.3723 142.301C95.3723 142.613 95.0095 142.867 94.5621 142.867" fill="#F2E8DB"/>
<path fill-rule="evenodd" clip-rule="evenodd" d="M140.024 131.417C139.59 131.528 139.175 131.373 139.096 131.071C139.017 130.768 139.305 130.432 139.739 130.321C140.173 130.211 140.587 130.366 140.666 130.668C140.745 130.97 140.458 131.306 140.024 131.417" fill="#F2E8DB"/>
<path fill-rule="evenodd" clip-rule="evenodd" d="M112.429 112.124C111.983 112.15 111.605 111.919 111.587 111.606C111.568 111.295 111.915 111.021 112.363 110.995C112.809 110.969 113.188 111.202 113.205 111.513C113.224 111.825 112.876 112.099 112.429 112.124" fill="#F2E8DB"/>
<path fill-rule="evenodd" clip-rule="evenodd" d="M131.766 110.577C131.321 110.63 130.93 110.421 130.894 110.111C130.856 109.801 131.186 109.507 131.63 109.454C132.075 109.402 132.465 109.611 132.503 109.92C132.54 110.231 132.211 110.525 131.766 110.577" fill="#F2E8DB"/>
<path fill-rule="evenodd" clip-rule="evenodd" d="M145.359 119.404C144.926 119.515 144.511 119.36 144.432 119.058C144.353 118.755 144.64 118.42 145.074 118.309C145.508 118.198 145.923 118.353 146.002 118.656C146.081 118.958 145.794 119.293 145.359 119.404" fill="#F2E8DB"/>
<path fill-rule="evenodd" clip-rule="evenodd" d="M124.056 138.693C123.622 138.804 123.208 138.648 123.128 138.346C123.05 138.043 123.337 137.707 123.771 137.596C124.205 137.485 124.62 137.641 124.699 137.944C124.778 138.246 124.49 138.582 124.056 138.693" fill="#F2E8DB"/>
<path fill-rule="evenodd" clip-rule="evenodd" d="M161.335 124.528C160.948 124.75 160.505 124.711 160.348 124.44C160.19 124.17 160.376 123.77 160.765 123.548C161.152 123.326 161.595 123.365 161.752 123.637C161.91 123.907 161.723 124.306 161.335 124.528" fill="#F2E8DB"/>
<path fill-rule="evenodd" clip-rule="evenodd" d="M155.609 108.529C155.164 108.563 154.781 108.337 154.758 108.025C154.734 107.714 155.076 107.434 155.522 107.4C155.97 107.366 156.35 107.592 156.374 107.904C156.399 108.215 156.056 108.495 155.609 108.529" fill="#F2E8DB"/>
<path fill-rule="evenodd" clip-rule="evenodd" d="M52.3366 138.792C52.4493 139.221 52.2922 139.633 51.9874 139.711C51.6818 139.789 51.3437 139.503 51.2318 139.074C51.1191 138.644 51.2762 138.233 51.581 138.155C51.8867 138.076 52.2248 138.362 52.3366 138.792" fill="#F2E8DB"/>
<path fill-rule="evenodd" clip-rule="evenodd" d="M38.5167 153.992C38.6286 154.422 38.4723 154.834 38.1667 154.912C37.861 154.989 37.5238 154.705 37.4111 154.275C37.2992 153.845 37.4563 153.433 37.7611 153.356C38.0668 153.278 38.4049 153.562 38.5167 153.992" fill="#F2E8DB"/>
<path fill-rule="evenodd" clip-rule="evenodd" d="M70.1413 157.333C70.254 157.763 70.0969 158.175 69.7921 158.253C69.4865 158.331 69.1484 158.046 69.0365 157.616C68.9238 157.187 69.0809 156.775 69.3857 156.697C69.6914 156.619 70.0295 156.904 70.1413 157.333" fill="#F2E8DB"/>
<path fill-rule="evenodd" clip-rule="evenodd" d="M65.378 176.441C65.4899 176.871 65.3328 177.283 65.028 177.361C64.7223 177.438 64.3851 177.154 64.2724 176.724C64.1605 176.294 64.3176 175.882 64.6224 175.805C64.9281 175.727 65.2662 176.011 65.378 176.441" fill="#F2E8DB"/>
<path fill-rule="evenodd" clip-rule="evenodd" d="M64.2466 199.755C64.4711 200.14 64.431 200.578 64.1578 200.734C63.8846 200.892 63.4816 200.706 63.2587 200.321C63.0342 199.937 63.0743 199.498 63.3467 199.342C63.6207 199.187 64.0229 199.372 64.2466 199.755" fill="#F2E8DB"/>
<path fill-rule="evenodd" clip-rule="evenodd" d="M25.3663 154.08C25.3919 154.523 25.1589 154.896 24.8438 154.915C24.5296 154.933 24.2521 154.589 24.2265 154.145C24.2009 153.702 24.4349 153.328 24.7499 153.31C25.0641 153.292 25.3407 153.637 25.3663 154.08" fill="#F2E8DB"/>
<path fill-rule="evenodd" clip-rule="evenodd" d="M32.1339 177.879C32.338 178.274 32.2774 178.71 31.9973 178.853C31.7173 178.996 31.3237 178.792 31.1188 178.398C30.913 178.003 30.9745 177.567 31.2554 177.424C31.5354 177.281 31.929 177.485 32.1339 177.879" fill="#F2E8DB"/>
<path fill-rule="evenodd" clip-rule="evenodd" d="M83.1319 184.758C83.2438 185.187 83.0867 185.599 82.7819 185.678C82.4762 185.756 82.1381 185.47 82.0263 185.041C81.9144 184.611 82.0715 184.199 82.3763 184.121C82.682 184.043 83.0192 184.328 83.1319 184.758" fill="#F2E8DB"/>
<path fill-rule="evenodd" clip-rule="evenodd" d="M45.8146 184.236C45.9273 184.665 45.7702 185.078 45.4654 185.156C45.1597 185.234 44.8216 184.948 44.7089 184.519C44.5971 184.089 44.7542 183.677 45.059 183.599C45.3646 183.521 45.7027 183.806 45.8146 184.236" fill="#F2E8DB"/>
<path fill-rule="evenodd" clip-rule="evenodd" d="M115.84 205.965C116.272 205.847 116.69 205.995 116.774 206.298C116.856 206.598 116.575 206.938 116.143 207.056C115.711 207.174 115.293 207.025 115.21 206.724C115.126 206.422 115.408 206.082 115.84 205.965" fill="#F2E8DB"/>
<path fill-rule="evenodd" clip-rule="evenodd" d="M130.832 191.297C131.263 191.18 131.682 191.328 131.765 191.63C131.848 191.931 131.566 192.271 131.134 192.388C130.703 192.506 130.285 192.358 130.201 192.056C130.118 191.755 130.4 191.415 130.832 191.297" fill="#F2E8DB"/>
<path fill-rule="evenodd" clip-rule="evenodd" d="M148.517 202.457C148.904 202.235 149.347 202.274 149.504 202.545C149.662 202.815 149.476 203.215 149.087 203.437C148.699 203.659 148.257 203.619 148.1 203.348C147.942 203.078 148.129 202.679 148.517 202.457" fill="#F2E8DB"/>
<path fill-rule="evenodd" clip-rule="evenodd" d="M104.421 198.854C104.868 198.854 105.232 199.107 105.232 199.419C105.232 199.732 104.868 199.986 104.421 199.986C103.973 199.986 103.61 199.732 103.61 199.419C103.61 199.107 103.973 198.854 104.421 198.854" fill="#F2E8DB"/>
<path fill-rule="evenodd" clip-rule="evenodd" d="M133.621 212.262C134.009 212.04 134.452 212.08 134.609 212.351C134.767 212.621 134.58 213.02 134.192 213.242C133.805 213.465 133.362 213.425 133.205 213.154C133.047 212.884 133.234 212.485 133.621 212.262" fill="#F2E8DB"/>
<path fill-rule="evenodd" clip-rule="evenodd" d="M150.064 182.136C150.466 181.939 150.904 182.008 151.043 182.288C151.183 182.568 150.97 182.954 150.569 183.15C150.167 183.347 149.728 183.278 149.589 182.998C149.449 182.718 149.662 182.332 150.064 182.136" fill="#F2E8DB"/>
<path fill-rule="evenodd" clip-rule="evenodd" d="M47.9065 111.794C48.2233 112.108 48.2992 112.541 48.0756 112.763C47.8536 112.983 47.4156 112.909 47.0997 112.594C46.7829 112.281 46.7069 111.848 46.9289 111.627C47.1518 111.405 47.5897 111.481 47.9065 111.794" fill="#F2E8DB"/>
<path fill-rule="evenodd" clip-rule="evenodd" d="M31.6829 103.403C31.9996 103.717 32.0756 104.151 31.8528 104.371C31.6299 104.592 31.1928 104.517 30.876 104.203C30.5593 103.889 30.4833 103.456 30.7053 103.235C30.929 103.014 31.3661 103.089 31.6829 103.403" fill="#F2E8DB"/>
<path fill-rule="evenodd" clip-rule="evenodd" d="M54.4683 164.471C54.5802 164.901 54.4231 165.313 54.1183 165.391C53.8126 165.469 53.4745 165.184 53.3627 164.754C53.25 164.325 53.4071 163.912 53.7119 163.835C54.0175 163.757 54.3556 164.042 54.4683 164.471" fill="#F2E8DB"/>
<path fill-rule="evenodd" clip-rule="evenodd" d="M173.172 111.024C172.725 111.058 172.343 110.833 172.319 110.521C172.296 110.21 172.639 109.93 173.084 109.896C173.532 109.862 173.913 110.088 173.937 110.399C173.961 110.711 173.618 110.99 173.172 111.024" fill="#F2E8DB"/>
<path fill-rule="evenodd" clip-rule="evenodd" d="M168.769 184.579C168.36 184.757 167.924 184.669 167.797 184.382C167.671 184.096 167.901 183.72 168.312 183.542C168.722 183.364 169.157 183.451 169.283 183.738C169.41 184.023 169.179 184.4 168.769 184.579" fill="#F2E8DB"/>
<path fill-rule="evenodd" clip-rule="evenodd" d="M206.91 163.409C207.892 166.286 208.882 169.181 210.305 171.872C211.736 174.579 213.72 176.904 215.669 179.236C217.568 181.51 219.574 183.713 221.92 185.523C224.175 187.264 226.686 188.732 229.274 189.901C231.985 191.124 234.855 192.147 237.807 192.545C238.029 192.575 238.026 192.223 237.807 192.193C232.546 191.485 227.355 188.965 223.037 185.915C220.598 184.191 218.517 182.04 216.576 179.772C214.663 177.533 212.665 175.265 211.17 172.712C209.451 169.774 208.342 166.53 207.245 163.316C207.173 163.102 206.836 163.194 206.91 163.409" fill="#666B70"/>
<path fill-rule="evenodd" clip-rule="evenodd" d="M229.542 135.554C231.586 136.186 233.664 136.828 235.49 137.982C237.359 139.162 238.657 140.915 239.908 142.711C241.05 144.352 242.213 145.942 243.726 147.255C245.185 148.522 246.84 149.516 248.62 150.243C248.828 150.328 248.917 149.988 248.712 149.904C246.698 149.082 244.847 147.892 243.277 146.369C241.751 144.888 240.636 143.085 239.387 141.375C238.241 139.804 236.945 138.411 235.258 137.431C233.507 136.412 231.556 135.808 229.635 135.215C229.42 135.149 229.329 135.488 229.542 135.554" fill="#666B70"/>
<path fill-rule="evenodd" clip-rule="evenodd" d="M266.474 122.367C259.526 133.454 252.58 144.541 245.632 155.628C244.997 156.641 244.08 157.592 244.815 158.773C245.509 159.889 246.499 160.87 247.452 161.756C249.073 163.262 250.876 164.584 252.719 165.801C256.092 168.031 259.619 170.033 263.143 172.008C266.919 174.123 270.721 176.211 274.606 178.115C274.807 178.212 274.983 177.909 274.782 177.81C267.868 174.426 261.063 170.642 254.533 166.551C253.028 165.607 251.559 164.617 250.143 163.542C249.037 162.702 247.964 161.81 246.987 160.82C246.525 160.352 246.084 159.863 245.674 159.348C245.451 159.068 245.136 158.725 244.99 158.389C244.674 157.659 245.042 157.226 245.396 156.661C248.741 151.321 252.087 145.982 255.433 140.642C259.214 134.609 262.994 128.577 266.774 122.545C266.894 122.353 266.594 122.176 266.474 122.367" fill="#666B70"/>
<path fill-rule="evenodd" clip-rule="evenodd" d="M245.769 166.115C244.066 170.328 242.516 174.604 241.136 178.937C240.46 181.058 239.823 183.191 239.227 185.336C238.954 186.318 238.689 187.303 238.433 188.291C238.161 189.335 237.818 190.401 237.676 191.473C237.432 193.323 238.687 194.524 239.929 195.671C241.406 197.033 242.929 198.346 244.493 199.604C247.573 202.084 250.814 204.36 254.188 206.412C258.075 208.776 262.135 210.834 266.325 212.588C266.531 212.675 266.621 212.334 266.417 212.248C259.248 209.246 252.463 205.32 246.282 200.57C244.702 199.356 243.162 198.086 241.666 196.767C240.983 196.164 240.302 195.555 239.642 194.925C238.873 194.19 238.067 193.34 237.987 192.212C237.916 191.218 238.317 190.147 238.56 189.193C238.834 188.115 239.119 187.038 239.414 185.965C239.979 183.908 240.581 181.862 241.219 179.827C242.663 175.222 244.296 170.68 246.105 166.208C246.188 165.999 245.854 165.909 245.769 166.115" fill="#666B70"/>
<path fill-rule="evenodd" clip-rule="evenodd" d="M245.901 166.409C252.894 171.332 260.14 175.917 267.432 180.372C269.217 181.463 271.01 182.541 272.822 183.585C273.017 183.697 273.193 183.394 272.997 183.282C265.592 179.016 258.376 174.378 251.259 169.639C249.518 168.48 247.786 167.309 246.076 166.106C245.891 165.976 245.718 166.281 245.901 166.409" fill="#666B70"/>
<path fill-rule="evenodd" clip-rule="evenodd" d="M223.63 109.91C229.882 107.731 236.822 107.819 243.033 110.119C248.927 112.302 253.935 116.547 257.186 121.974C258.956 124.928 260.171 128.195 260.75 131.6C260.787 131.823 261.122 131.728 261.084 131.507C260.038 125.342 256.874 119.636 252.319 115.425C247.516 110.983 241.261 108.43 234.784 108.032C230.977 107.798 227.144 108.314 223.537 109.571C223.327 109.645 223.417 109.985 223.63 109.91" fill="#666B70"/>
<path fill-rule="evenodd" clip-rule="evenodd" d="M237.635 192.369C237.675 199.336 237.557 206.303 237.347 213.267C237.34 213.493 237.688 213.493 237.694 213.267C237.904 206.303 238.022 199.336 237.981 192.369C237.98 192.143 237.633 192.142 237.635 192.369" fill="#666B70"/>
<path fill-rule="evenodd" clip-rule="evenodd" d="M266.553 122.625C271.559 124.385 276.567 126.137 281.571 127.903C286.391 129.606 291.189 131.395 295.726 133.783C295.924 133.888 296.1 133.585 295.901 133.48C291.418 131.12 286.679 129.339 281.917 127.654C276.83 125.855 271.735 124.076 266.644 122.286C266.433 122.211 266.343 122.551 266.553 122.625" fill="#666B70"/>
<mask id="mask10_5707_9981" style="mask-type:luminance" maskUnits="userSpaceOnUse" x="267" y="183" width="7" height="34">
<path fill-rule="evenodd" clip-rule="evenodd" d="M267.455 183.334H273.117V217H267.455V183.334Z" fill="white"/>
</mask>
<g mask="url(#mask10_5707_9981)">
<path fill-rule="evenodd" clip-rule="evenodd" d="M272.778 183.46C271.711 188.176 270.708 192.905 269.774 197.65C268.862 202.281 268.01 206.93 267.68 211.647C267.342 216.497 267.458 221.361 267.56 226.217C267.664 231.146 267.768 236.075 267.872 241.006C267.99 246.563 268.107 252.122 268.223 257.68C268.229 257.905 268.575 257.906 268.571 257.68C268.365 247.917 268.159 238.154 267.954 228.392C267.85 223.532 267.692 218.665 267.906 213.807C268.12 208.95 268.866 204.17 269.785 199.405C270.806 194.103 271.921 188.82 273.112 183.553C273.162 183.333 272.828 183.239 272.778 183.46" fill="#666B70"/>
</g>
<path fill-rule="evenodd" clip-rule="evenodd" d="M274.844 178.051C278.689 169.29 284.611 161.528 290.757 154.308C292.458 152.309 294.201 150.346 295.968 148.408C296.12 148.241 295.875 147.992 295.722 148.159C289.301 155.201 283.093 162.598 278.198 170.832C276.846 173.105 275.609 175.448 274.544 177.874C274.454 178.079 274.754 178.257 274.844 178.051" fill="#666B70"/>
<mask id="mask11_5707_9981" style="mask-type:luminance" maskUnits="userSpaceOnUse" x="92" y="0" width="235" height="118">
<path fill-rule="evenodd" clip-rule="evenodd" d="M92.3496 0H327V117.568H92.3496V0Z" fill="white"/>
</mask>
<g mask="url(#mask11_5707_9981)">
<path fill-rule="evenodd" clip-rule="evenodd" d="M390.614 76.9531L108.828 -41.2112L92.3496 -0.597462L374.136 117.568L390.614 76.9531Z" fill="#373F49"/>
</g>
<path fill-rule="evenodd" clip-rule="evenodd" d="M194.529 11.7806C192.339 12.9237 190.7 14.0947 189.608 15.2934C188.517 16.4921 187.444 18.051 186.391 19.971L185.699 21.2947L183.559 20.3972L184.25 19.0726C185.278 17.1978 186.461 15.6032 187.798 14.2882C189.138 12.9732 190.689 11.8483 192.458 10.9126L185.665 8.0638L186.374 6.31738L195.238 10.0342L194.529 11.7806Z" fill="#F5F4F3"/>
<path fill-rule="evenodd" clip-rule="evenodd" d="M197.879 20.9305L193.253 18.9906L193.962 17.2441L198.587 19.1841L197.879 20.9305Z" fill="#F5F4F3"/>
<path fill-rule="evenodd" clip-rule="evenodd" d="M204.774 16.0771L200.9 25.6251L202.858 26.4462C203.92 26.8906 204.898 26.8906 205.791 26.441C206.684 25.9914 207.358 25.2093 207.81 24.0939L208.621 22.0984C209.067 20.9952 209.13 19.964 208.809 19.0048C208.486 18.0457 207.793 17.3426 206.731 16.8973L204.774 16.0771ZM198.051 26.4739L203.342 13.4331L207.5 15.1769C209.128 15.8592 210.24 16.9303 210.84 18.3903C211.442 19.8511 211.411 21.3935 210.753 23.0176L209.95 24.9975C209.287 26.6276 208.24 27.7421 206.803 28.3419C205.367 28.9417 203.836 28.9 202.21 28.2186L198.051 26.4739Z" fill="#F5F4F3"/>
<path fill-rule="evenodd" clip-rule="evenodd" d="M213.379 31.0785C213.92 31.305 214.462 31.3719 215.005 31.2773C215.547 31.1844 215.96 30.99 216.244 30.6974L216.826 29.2644L215.125 28.5517C214.503 28.2905 213.952 28.2419 213.472 28.4085C212.992 28.5743 212.667 28.8694 212.495 29.293C212.344 29.6636 212.344 30.0074 212.494 30.3251C212.643 30.6428 212.939 30.8936 213.379 31.0785V31.0785ZM215.372 33.7372C215.395 33.4611 215.428 33.1955 215.474 32.9421C215.519 32.6886 215.579 32.4412 215.655 32.2008C215.177 32.5315 214.637 32.7502 214.034 32.857C213.431 32.9638 212.832 32.8935 212.239 32.6444C211.246 32.2277 210.589 31.6479 210.268 30.9057C209.947 30.1636 209.971 29.339 210.339 28.4311C210.72 27.4936 211.38 26.9164 212.321 26.6994C213.261 26.4816 214.392 26.6499 215.714 27.2046L217.378 27.9033L217.723 27.0518C217.929 26.544 217.944 26.0857 217.768 25.676C217.589 25.2664 217.228 24.9469 216.681 24.7178C216.194 24.5138 215.758 24.4704 215.373 24.5884C214.988 24.7065 214.719 24.9539 214.567 25.3297L212.506 24.4652L212.518 24.4079C212.788 23.6267 213.397 23.0894 214.353 22.7978C215.306 22.5061 216.355 22.5999 217.501 23.0807C218.61 23.546 219.39 24.2083 219.838 25.0667C220.287 25.9252 220.294 26.893 219.858 27.9676L218.11 32.2763C217.948 32.6765 217.818 33.0705 217.723 33.4603C217.626 33.8491 217.565 34.2449 217.54 34.646L215.372 33.7372Z" fill="#F5F4F3"/>
<path fill-rule="evenodd" clip-rule="evenodd" d="M224.05 32.8283L223.868 33.8838L223.922 33.9073L228.758 28.0101L231.101 28.9935L222.626 38.4981C222.099 39.0667 221.509 39.4946 220.859 39.7802C220.206 40.0657 219.461 40.0327 218.621 39.6803C218.444 39.6066 218.263 39.5093 218.074 39.3878C217.887 39.2672 217.707 39.143 217.539 39.0172L218.46 37.4331C218.535 37.4704 218.639 37.526 218.775 37.5963C218.911 37.6674 219.015 37.7178 219.086 37.7473C219.474 37.9096 219.837 37.9053 220.179 37.7343C220.518 37.5624 220.835 37.3307 221.124 37.0408L221.833 36.3108L222.255 25.2837L224.59 26.2628L224.05 32.8283Z" fill="#F5F4F3"/>
<path fill-rule="evenodd" clip-rule="evenodd" d="M243.497 43.4669C242.955 43.8193 242.214 44.0345 241.272 44.1109C240.329 44.1873 239.248 43.9694 238.027 43.4573C236.482 42.8098 235.412 41.7795 234.817 40.3664C234.222 38.9533 234.244 37.4586 234.883 35.8823L235.988 33.1594C236.627 31.5831 237.621 30.4955 238.966 29.8966C240.313 29.2976 241.732 29.3107 243.224 29.9365C244.732 30.5701 245.753 31.439 246.284 32.5457C246.814 33.6515 246.843 34.8147 246.368 36.0342L246.329 36.0811L244.303 35.2313C244.546 34.4944 244.529 33.8121 244.253 33.1811C243.977 32.5518 243.405 32.0561 242.542 31.6942C241.655 31.3227 240.803 31.36 239.986 31.8053C239.169 32.2523 238.55 32.9945 238.129 34.0326L237.018 36.7711C236.592 37.8205 236.537 38.8083 236.852 39.7327C237.168 40.658 237.795 41.3168 238.735 41.7118C239.406 41.9921 239.979 42.1406 240.461 42.1579C240.942 42.1744 241.321 42.1154 241.595 41.98L242.668 39.3352L240.122 38.2676L240.783 36.6375L245.471 38.6026L243.497 43.4669Z" fill="#F5F4F3"/>
<path fill-rule="evenodd" clip-rule="evenodd" d="M251.646 47.2923C251.138 47.6812 250.598 47.9173 250.028 48.0032C249.457 48.0883 248.872 48.005 248.273 47.7541C247.251 47.3262 246.586 46.6596 246.28 45.7551C245.972 44.8506 246.104 43.7005 246.671 42.3031L249.022 36.5083L251.153 37.4015L248.795 43.2153C248.451 44.0625 248.345 44.7135 248.478 45.1675C248.609 45.6206 248.948 45.9626 249.495 46.1917C250.011 46.4078 250.483 46.4964 250.909 46.4547C251.335 46.4122 251.72 46.2551 252.064 45.9799L254.906 38.9752L257.047 39.8735L253.117 49.5648L251.249 48.7818L251.646 47.2923Z" fill="#F5F4F3"/>
<path fill-rule="evenodd" clip-rule="evenodd" d="M259.095 50.2489C259.636 50.4764 260.179 50.5423 260.721 50.4486C261.264 50.3548 261.677 50.1613 261.961 49.8679L262.542 48.4348L260.843 47.7222C260.219 47.4609 259.669 47.4132 259.189 47.579C258.709 47.7448 258.384 48.0399 258.212 48.4635C258.061 48.8341 258.06 49.1778 258.211 49.4955C258.36 49.8132 258.656 50.0641 259.095 50.2489V50.2489ZM261.089 52.9076C261.112 52.6316 261.145 52.3659 261.19 52.1125C261.235 51.859 261.295 51.6117 261.372 51.3712C260.893 51.7019 260.354 51.9207 259.751 52.0274C259.147 52.1342 258.549 52.0639 257.955 51.8148C256.962 51.3981 256.305 50.8183 255.985 50.077C255.664 49.334 255.688 48.5094 256.056 47.6015C256.437 46.6641 257.097 46.0868 258.038 45.8698C258.977 45.6528 260.109 45.8204 261.43 46.375L263.095 47.0737L263.44 46.2222C263.646 45.7145 263.661 45.2562 263.484 44.8465C263.306 44.4368 262.944 44.1182 262.398 43.8882C261.911 43.6842 261.475 43.6408 261.09 43.7589C260.705 43.8778 260.436 44.1243 260.284 44.5001L258.223 43.6365L258.235 43.5783C258.504 42.7971 259.115 42.2607 260.069 41.9682C261.022 41.6765 262.072 41.7703 263.217 42.2511C264.327 42.7164 265.106 43.3787 265.555 44.238C266.004 45.0964 266.01 46.0643 265.574 47.1388L263.826 51.4467C263.664 51.8469 263.534 52.2418 263.439 52.6307C263.342 53.0195 263.281 53.4154 263.257 53.8172L261.089 52.9076Z" fill="#F5F4F3"/>
<path fill-rule="evenodd" clip-rule="evenodd" d="M273.053 48.881L272.15 48.4609C271.734 48.2847 271.35 48.2291 270.998 48.2916C270.647 48.3541 270.327 48.5173 270.041 48.7812L267.308 55.5177L265.168 54.6185L269.099 44.9272L271.055 45.7484L270.626 47.2136C271.068 46.8186 271.536 46.5608 272.028 46.4384C272.52 46.3169 273.014 46.3594 273.507 46.566C273.637 46.6207 273.753 46.6815 273.854 46.7492C273.959 46.8169 274.052 46.8855 274.134 46.9549L273.053 48.881Z" fill="#F5F4F3"/>
<path fill-rule="evenodd" clip-rule="evenodd" d="M275.158 56.9845C275.698 57.2111 276.24 57.2779 276.783 57.1833C277.326 57.0904 277.74 56.896 278.023 56.6035L278.605 55.1704L276.906 54.4578C276.281 54.1965 275.731 54.1479 275.252 54.3146C274.772 54.4804 274.447 54.7755 274.274 55.1991C274.124 55.5697 274.123 55.9134 274.273 56.2311C274.422 56.5488 274.717 56.7997 275.158 56.9845V56.9845ZM277.151 59.6432C277.174 59.3671 277.207 59.1015 277.252 58.8481C277.297 58.5938 277.357 58.3472 277.434 58.1068C276.956 58.4375 276.416 58.6563 275.814 58.763C275.21 58.8698 274.611 58.7995 274.017 58.5504C273.025 58.1337 272.368 57.5539 272.047 56.8118C271.727 56.0696 271.75 55.245 272.118 54.3371C272.499 53.3996 273.159 52.8224 274.1 52.6054C275.039 52.3876 276.171 52.556 277.492 53.1106L279.158 53.8093L279.503 52.9578C279.709 52.4501 279.723 51.9918 279.546 51.5821C279.369 51.1724 279.007 50.8529 278.46 50.6238C277.973 50.4198 277.537 50.3764 277.152 50.4945C276.767 50.6125 276.498 50.8599 276.346 51.2357L274.285 50.3712L274.297 50.3139C274.567 49.5327 275.178 48.9954 276.131 48.7038C277.085 48.4121 278.134 48.5059 279.28 48.9867C280.39 49.452 281.169 50.1143 281.617 50.9727C282.066 51.8312 282.073 52.799 281.636 53.8736L279.889 58.1823C279.726 58.5825 279.597 58.9765 279.501 59.3663C279.405 59.7551 279.344 60.151 279.318 60.552L277.151 59.6432Z" fill="#F5F4F3"/>
<path fill-rule="evenodd" clip-rule="evenodd" d="M287.101 52.4758L286.657 53.9245C287.169 53.5599 287.718 53.3368 288.303 53.2578C288.888 53.1789 289.478 53.2631 290.071 53.5113C291.064 53.9279 291.714 54.5581 292.02 55.4035C292.327 56.2481 292.217 57.3184 291.691 58.6143L289.221 64.705L287.08 63.8075L289.543 57.735C289.839 57.0059 289.9 56.426 289.729 55.9947C289.557 55.5624 289.168 55.2195 288.564 54.9661C288.146 54.7907 287.736 54.7282 287.33 54.7786C286.926 54.8289 286.55 54.9739 286.206 55.2135L283.353 62.2451L281.213 61.3467L285.145 51.6555L287.101 52.4758Z" fill="#F5F4F3"/>
<path fill-rule="evenodd" clip-rule="evenodd" d="M298.998 54.7085L298.042 57.0642L299.753 57.7812L299.098 59.3931L297.388 58.6761L295.215 64.0326C295.053 64.4327 295.022 64.753 295.124 64.996C295.225 65.2365 295.416 65.417 295.699 65.5351C295.815 65.5837 295.935 65.6219 296.054 65.6479C296.174 65.6739 296.291 65.6896 296.407 65.6956L295.989 67.3856C295.766 67.4117 295.516 67.3995 295.24 67.35C294.965 67.3014 294.692 67.219 294.422 67.1061C293.635 66.7763 293.113 66.2833 292.858 65.6271C292.6 64.9709 292.676 64.1419 293.082 63.1385L295.256 57.7821L293.803 57.1727L294.457 55.56L295.911 56.1702L296.866 53.8145L298.998 54.7085Z" fill="#F5F4F3"/>
<path fill-rule="evenodd" clip-rule="evenodd" d="M304.861 61.7576C304.332 61.5354 303.811 61.5667 303.296 61.8514C302.782 62.1352 302.352 62.5883 302.002 63.2107L302.002 63.2627L305.781 64.8486L305.873 64.6246C306.123 64.0092 306.172 63.4424 306.02 62.9251C305.869 62.4078 305.483 62.0189 304.861 61.7576M301.734 70.1729C300.384 69.6061 299.49 68.706 299.053 67.4717C298.616 66.2357 298.683 64.9137 299.254 63.5049L299.4 63.1465C299.971 61.7377 300.843 60.7352 302.016 60.1406C303.189 59.546 304.373 59.5017 305.57 60.0104C306.856 60.5503 307.68 61.3592 308.044 62.4373C308.406 63.5145 308.318 64.7201 307.777 66.0517L307.258 67.3328L301.312 64.8391L301.276 64.8764C300.999 65.6585 300.966 66.3798 301.177 67.0386C301.387 67.6974 301.853 68.1783 302.575 68.4821C303.151 68.7225 303.673 68.8588 304.143 68.8874C304.612 68.9169 305.092 68.877 305.583 68.7685L305.692 70.4837C305.201 70.6573 304.614 70.731 303.931 70.705C303.248 70.6772 302.516 70.5002 301.734 70.1729" fill="#F5F4F3"/>
<path fill-rule="evenodd" clip-rule="evenodd" d="M314.411 65.7621C313.881 65.5407 313.361 65.572 312.846 65.8558C312.332 66.1405 311.901 66.5936 311.552 67.216L311.551 67.2681L315.331 68.853L315.422 68.6291C315.673 68.0137 315.721 67.4477 315.57 66.9295C315.419 66.4122 315.033 66.0233 314.411 65.7621M311.284 74.1773C309.934 73.6114 309.04 72.7113 308.602 71.4761C308.165 70.2409 308.233 68.919 308.804 67.5093L308.95 67.1517C309.521 65.7421 310.393 64.7396 311.566 64.145C312.739 63.5504 313.923 63.507 315.119 64.0156C316.405 64.5547 317.23 65.3636 317.594 66.4417C317.956 67.5198 317.868 68.7254 317.327 70.0561L316.808 71.3372L310.862 68.8435L310.826 68.8808C310.549 69.6637 310.516 70.3842 310.727 71.0438C310.937 71.7027 311.403 72.1835 312.124 72.4865C312.701 72.7278 313.223 72.8632 313.693 72.8918C314.161 72.9213 314.642 72.8814 315.133 72.7729L315.241 74.4889C314.751 74.6617 314.164 74.7363 313.481 74.7094C312.797 74.6825 312.065 74.5054 311.284 74.1773" fill="#F5F4F3"/>
<path fill-rule="evenodd" clip-rule="evenodd" d="M222.597 134.499L221.612 147L220.627 134.499L221.612 122L222.597 134.499Z" fill="white"/>
<path fill-rule="evenodd" clip-rule="evenodd" d="M222.104 136L209.792 135L222.104 134L234.415 135L222.104 136Z" fill="white"/>
<path fill-rule="evenodd" clip-rule="evenodd" d="M182.213 156.5L181.721 165L181.229 156.5L181.721 148L182.213 156.5Z" fill="white"/>
<path fill-rule="evenodd" clip-rule="evenodd" d="M181.722 157L173.35 156.5L181.722 156L190.094 156.5L181.722 157Z" fill="white"/>
</g>
</svg>
