<svg width="18" height="18" viewBox="0 0 18 18" fill="none" xmlns="http://www.w3.org/2000/svg">
<path fill-rule="evenodd" clip-rule="evenodd" d="M13.5233 12.4627L16.7355 15.6743L15.6743 16.7355L12.4627 13.5233C11.2678 14.4812 9.7815 15.0022 8.25 15C4.524 15 1.5 11.976 1.5 8.25C1.5 4.524 4.524 1.5 8.25 1.5C11.976 1.5 15 4.524 15 8.25C15.0022 9.7815 14.4812 11.2678 13.5233 12.4627ZM12.0187 11.9062C12.9706 10.9274 13.5022 9.61532 13.5 8.25C13.5 5.349 11.1503 3 8.25 3C5.349 3 3 5.349 3 8.25C3 11.1503 5.349 13.5 8.25 13.5C9.61532 13.5022 10.9274 12.9706 11.9062 12.0187L12.0187 11.9062Z" fill="#242C33"/>
<path d="M10.0009 5.07605C11.1815 5.07605 12.1383 6.04762 12.1383 7.40783C12.1383 10.1282 9.22359 11.6828 8.25202 12.2657C7.28044 11.6828 4.36572 10.1282 4.36572 7.40783C4.36572 6.04762 5.3373 5.07605 6.50319 5.07605C7.22604 5.07605 7.86339 5.75369 8.25202 6.14231C8.64065 5.75369 9.278 5.07605 10.0009 5.07605Z" fill="#242C33"/>
</svg>
