<svg width="20" height="20" viewBox="0 0 20 20" fill="none" xmlns="http://www.w3.org/2000/svg">
<path fill-rule="evenodd" clip-rule="evenodd" d="M17.8009 16.6651V11.5306L18.6518 11.3184C18.9564 11.2421 19.1701 10.9683 19.1701 10.6543V10.1614C19.1701 9.97238 19.0168 9.81913 18.8278 9.81913H17.5442L16.0805 5.91555C15.8801 5.38101 15.3691 5.02688 14.7982 5.02695H7.11159C6.54072 5.02688 6.02971 5.38101 5.82933 5.91555L4.36566 9.81913H3.08204C2.893 9.81913 2.73975 9.97238 2.73975 10.1614V10.6543C2.73975 10.9683 2.95339 11.2421 3.25799 11.3184L4.10894 11.5306V16.6651C4.10894 17.0432 4.41545 17.3497 4.79354 17.3497H5.47814C5.85623 17.3497 6.16273 17.0432 6.16273 16.6651V15.9805H15.7471V16.6651C15.7471 17.0432 16.0536 17.3497 16.4317 17.3497H17.1163C17.4944 17.3497 17.8009 17.0432 17.8009 16.6651ZM5.47662 13.9266V12.5574C7.06351 12.5574 8.13285 13.0736 8.68396 14.1073C8.74071 14.2133 8.73768 14.3413 8.67599 14.4445C8.61429 14.5477 8.50297 14.611 8.38273 14.6112H6.16121C5.78312 14.6112 5.47662 14.3047 5.47662 13.9266ZM16.4338 12.5574C14.8475 12.5574 13.7782 13.0743 13.2257 14.1073C13.1689 14.2134 13.172 14.3416 13.2339 14.4448C13.2957 14.5481 13.4073 14.6112 13.5276 14.6112H15.7492C16.1272 14.6112 16.4338 14.3047 16.4338 13.9266V12.5574ZM5.77891 9.60204L6.84757 6.39538H15.0627L16.1314 9.60204C16.2009 9.81071 16.1659 10.0401 16.0374 10.2185C15.9088 10.397 15.7023 10.5028 15.4824 10.503H6.42791C6.20797 10.5028 6.0015 10.397 5.87295 10.2185C5.7444 10.0401 5.70941 9.81071 5.77891 9.60204Z" fill="#242C33"/>
<path d="M6.55648 3.21311L6.17111 2.15968L5.11768 1.77431L6.17111 1.38894L6.55648 0.33551L6.94185 1.38894L7.99528 1.77431L6.94185 2.15968L6.55648 3.21311Z" fill="#242C33"/>
<path d="M3.33022 7.1135L2.51329 4.98938L0.38916 4.17244L2.51329 3.35551L3.33022 1.23138L4.14715 3.35551L6.27128 4.17244L4.14715 4.98938L3.33022 7.1135Z" fill="#242C33"/>
</svg>
