<svg width="84" height="28" viewBox="0 0 84 28" fill="none" xmlns="http://www.w3.org/2000/svg">
<path fill-rule="evenodd" clip-rule="evenodd" d="M47.0791 26.3029C47.0924 26.7431 46.9308 27.1703 46.6305 27.4889C46.1612 27.9711 45.4495 28.116 44.8325 27.855C44.2156 27.594 43.8174 26.9796 43.8268 26.3029V25.6503C43.8135 25.2101 43.9751 24.7829 44.2754 24.4642C44.9427 23.8433 45.9688 23.8433 46.6361 24.4642C46.9442 24.7791 47.1122 25.2073 47.1015 25.6503L47.0791 26.3029ZM33.941 27.5117C34.2435 27.1944 34.4054 26.7662 34.3896 26.3256V25.6503C34.4033 25.209 34.2394 24.781 33.9354 24.4643C33.27 23.8441 32.2457 23.8441 31.5803 24.4643C31.2763 24.781 31.1124 25.209 31.1261 25.6503V26.3256C31.1067 26.7703 31.2731 27.2028 31.5847 27.517C31.8962 27.8312 32.3241 27.9982 32.7635 27.977C33.2028 27.9943 33.6295 27.8257 33.941 27.5117ZM15.6108 24.0557L14.3716 27.9429H15.2688L15.4818 27.1882H16.693L16.9117 27.9429H17.8089L16.5697 24.0557H15.6108ZM16.0817 25.0998L16.4854 26.4902H15.7004L16.0817 25.0998ZM22.4068 26.6037V24.0557H23.2984V26.6037C23.3199 26.9965 23.1579 27.3768 22.861 27.6308C22.1739 28.123 21.2547 28.123 20.5676 27.6308C20.2707 27.3768 20.1087 26.9965 20.1302 26.6037V24.0557H21.0218V26.6037C21.0058 26.7983 21.0732 26.9905 21.2068 27.1314C21.3487 27.2529 21.5316 27.3139 21.7171 27.3017C21.9027 27.3151 22.0861 27.254 22.2274 27.1314C22.3571 26.9884 22.4221 26.7972 22.4068 26.6037ZM25.8274 24.0557V24.748H26.8311V27.9429H27.7283V24.748H28.7376V24.0557H25.8274ZM33.5039 25.6219C33.5062 25.3892 33.4376 25.1613 33.3076 24.9693C33.1786 24.7885 32.9668 24.6878 32.7469 24.7026C32.5275 24.6899 32.3166 24.7902 32.1862 24.9693C32.0514 25.1715 31.9845 25.4123 31.9955 25.656V26.3597C31.9845 26.6033 32.0514 26.8441 32.1862 27.0463C32.3152 27.2271 32.5271 27.3279 32.7469 27.313C32.9676 27.3325 33.1816 27.2307 33.3076 27.0463C33.4444 26.8448 33.5133 26.604 33.5039 26.3597V25.6219ZM39.1058 26.7512L39.975 24.033L41.1245 24.0557V27.9202H40.2273V26.9555L40.3114 25.1793L39.3806 27.9202H38.7806L37.8666 25.202L37.9507 26.9555V27.9202H37.0535V24.033H38.2423L39.1058 26.7512ZM45.98 24.9693C46.1097 25.1537 46.1819 25.373 46.1875 25.5992L46.1763 26.3596C46.1873 26.6033 46.1204 26.8441 45.9856 27.0463C45.8588 27.2297 45.6453 27.3313 45.4249 27.313C45.205 27.3279 44.9931 27.2271 44.8641 27.0463C44.7274 26.8448 44.6585 26.604 44.6679 26.3596V25.656C44.6569 25.4123 44.7237 25.1715 44.8585 24.9693C44.9935 24.7948 45.2003 24.6929 45.4193 24.6929C45.6382 24.6929 45.845 24.7948 45.98 24.9693ZM49.4734 24.0103V24.7026H50.4659V27.8975H51.3631V24.748H52.3724V24.0557L49.4734 24.0103ZM55.8437 27.9429H54.9521V24.0557H55.8437V27.9429ZM60.8847 24.0557L60.1221 26.8931V26.8817L59.3707 24.0443H58.4399L59.6791 27.9316H60.5594L61.8043 24.0443L60.8847 24.0557ZM64.3164 27.9429V24.0557H67.0023V24.748H65.2248V25.5822H66.7275V26.2802H65.2136V27.2393H66.9855V27.9429H64.3164Z" fill="#333E48"/>
<path fill-rule="evenodd" clip-rule="evenodd" d="M54.6832 4.48881C54.6832 1.75353 52.743 0 49.6702 0H44.4609V17.4445H46.7824V2.1224H49.4795C51.2122 2.1224 52.3281 2.93958 52.3281 4.52854C52.3281 5.9586 51.2346 6.93468 49.4795 6.93468H47.8534V9.07977H49.401C52.3056 9.07977 54.6832 7.51351 54.6832 4.50016V4.48881ZM63.1503 6.93468V17.4445H61.0756V15.918C60.2763 16.9664 59.0174 17.5482 57.7111 17.4729C56.3198 17.5066 54.9739 16.9699 53.9793 15.9846C52.9847 14.9994 52.4256 13.6492 52.429 12.2407C52.4241 10.8186 52.9871 9.45487 53.9901 8.45899C54.9932 7.4631 56.3512 6.91955 57.756 6.9517C59.0363 6.88234 60.2693 7.45014 61.0587 8.47256V6.93468H63.1503ZM70.9053 6.9744C69.1762 6.90172 68.0349 7.89756 67.4063 9.37046V6.9517H65.1241V17.4275H67.4063V13.3927C67.4063 10.7368 68.7745 9.42027 70.7707 9.42027H70.9053V6.9744ZM59.9734 14.5215C59.4009 15.1257 58.6054 15.461 57.7784 15.447L57.756 15.464C56.9286 15.4614 56.1377 15.1195 55.5638 14.5163C54.99 13.9131 54.6824 13.1002 54.7112 12.2634C54.6629 11.4307 54.9585 10.6152 55.5273 10.0115C56.0961 9.40794 56.887 9.07047 57.7111 9.07977C58.5423 9.07169 59.3408 9.40658 59.9227 10.0072C60.5046 10.6079 60.8196 11.4225 60.7952 12.2634C60.8437 13.099 60.5459 13.9173 59.9734 14.5215ZM81.307 17.4445H78.5034L74.4156 13.3756V17.4672H72.1334V2.1451H74.41V10.4985L78.4585 6.80984H81.4248L75.7445 11.9172L81.307 17.4445ZM83.1741 3.48436C83.326 3.33625 83.4095 3.13032 83.404 2.91688C83.4102 2.70331 83.3266 2.4971 83.1741 2.34939C83.028 2.19394 82.8253 2.10594 82.6134 2.10594C82.4014 2.10594 82.1987 2.19394 82.0526 2.34939C81.9001 2.4971 81.8165 2.70331 81.8227 2.91688C81.8172 3.13032 81.9007 3.33625 82.0526 3.48436C82.1986 3.63875 82.4023 3.7233 82.6134 3.71703C82.8243 3.72258 83.0277 3.63815 83.1741 3.48436ZM82.6249 2.24724C82.4461 2.24616 82.2744 2.31771 82.1482 2.44586C82.0231 2.57413 81.9544 2.74802 81.9576 2.92822C81.9531 3.10866 82.022 3.28305 82.1482 3.41058C82.2744 3.53872 82.4461 3.61028 82.6249 3.6092C82.8022 3.61135 82.9725 3.53951 83.0959 3.41058C83.2259 3.2852 83.2972 3.10989 83.2921 2.92822C83.2921 2.55433 82.9943 2.25035 82.6249 2.24724ZM82.3105 2.49126V3.35951H82.4619V3.01902H82.5797C82.6351 3.0074 82.6924 3.0074 82.7479 3.01902C82.8052 3.06782 82.8346 3.14232 82.8264 3.21764V3.33681H82.989C82.9877 3.32171 82.9877 3.30652 82.989 3.29141V3.17224C82.9859 3.12544 82.9704 3.08036 82.9441 3.04172C82.9091 2.9943 82.8564 2.96352 82.7983 2.9566C82.8419 2.9494 82.8838 2.934 82.9217 2.9112C82.9792 2.87506 83.0118 2.80922 83.0058 2.74095C83.0142 2.64657 82.959 2.55822 82.8712 2.52531C82.7957 2.4986 82.7157 2.48703 82.6357 2.49126H82.3105ZM82.8267 2.75231C82.8329 2.70331 82.8112 2.65499 82.7706 2.62746C82.7146 2.60089 82.6529 2.58918 82.5912 2.59342H82.4622V2.88851H82.5968C82.6451 2.89626 82.6943 2.89626 82.7426 2.88851C82.7982 2.86801 82.8329 2.81186 82.8267 2.75231Z" fill="#333E48"/>
<path fill-rule="evenodd" clip-rule="evenodd" d="M8.91571 2.13946V4.48885H2.32145V8.69392H7.28957V11.0206H2.32145V15.0952H9.01103V17.4446H0V2.12244L8.91571 2.13946ZM18.7172 15.5719L17.3377 14.1985C16.6927 14.972 15.7524 15.4302 14.7528 15.4584C12.9976 15.4584 11.7752 14.0056 11.7752 12.1896C11.7752 10.3737 12.9808 8.96632 14.6406 8.96632C15.6449 8.97474 16.5929 9.43678 17.2256 10.2261L18.6387 8.6769C17.6428 7.51379 16.1768 6.87435 14.6574 6.94039C13.2751 6.9341 11.9485 7.49134 10.9769 8.48642C10.0052 9.48149 9.47042 10.8306 9.49304 12.2294C9.47178 13.6196 10.0065 14.9595 10.9759 15.9448C11.9452 16.93 13.2669 17.4771 14.6406 17.4616C16.2165 17.5107 17.7246 16.8116 18.7172 15.5719ZM24.6333 9.03441C23.3155 9.03441 22.3903 9.97076 22.3903 11.537V17.4616H20.1081V2.13945H22.3903V8.71094C23.042 7.60119 24.2269 6.92496 25.5024 6.93471C27.751 6.93471 29.0519 8.46125 29.0519 10.8106V17.4445H26.7697V11.4973C26.7697 9.93104 25.951 9.03441 24.6333 9.03441ZM43.3845 9.04577H40.0201C41.5432 11.0416 41.5084 13.8361 39.9359 15.7924C38.3635 17.7488 35.6672 18.3522 33.4263 17.2494C31.1853 16.1466 29.9894 13.6276 30.5389 11.1678C31.0883 8.70807 33.2386 6.95474 35.7304 6.93472H36.0949H43.3845V9.04577ZM38.7299 12.2691C38.7766 13.1043 38.4783 13.9216 37.9061 14.5254C37.334 15.1291 36.5396 15.465 35.7131 15.4527C34.8832 15.4472 34.091 15.101 33.518 14.4933C32.9451 13.8856 32.6404 13.0686 32.6739 12.2294C32.6256 11.3967 32.9212 10.5811 33.49 9.97753C34.0588 9.37392 34.8497 9.03646 35.6738 9.04576C36.5067 9.04662 37.3033 9.39082 37.8799 9.99901C38.4565 10.6072 38.7634 11.4269 38.7299 12.2691Z" fill="#62A744"/>
</svg>
