<svg width="156" height="52" viewBox="0 0 156 52" fill="none" xmlns="http://www.w3.org/2000/svg">
<path fill-rule="evenodd" clip-rule="evenodd" d="M87.2547 50.7568C87.827 50.1577 88.1293 49.3497 88.091 48.5211V47.2244C88.1412 45.9515 87.4002 44.7803 86.2301 44.2832C85.06 43.7862 83.7052 44.0671 82.8278 44.9887C82.2532 45.5863 81.9505 46.3954 81.9915 47.2244V48.5211C81.9413 49.794 82.6823 50.9652 83.8524 51.4622C85.0225 51.9593 86.3773 51.6783 87.2547 50.7568ZM64.3175 48.5211C64.3558 49.3497 64.0535 50.1577 63.4811 50.7568C62.891 51.3445 62.0819 51.6568 61.251 51.6175C60.4296 51.6592 59.6287 51.3519 59.045 50.771C58.4613 50.1901 58.1489 49.3895 58.1845 48.5658V47.2244C58.1424 46.3931 58.4498 45.5822 59.032 44.9887C60.2786 43.7906 62.2457 43.7906 63.4923 44.9887C64.0745 45.5822 64.3819 46.3931 64.3398 47.2244L64.3175 48.5211ZM29.2259 44.2621L26.873 51.4722H28.5568L28.9917 50.0749H31.2219L31.6344 51.4722H33.3071L30.9877 44.2621H29.2259ZM30.1063 46.2071L30.8534 48.7781H29.3258L30.1063 46.2071ZM41.9377 48.9906V44.2622H43.6103V48.9906C43.6521 49.7171 43.3506 50.4211 42.7963 50.891C42.1873 51.3683 41.4275 51.6103 40.6553 51.5728C39.8762 51.6117 39.1088 51.3699 38.4921 50.891C37.9377 50.4211 37.6362 49.7171 37.6781 48.9906V44.2622H39.3507V48.9906C39.3195 49.3497 39.4457 49.7047 39.6964 49.9631C39.962 50.1918 40.3058 50.3081 40.6553 50.2873C41 50.3118 41.3405 50.1994 41.6032 49.9743C41.8466 49.7075 41.9679 49.3509 41.9377 48.9906ZM48.3384 44.2621V45.5365H50.1782V51.461H51.8509V45.5365H53.7465V44.2621H48.3384ZM62.2987 45.9389C62.5472 46.316 62.672 46.7616 62.6555 47.2133L62.6332 48.5211C62.6497 48.9728 62.5249 49.4183 62.2764 49.7955C62.0403 50.1178 61.6603 50.3019 61.2617 50.2873C60.8527 50.3073 60.4602 50.1231 60.2135 49.7955C59.9729 49.4157 59.856 48.9704 59.879 48.5211V47.2133C59.861 46.7614 59.9859 46.3154 60.2358 45.9389C60.4764 45.6098 60.8665 45.4248 61.2729 45.4471C61.6745 45.4326 62.0578 45.6164 62.2987 45.9389ZM73.1269 49.3036L74.766 44.2622H76.9404V51.4722H75.2009V49.6837L75.357 46.3972L73.6287 51.4834H72.5136L70.8075 46.442L70.9636 49.6837V51.4722H69.291V44.2622H71.5212L73.1269 49.3036ZM86.3854 47.2133C86.4032 46.7598 86.2741 46.3127 86.0174 45.9389C85.7826 45.615 85.4017 45.4304 85.0027 45.4471C84.5963 45.4248 84.2062 45.6098 83.9657 45.9389C83.7185 46.3158 83.6011 46.7633 83.6311 47.2133V48.5211C83.6147 48.9728 83.7395 49.4183 83.988 49.7955C84.2312 50.1213 84.6194 50.3055 85.025 50.2873C85.4275 50.3057 85.8125 50.1211 86.0509 49.7955C86.2994 49.4183 86.4241 48.9728 86.4077 48.5211L86.3854 47.2133ZM92.5517 44.2622V45.5365H94.425V51.4611H96.0977V45.5365H97.9933V44.2622H92.5517ZM104.438 51.4722H102.777L102.754 44.2621H104.438V51.4722ZM113.872 44.2622L112.445 49.5384V49.516L111.029 44.2622H109.144L111.508 51.4722H113.315L115.645 44.2622H113.872ZM120.284 51.4722V44.2622H125.279V45.5365H121.934V47.1015H124.755V48.387H121.934V50.1867H125.279V51.4722H120.284Z" fill="white"/>
<path fill-rule="evenodd" clip-rule="evenodd" d="M102.275 8.28877C102.267 3.24571 98.6335 0 92.8861 0H83.1514V32.3167H87.4891V3.95715H92.5515C95.7964 3.95715 97.8705 5.47741 97.8705 8.4285C97.8705 11.0778 95.8299 12.8999 92.5515 12.8999H89.4962V16.7676H92.3954C97.8204 16.7676 102.266 13.867 102.275 8.28877ZM102.275 8.28877L102.275 8.27201V8.30554L102.275 8.28877ZM41.8823 21.4178C41.8823 18.5114 43.6106 16.7899 46.0861 16.7899C48.5616 16.7899 50.0669 18.4443 50.0669 21.3507V32.3614H54.3377V20.0652C54.3377 15.7168 51.9068 12.8775 47.703 12.8775C45.3147 12.8564 43.0963 14.1132 41.8823 16.1751V3.9683H37.6115V32.3167H41.8711L41.8823 21.4178ZM16.7262 8.30554V3.96833H0V32.3055H16.8489V27.946H4.33766V20.4341H13.6374V16.1304H4.33766V8.30554H16.7262ZM35.0029 28.9185C33.1528 31.2185 30.3327 32.5141 27.3869 32.4174C24.8158 32.4509 22.3406 31.4396 20.5256 29.6137C18.7105 27.7878 17.7102 25.303 17.7526 22.7257C17.7106 20.1324 18.712 17.6314 20.531 15.7869C22.3499 13.9424 24.8331 12.9099 27.4204 12.9222C30.2604 12.7979 33.0008 13.9841 34.8579 16.1416L32.2152 19.0033C31.0317 17.5472 29.2605 16.6983 27.3869 16.6894C24.2535 16.6894 22.0234 19.2939 22.0234 22.6586C22.0234 26.0233 24.3093 28.7061 27.5988 28.7061C29.465 28.6555 31.2212 27.8098 32.4271 26.381L35.0029 28.9185ZM70.9236 26.923C69.844 28.0435 68.3468 28.6615 66.7931 28.6279L66.8266 28.639C65.2758 28.6282 63.7958 27.9866 62.7257 26.8613C61.6557 25.7359 61.0873 24.2232 61.1508 22.6698C61.0649 21.134 61.6142 19.6306 62.6692 18.5137C63.7243 17.3968 65.1918 16.7652 66.7262 16.7676C68.2876 16.7604 69.7843 17.3922 70.8704 18.5168C71.9564 19.6414 72.5378 21.1615 72.48 22.7257C72.5674 24.2811 72.0033 25.8025 70.9236 26.923ZM81.1328 16.7676H74.8103C77.6583 20.4658 77.5917 25.6429 74.6497 29.2664C71.7076 32.8899 66.6643 34.006 62.4739 31.9612C58.2834 29.9163 56.0488 25.2485 57.0788 20.692C58.1088 16.1354 62.1324 12.8894 66.7929 12.8552H67.4731H81.1328V16.7676ZM126.004 12.8775V17.4942V17.5389C127.175 14.7443 129.327 12.8328 132.605 12.9781V17.4495H132.36C128.625 17.4495 126.004 19.8863 126.004 24.8384V32.3167H121.745V12.8775H126.004ZM108.007 28.7173C109.551 28.7381 111.034 28.1162 112.104 26.9996C113.173 25.8831 113.733 24.3719 113.649 22.8263C113.738 21.252 113.177 19.7105 112.096 18.5642C111.016 17.418 109.513 16.7682 107.94 16.7676C106.408 16.7654 104.942 17.3955 103.887 18.5099C102.833 19.6243 102.282 21.1247 102.365 22.6586C102.301 24.212 102.869 25.7247 103.94 26.8501C105.01 27.9755 106.49 28.6171 108.04 28.6279L108.007 28.7173ZM118.076 32.2943V12.8216L114.185 12.8439V15.6497C112.688 13.7912 110.384 12.7781 108.007 12.9334C105.383 12.8761 102.847 13.8835 100.974 15.7272C99.1015 17.5708 98.0508 20.0944 98.0605 22.7256C98.0506 25.3361 99.0953 27.8395 100.956 29.6653C102.818 31.491 105.337 32.4838 107.94 32.4173C110.382 32.531 112.724 31.4365 114.207 29.4886V32.2943H118.076ZM152.03 32.2831H146.822L139.195 24.7713V32.3167H134.924V3.9683H139.095V19.5063L146.666 12.6651H152.242L141.615 22.0885L152.03 32.2831ZM154.818 4.82903C154.891 4.88391 154.929 4.97323 154.919 5.06378C154.926 5.1771 154.858 5.2816 154.751 5.32088C154.663 5.33632 154.572 5.33632 154.484 5.32088H154.227V4.80667H154.473C154.587 4.78408 154.704 4.78408 154.818 4.80667V4.82903ZM153.948 6.21519V4.56079L154.505 4.62786C154.649 4.60368 154.796 4.60368 154.94 4.62786C155.107 4.68808 155.212 4.85333 155.197 5.03028C155.204 5.15819 155.145 5.28091 155.04 5.35446L154.806 5.43271C154.918 5.44116 155.02 5.49842 155.085 5.5892L155.174 5.87984V6.1593H154.918V5.95809C154.933 5.81638 154.874 5.677 154.762 5.5892C154.659 5.56493 154.552 5.56493 154.449 5.5892H154.226V6.21519H153.948ZM153.647 4.48255C153.88 4.23846 154.203 4.10103 154.54 4.10249C155.229 4.11458 155.782 4.67484 155.788 5.36565C155.794 5.70187 155.661 6.0255 155.42 6.25992C155.191 6.50042 154.872 6.6341 154.54 6.6288C154.034 6.62525 153.58 6.31924 153.385 5.85151C153.191 5.38377 153.294 4.84485 153.647 4.48255ZM156 5.36566C156.004 5.7575 155.847 6.13374 155.565 6.40525C155.296 6.68198 154.925 6.83558 154.539 6.83003C154.151 6.83303 153.778 6.67972 153.503 6.40444C153.228 6.12916 153.075 5.75495 153.078 5.36566C153.072 4.97661 153.23 4.60292 153.513 4.33724C153.785 4.0642 154.154 3.91076 154.539 3.91076C154.924 3.91076 155.293 4.0642 155.565 4.33724C155.849 4.60292 156.007 4.97661 156 5.36566Z" fill="white"/>
</svg>
