<svg width="48" height="18" viewBox="0 0 48 18" fill="none" xmlns="http://www.w3.org/2000/svg">
<path fill-rule="evenodd" clip-rule="evenodd" d="M11.042 12.2622C10.3407 12.2622 9.77271 12.8307 9.77271 13.5333C9.77271 14.2347 10.3407 14.8032 11.042 14.8032C11.7439 14.8032 12.3113 14.2353 12.3113 13.5333C12.3113 12.8307 11.7439 12.2622 11.042 12.2622ZM11.042 11.2617C9.78813 11.2617 8.77258 12.2783 8.77258 13.5333C8.77258 14.7878 9.78813 15.8049 11.042 15.8049C12.2958 15.8049 13.3114 14.7878 13.3114 13.5333C13.3114 12.2783 12.2958 11.2617 11.042 11.2617ZM39.8811 12.2622C39.1798 12.2622 38.6125 12.8307 38.6125 13.5333C38.6125 14.2347 39.1798 14.8032 39.8811 14.8032C40.5831 14.8032 41.151 14.2353 41.151 13.5333C41.151 12.8307 40.5831 12.2622 39.8811 12.2622ZM39.8811 11.2617C38.6279 11.2617 37.6123 12.2783 37.6123 13.5333C37.6123 14.7878 38.6279 15.8049 39.8811 15.8049C41.1356 15.8049 42.1511 14.7878 42.1511 13.5333C42.1511 12.2783 41.1356 11.2617 39.8811 11.2617ZM39.8812 9.26001C42.2395 9.26001 44.1508 11.1732 44.1508 13.5332C44.1508 14.847 43.5581 16.0217 42.6265 16.8059H45.9998V17.8064H39.8812H11.042H1.00012V16.8059H8.29726C7.36506 16.0217 6.7724 14.847 6.7724 13.5332C6.7724 11.1732 8.68435 9.26001 11.042 9.26001C13.3997 9.26001 15.3117 11.1732 15.3117 13.5332C15.3117 14.847 14.7184 16.0217 13.7868 16.8059H37.1364C36.2042 16.0217 35.6122 14.847 35.6122 13.5332C35.6122 11.1732 37.5241 9.26001 39.8812 9.26001ZM0 12.0119V10.0097H3.99985L1.00012 9.00859V8.00811H0V6.00655H4.99996H24.9998L21 5.00546L22.0001 1.00109L23.0002 0H30.9999L32 1.00109H25.9999V5.00546L27 6.00655H32L33.0001 5.00546L30.9999 2.00218H32L34.9997 5.00546L45.9998 6.00655L46.9999 7.00764L44.9997 8.00811L45.9998 9.00859H48V10.0097H45.9998L48 11.0114V13.0136L45.9998 15.0145H44.9398C45.0768 14.5443 45.1515 14.0474 45.1515 13.5327C45.1515 10.6215 42.7895 8.25839 39.8812 8.25839C36.974 8.25839 34.6126 10.6221 34.6126 13.5327C34.6126 14.0474 34.6867 14.5443 34.8244 15.0145H16.1C16.2377 14.5443 16.3124 14.0474 16.3124 13.5327C16.3124 10.6215 13.9498 8.25839 11.042 8.25839C8.13489 8.25839 5.77289 10.6221 5.77289 13.5327C5.77289 14.0474 5.84697 14.5443 5.98464 15.0145H3.99985L0 12.0119Z" fill="#313D47"/>
</svg>
