<svg width="20" height="20" viewBox="0 0 20 20" fill="none" xmlns="http://www.w3.org/2000/svg">
<path fill-rule="evenodd" clip-rule="evenodd" d="M3.33333 1.66675H16.6667C17.1269 1.66675 17.5 2.03984 17.5 2.50008V17.5001C17.5 17.9603 17.1269 18.3334 16.6667 18.3334H3.33333C2.8731 18.3334 2.5 17.9603 2.5 17.5001V2.50008C2.5 2.03984 2.8731 1.66675 3.33333 1.66675ZM5.83333 10.0001V11.6667H7.5V10.0001H5.83333ZM5.83333 15.0001V13.3334H7.5V15.0001H5.83333ZM9.16667 10.0001V11.6667H10.8333V10.0001H9.16667ZM9.16667 15.0001V13.3334H10.8333V15.0001H9.16667ZM12.5 10.0001V15.0001H14.1667V10.0001H12.5ZM5.83333 8.33341V5.00008H14.1667V8.33341H5.83333Z" fill="#006FA6"/>
</svg>
